<svg xmlns="http://www.w3.org/2000/svg" width="76" height="45.448" viewBox="0 0 76 45.448">
  <g id="amazon-web-services-2" transform="translate(0.032)">
    <path id="Path_16351" data-name="Path 16351" d="M30.675,16.506a7.648,7.648,0,0,0,.278,2.25,13.53,13.53,0,0,0,.809,1.82,1.1,1.1,0,0,1,.177.581,1,1,0,0,1-.48.758l-1.592,1.062a1.212,1.212,0,0,1-.657.227,1.163,1.163,0,0,1-.758-.354,7.82,7.82,0,0,1-.91-1.188c-.253-.43-.506-.91-.784-1.491a9.338,9.338,0,0,1-7.431,3.488,6.926,6.926,0,0,1-5.055-1.82,6.493,6.493,0,0,1-1.87-4.853,6.507,6.507,0,0,1,2.3-5.207,9.2,9.2,0,0,1,6.193-1.972,20.013,20.013,0,0,1,2.679.2c.935.126,1.9.329,2.907.556V8.72c0-1.921-.4-3.261-1.188-4.044-.809-.784-2.174-1.163-4.12-1.163a11.5,11.5,0,0,0-2.73.329,20.141,20.141,0,0,0-2.73.859,7.253,7.253,0,0,1-.885.329,1.55,1.55,0,0,1-.4.076c-.354,0-.531-.253-.531-.784V3.084a1.6,1.6,0,0,1,.177-.885,1.893,1.893,0,0,1,.708-.531A14.552,14.552,0,0,1,17.961.531,15.325,15.325,0,0,1,21.9.051c3.008,0,5.207.682,6.623,2.047,1.39,1.365,2.1,3.438,2.1,6.218v8.19ZM20.413,20.348a8.192,8.192,0,0,0,2.6-.455,5.633,5.633,0,0,0,2.4-1.618,4.012,4.012,0,0,0,.859-1.618,9.074,9.074,0,0,0,.253-2.2V13.4a21.109,21.109,0,0,0-2.325-.43,19.046,19.046,0,0,0-2.376-.152,5.827,5.827,0,0,0-3.766,1.011,3.523,3.523,0,0,0-1.239,2.907,3.261,3.261,0,0,0,3.589,3.615Zm20.3,2.73a1.411,1.411,0,0,1-.961-.253,2.06,2.06,0,0,1-.531-.986L33.279,2.3a4.428,4.428,0,0,1-.227-1.011.554.554,0,0,1,.607-.632h2.477a1.4,1.4,0,0,1,.986.253,2.068,2.068,0,0,1,.506.986l4.247,16.733L45.816,1.9A1.773,1.773,0,0,1,46.3.91,1.739,1.739,0,0,1,47.307.657h2.022A1.521,1.521,0,0,1,50.34.91a1.7,1.7,0,0,1,.48.986l3.994,16.935L59.187,1.9A2.168,2.168,0,0,1,59.693.91a1.649,1.649,0,0,1,.986-.253h2.351a.562.562,0,0,1,.632.632,2.52,2.52,0,0,1-.051.4,3.6,3.6,0,0,1-.177.632L57.342,21.864a1.938,1.938,0,0,1-.531.986,1.617,1.617,0,0,1-.961.253H53.677a1.521,1.521,0,0,1-1.011-.253,1.792,1.792,0,0,1-.48-1.011l-3.918-16.3L44.375,21.814a1.973,1.973,0,0,1-.48,1.011,1.567,1.567,0,0,1-1.011.253Zm32.481.682a16.727,16.727,0,0,1-3.893-.455,11.5,11.5,0,0,1-2.907-1.011,1.821,1.821,0,0,1-.784-.708,1.784,1.784,0,0,1-.152-.708V19.59c0-.531.2-.784.581-.784a1.431,1.431,0,0,1,.455.076c.152.051.379.152.632.253a13.749,13.749,0,0,0,2.78.885,15.18,15.18,0,0,0,3.008.3,6.82,6.82,0,0,0,3.69-.834,2.722,2.722,0,0,0,1.314-2.4,2.462,2.462,0,0,0-.682-1.769A6.342,6.342,0,0,0,74.682,14l-3.665-1.137a7.71,7.71,0,0,1-4.044-2.578,6.022,6.022,0,0,1-1.264-3.665,5.626,5.626,0,0,1,.682-2.806,6.5,6.5,0,0,1,1.82-2.073A8.023,8.023,0,0,1,70.84.43,11.017,11.017,0,0,1,74.025,0a12.689,12.689,0,0,1,1.694.1c.581.076,1.112.177,1.643.278.506.126.986.253,1.441.4a5.517,5.517,0,0,1,1.062.455,2.186,2.186,0,0,1,.758.632,1.362,1.362,0,0,1,.227.834V3.893c0,.531-.2.809-.581.809a2.629,2.629,0,0,1-.961-.3,11.564,11.564,0,0,0-4.853-.986,6.524,6.524,0,0,0-3.362.708A2.441,2.441,0,0,0,69.9,6.37a2.387,2.387,0,0,0,.758,1.795,7.55,7.55,0,0,0,2.78,1.39l3.589,1.137a7.688,7.688,0,0,1,3.918,2.427,5.72,5.72,0,0,1,1.163,3.539,6.5,6.5,0,0,1-.657,2.932,6.8,6.8,0,0,1-1.845,2.224,8.148,8.148,0,0,1-2.806,1.416,12.02,12.02,0,0,1-3.615.531Z" transform="translate(-9.29)" fill="#252f3e"/>
    <path id="Path_16352" data-name="Path 16352" d="M68.678,124.25c-8.316,6.142-20.4,9.4-30.787,9.4A55.7,55.7,0,0,1,.3,119.321c-.784-.708-.076-1.668.859-1.112a75.8,75.8,0,0,0,37.612,9.984,75.056,75.056,0,0,0,28.689-5.864C68.855,121.7,70.043,123.239,68.678,124.25Z" transform="translate(0 -88.205)" fill="#f90"/>
    <path id="Path_16353" data-name="Path 16353" d="M254.7,115.86c-1.062-1.365-7.027-.657-9.732-.329-.809.1-.935-.607-.2-1.137,4.752-3.337,12.563-2.376,13.473-1.264.91,1.137-.253,8.948-4.7,12.689-.682.581-1.34.278-1.036-.48C253.516,122.837,255.766,117.2,254.7,115.86Z" transform="translate(-182.563 -83.759)" fill="#f90"/>
  </g>
</svg>
