<svg xmlns="http://www.w3.org/2000/svg" width="76" height="75.999" viewBox="0 0 76 75.999">
  <g id="ansible" transform="translate(-0.407 -0.302)">
    <path id="Path_16405" data-name="Path 16405" d="M76.746,38.3a38,38,0,1,1-38-38,38,38,0,0,1,38,38" transform="translate(-0.339)" fill="#1a1918"/>
    <path id="Path_16406" data-name="Path 16406" d="M85.654,59.028,95.487,83.3,80.634,71.6l5.02-12.57ZM103.123,88.89,88,52.488a2.442,2.442,0,0,0-2.343-1.606,2.523,2.523,0,0,0-2.408,1.606l-16.6,39.928h5.679L78.9,75.953,98.508,91.8a3.186,3.186,0,0,0,2.1.926,2.712,2.712,0,0,0,2.777-2.714,3.6,3.6,0,0,0-.259-1.121Z" transform="translate(-46.607 -35.513)" fill="#fff"/>
  </g>
</svg>
