<svg id="Group_1157" data-name="Group 1157" xmlns="http://www.w3.org/2000/svg" width="30.776" height="25" viewBox="0 0 30.776 25">
  <g id="Group_898" data-name="Group 898" transform="translate(12.09 6.887)">
    <path id="Path_8358" data-name="Path 8358" d="M5259.779-7355.671a7.08,7.08,0,0,1,2.569-5.012,8.556,8.556,0,0,1,5.529-1.978,8.56,8.56,0,0,1,5.528,1.978,7.09,7.09,0,0,1,2.57,5.01,6.957,6.957,0,0,1-2.164,5.38,8.472,8.472,0,0,1-5.934,2.344,8.477,8.477,0,0,1-5.937-2.344A6.949,6.949,0,0,1,5259.779-7355.671Z" transform="translate(-5259.769 7362.661)" fill="#fff"/>
  </g>
  <g id="Group_899" data-name="Group 899" transform="translate(16.038 10.47)">
    <path id="Path_8359" data-name="Path 8359" d="M2698.824-3774.239a3.632,3.632,0,0,1,1.319-2.572,4.39,4.39,0,0,1,2.837-1.015,4.392,4.392,0,0,1,2.836,1.015,3.638,3.638,0,0,1,1.318,2.571,3.571,3.571,0,0,1-1.11,2.761,4.347,4.347,0,0,1-3.044,1.2,4.351,4.351,0,0,1-3.047-1.2A3.565,3.565,0,0,1,2698.824-3774.239Z" transform="translate(-2698.819 3777.826)" fill="#265787"/>
  </g>
  <g id="Group_900" data-name="Group 900" transform="translate(0)">
    <path id="Path_8360" data-name="Path 8360" d="M2380.267-3975.809a7.586,7.586,0,0,0,.328,1.792,9.449,9.449,0,0,0,2.042,3.536,10.547,10.547,0,0,0,3.574,2.566,11.482,11.482,0,0,0,4.693.975,11.487,11.487,0,0,0,4.69-.991,10.62,10.62,0,0,0,3.572-2.576,9.544,9.544,0,0,0,2.042-3.543,8.994,8.994,0,0,0,.384-1.977,9.03,9.03,0,0,0-.064-1.964,9.129,9.129,0,0,0-1.3-3.563,9.944,9.944,0,0,0-2.375-2.619h0l-9.614-7.382c-.009-.007-.016-.013-.025-.02a2.137,2.137,0,0,0-2.385,0,1.083,1.083,0,0,0-.157,1.814l0,0,4.01,3.261-12.221.013h-.016a2.228,2.228,0,0,0-2.173,1.5c-.2.853.488,1.561,1.539,1.565l0,0,6.195-.012-11.054,8.485-.042.031a2.172,2.172,0,0,0-.723,2.967,2.231,2.231,0,0,0,3.137.005l6.033-4.938A9.478,9.478,0,0,0,2380.267-3975.809Zm15.5,2.232a6.793,6.793,0,0,1-4.867,1.989,6.761,6.761,0,0,1-4.869-1.973,5.784,5.784,0,0,1-1.329-2.08,5.4,5.4,0,0,1-.305-2.324,5.484,5.484,0,0,1,.666-2.188,6.039,6.039,0,0,1,1.479-1.758,6.894,6.894,0,0,1,4.356-1.52,6.878,6.878,0,0,1,4.357,1.507,6,6,0,0,1,1.477,1.753,5.485,5.485,0,0,1,.669,2.187,5.415,5.415,0,0,1-.306,2.323A5.816,5.816,0,0,1,2395.77-3973.577Z" transform="translate(-2370.84 3991.939)" fill="#ea7600"/>
  </g>
</svg>
