<svg xmlns="http://www.w3.org/2000/svg" xmlns:xlink="http://www.w3.org/1999/xlink" width="119.918" height="120" viewBox="0 0 119.918 120"><defs><style>.a{fill:#b4cde1;}.b{fill:url(#a);}.c{fill:#0668cb;}.d{fill:#54a5ff;}.e{fill:#f0f7fc;}.f{fill:#d7e9f7;}.g{fill:url(#b);}.h{fill:url(#c);}.i{fill:url(#d);}.j{fill:url(#e);}</style><linearGradient id="a" x1="0.5" y1="0.999" x2="0.5" gradientUnits="objectBoundingBox"><stop offset="0" stop-color="#d3e6f5"/><stop offset="1" stop-color="#f0f7fc"/></linearGradient><linearGradient id="b" y1="0.5" x2="1" y2="0.5" gradientUnits="objectBoundingBox"><stop offset="0" stop-color="#071539"/><stop offset="0.353" stop-color="#0a3770"/><stop offset="1" stop-color="#00599a"/></linearGradient><linearGradient id="c" x1="1.085" y1="0.418" x2="0.25" y2="0.417" gradientUnits="objectBoundingBox"><stop offset="0" stop-color="#d27326"/><stop offset="0.272" stop-color="#f98910"/><stop offset="1" stop-color="#fd0"/></linearGradient><linearGradient id="d" x1="1.162" y1="0.42" x2="0.218" y2="0.412" xlink:href="#c"/><linearGradient id="e" x1="1" y1="0.259" x2="0.279" y2="0.112" xlink:href="#c"/></defs><g transform="translate(-7.006 -7)"><path class="a" d="M102.891,68.18H21.376C7.111,68.18,2.6,49,11.786,49H83.711a4.8,4.8,0,0,1,4.795,4.795A14.385,14.385,0,0,0,102.891,68.18Z" transform="translate(0 58.695)"/><path class="a" d="M100.515,11.795V26.18H19V11.795A4.8,4.8,0,0,1,23.795,7H95.72A4.8,4.8,0,0,1,100.515,11.795Z" transform="translate(16.761)"/><path class="b" d="M62.155,60.552v19.18a9.59,9.59,0,0,0,9.59,9.59h28.77v11.484a14.745,14.745,0,0,1-12.491,14.888A14.385,14.385,0,0,1,71.745,101.31a4.8,4.8,0,0,0-4.795-4.795H19V15h81.515V50.962H71.745A9.59,9.59,0,0,0,62.155,60.552Z" transform="translate(16.761 11.18)"/><path class="c" d="M27.795,12.4A2.4,2.4,0,1,1,25.4,10,2.4,2.4,0,0,1,27.795,12.4Z" transform="translate(22.351 4.192)"/><path class="d" d="M31.795,12.4A2.4,2.4,0,1,1,29.4,10,2.4,2.4,0,0,1,31.795,12.4Z" transform="translate(27.941 4.192)"/><path class="e" d="M35.795,12.4A2.4,2.4,0,1,1,33.4,10,2.4,2.4,0,0,1,35.795,12.4Z" transform="translate(33.531 4.192)"/><rect class="f" width="26.372" height="21.577" rx="1.91" transform="translate(45.351 35.77)"/><path class="a" d="M63.54,24.25H39.565a2.685,2.685,0,0,1,0-5.37H63.54a2.685,2.685,0,1,1,0,5.37Z" transform="translate(41.748 16.602)"/><path class="a" d="M63.54,29.25H39.565a2.685,2.685,0,0,1,0-5.37H63.54a2.685,2.685,0,0,1,0,5.37Z" transform="translate(41.748 23.59)"/><path class="e" d="M82.217,52.477A9.59,9.59,0,0,1,74.354,56.6H45.584a9.59,9.59,0,0,1-7.864-4.124L51.074,39.123a2.4,2.4,0,0,1,3.4,0l8.583,8.583a2.4,2.4,0,0,0,3.4,0l3.788-3.788a2.4,2.4,0,0,1,3.4,0Z" transform="translate(42.922 43.901)"/><path class="g" d="M84.984,39.59c0,20.475.551,21.362-1.726,24.646L74.7,55.677a2.4,2.4,0,0,0-3.4,0l-3.788,3.788a2.4,2.4,0,0,1-3.4,0l-8.583-8.583a2.4,2.4,0,0,0-3.4,0L38.76,64.236c-2.278-3.309-1.726-4.2-1.726-24.646A9.59,9.59,0,0,1,46.624,30h28.77A9.59,9.59,0,0,1,84.984,39.59Z" transform="translate(41.882 32.142)"/><circle class="e" cx="5.994" cy="5.994" r="5.994" transform="translate(105.288 69.335)"/><path class="e" d="M46.975,36.795H25.4A2.4,2.4,0,1,1,25.4,32H46.975a2.4,2.4,0,0,1,0,4.795Z" transform="translate(22.351 34.937)"/><path class="e" d="M46.975,41.795H25.4A2.4,2.4,0,0,1,25.4,37H46.975a2.4,2.4,0,0,1,0,4.795Z" transform="translate(22.351 41.925)"/><path class="e" d="M46.975,46.795H25.4A2.4,2.4,0,0,1,25.4,42H46.975a2.4,2.4,0,0,1,0,4.795Z" transform="translate(22.351 48.912)"/><g transform="translate(9.388 11.795)"><path class="h" d="M22.385,15V75.8A9.59,9.59,0,0,0,8,75.8V15Z" transform="translate(-8 -0.615)"/><path class="i" d="M12.795,9H17.59a4.8,4.8,0,0,1,4.795,4.795v9.59H8v-9.59A4.8,4.8,0,0,1,12.795,9Z" transform="translate(-8 -9)"/><path class="j" d="M22.385,42.253,15.192,53.377,8,42.253a9.59,9.59,0,0,1,14.385,0Z" transform="translate(-8 32.933)"/></g></g></svg>