<svg xmlns="http://www.w3.org/2000/svg" width="25" height="19.502" viewBox="0 0 25 19.502"><defs><style>.a{fill:#d50000;}</style></defs><path class="a" d="M0,68v3.9c0,2.153,5.6,3.9,12.5,3.9v-3.9C5.6,71.905,0,70.157,0,68Zm22.275,2.427L12.5,68v3.9l9.775,2.427c1.7-.669,2.725-1.509,2.725-2.427V68C25,68.922,23.979,69.767,22.275,70.431ZM12.5,64.108V68C5.6,68,0,66.256,0,64.108V60.2c0-2.148,5.6-3.9,12.5-3.9S25,58.048,25,60.2v3.906c0,.918-1.021,1.758-2.725,2.427L12.5,64.108Z" transform="translate(0 -56.3)"/></svg>