<svg xmlns="http://www.w3.org/2000/svg" width="76" height="76" viewBox="0 0 76 76"><defs><style>.a{fill:#20c4cb;}.b{fill:#fff;}</style></defs><g transform="translate(-0.697 -1.697)"><circle class="a" cx="38" cy="38" r="38" transform="translate(0.697 1.697)"/><path class="b" d="M51.01,53.405a7.6,7.6,0,0,1-4.633,2.507,1.8,1.8,0,0,1-1.9-1.747,3.288,3.288,0,0,1,.076-1.215A32.575,32.575,0,0,1,45.769,48.7c0-.152-.076-.228-.152-.228-.76,0-3.342,2.658-3.722,4.405l-.3,1.443a2.057,2.057,0,0,1-1.823,1.6.578.578,0,0,1-.608-.532v-.456l.152-.76a7.841,7.841,0,0,1-3.57,1.747,1.541,1.541,0,0,1-1.671-1.291,2.9,2.9,0,0,1-2.355,1.291,3.118,3.118,0,0,1-2.734-1.9,13.9,13.9,0,0,1-2.734,2.355,10.19,10.19,0,0,1-5.393,1.823,6.584,6.584,0,0,1-4.405-1.823,7.875,7.875,0,0,1-2.279-4.785c-.684-5.317,2.582-12.381,7.671-15.419A7.219,7.219,0,0,1,25.489,35.1a4.4,4.4,0,0,1,4.481,3.8,4.119,4.119,0,0,1-2.582,4.481c-1.063.532-1.6.532-1.747.228A.5.5,0,0,1,25.793,43c1.975-1.6,1.975-2.962,1.747-4.861a1.987,1.987,0,0,0-1.823-1.975c-3.95,0-9.418,8.583-8.659,14.811.3,2.431,1.823,5.241,4.861,5.241a7.184,7.184,0,0,0,3.038-.76,9.553,9.553,0,0,0,3.57-2.658c-.228-2.886,2.279-6.532,5.925-6.532,1.6,0,2.886.608,3.038,1.9a1.584,1.584,0,0,1-1.671,1.9c-.456,0-1.139-.152-1.215-.532-.076-.456.987-.228.836-1.215-.076-.608-.76-.836-1.367-.836-2.279,0-3.57,3.19-3.342,5.165.076.911.608,1.823,1.367,1.823.684,0,1.671-.987,1.975-2.355a2.057,2.057,0,0,1,1.823-1.6c.38,0,.608.152.608.532v.456c-.076.38-.38,1.823-.38,2.051a.593.593,0,0,0,.608.608,7.347,7.347,0,0,0,2.81-1.747c.38-1.9.836-4.254.836-4.405a1.723,1.723,0,0,1,1.975-1.6.578.578,0,0,1,.608.532V47.4l-.38,2.051c1.367-1.823,3.494-3.19,4.785-3.19a1,1,0,0,1,1.063.836,3.921,3.921,0,0,1-.228,1.443,32.154,32.154,0,0,0-1.291,4.709.646.646,0,0,0,.684.836,5.435,5.435,0,0,0,3.418-2.355v-.76a9.867,9.867,0,0,1,.38-3.266,2.465,2.465,0,0,1,1.975-1.6.559.559,0,0,1,.608.608.963.963,0,0,1-.076.456,13.385,13.385,0,0,0-.76,4.026,12.579,12.579,0,0,0,.3,2.507.2.2,0,0,0,.228.228,10.015,10.015,0,0,0,2.81-3.266,3.5,3.5,0,0,1-1.519-3.114c0-2.279,1.367-3.494,2.734-3.494a2.008,2.008,0,0,1,1.975,2.279,7.251,7.251,0,0,1-.911,3.114h.3a2.318,2.318,0,0,0,1.823-.836,2.014,2.014,0,0,1,.456-.38,5.842,5.842,0,0,1,4.481-2.2c1.6,0,2.886.608,3.038,1.9a1.681,1.681,0,0,1-1.671,1.975c-.456,0-1.215-.152-1.215-.532-.076-.38.987-.228.911-1.215-.076-.608-.76-.911-1.367-.911-2.127,0-3.57,2.81-3.342,5.165.076.911.532,1.823,1.367,1.823.684,0,1.671-.987,2.051-2.355a2.158,2.158,0,0,1,1.823-1.6.538.538,0,0,1,.608.532,17.035,17.035,0,0,1-.38,2.127,6.543,6.543,0,0,0-.152,1.6,3.418,3.418,0,0,0,.911,1.9.694.694,0,0,1,.228.38.438.438,0,0,1-.456.456.457.457,0,0,1-.3-.076,3.714,3.714,0,0,1-2.507-2.81,2.817,2.817,0,0,1-2.355,1.215A3.385,3.385,0,0,1,59.9,52.646a5.1,5.1,0,0,1,.228-2.127,3.476,3.476,0,0,1-1.823.608H57.77a15.205,15.205,0,0,1-4.1,4.178,3.122,3.122,0,0,1-1.215.38.825.825,0,0,1-.684-.3,2.658,2.658,0,0,1-.76-1.975Zm5.165-6.836A3.892,3.892,0,0,0,57.162,49a5.221,5.221,0,0,0,.38-1.823c0-1.139-.456-1.671-.76-1.671C56.327,45.506,56.175,46.114,56.175,46.569Z" transform="translate(-2.666 -7.48)"/></g></svg>