<svg xmlns="http://www.w3.org/2000/svg" width="20.821" height="25" viewBox="0 0 20.821 25"><defs><style>.a{fill:#ee4323;}</style></defs><path class="a" d="M94.8,25.194a4.791,4.791,0,0,1-2.909-3.982A5.582,5.582,0,0,1,94.5,16.79a2.009,2.009,0,0,0,.161,1.848,1.756,1.756,0,0,0,1.768.67c1.55-.341,1.619-2.04.7-3.033s-1.786-2.1-1.439-3.516A3.689,3.689,0,0,1,96.857,10.9c-.428,1.123.788,2.233,1.588,2.778a42.081,42.081,0,0,1,4.186,2.8,5.462,5.462,0,0,1,2.133,4.62,5.246,5.246,0,0,1-3.6,4.1c3.777-.831,7.672-3.765,7.752-7.945.068-3.442-2.295-6.09-5.222-7.61l-.155-.081a1.286,1.286,0,0,1,.105.509,2.08,2.08,0,0,0,.05-.335,1.483,1.483,0,0,1-.056.409l.006-.068a1.651,1.651,0,0,1-.217.515l.043-.043a1.837,1.837,0,0,1-2.946.174c-1.253-1.613.025-3.349.2-5.061A6.387,6.387,0,0,0,97.949.2c.918,1.482-.291,3.442-1.259,4.54-.936,1.061-2.078,1.954-3.113,2.915A25.963,25.963,0,0,0,90.481,11c-1.811,2.425-2.927,5.495-2.109,8.534A8.262,8.262,0,0,0,94.8,25.194Z" transform="translate(-88.1 -0.2)"/></svg>