<svg xmlns="http://www.w3.org/2000/svg" xmlns:xlink="http://www.w3.org/1999/xlink" width="76.358" height="76.358" viewBox="0 0 76.358 76.358"><defs><style>.a{fill:none;}.b{clip-path:url(#a);}.c{fill:#03c197;}.d{clip-path:url(#b);}.e{fill:#fff;}</style><clipPath id="a"><path class="a" d="M0,38.179A38.179,38.179,0,1,1,38.179,76.358,38.179,38.179,0,0,1,0,38.179Z"/></clipPath><clipPath id="b"><path class="a" d="M40.664,44.652A2.659,2.659,0,0,1,38.572,42V39.549l.483-2.708A22.265,22.265,0,0,1,.038,20.994,22.282,22.282,0,0,1,41.06,10.284a2.532,2.532,0,0,1-4.349,2.6c-3.046-4.292-8.363-7.842-14.425-7.842A17.3,17.3,0,0,0,6.417,28.953,16.26,16.26,0,0,0,19.074,39.1c7,1.1,13.4-1.392,17.088-6.806l-2.3.324H29.882a2.658,2.658,0,0,1-2.654-2.1,2.574,2.574,0,0,1,2.527-3.053H43.714V42.121A2.573,2.573,0,0,1,41.142,44.7,2.7,2.7,0,0,1,40.664,44.652Z"/></clipPath></defs><g transform="translate(85 85.358)"><g transform="translate(-85 -85.358)"><g class="b" transform="translate(0 0)"><rect class="c" width="80.85" height="80.85" transform="translate(-2.246 -2.246)"/></g></g><g transform="translate(-69.318 -69.296)"><g class="d" transform="translate(0 0)"><rect class="e" width="48.461" height="49.443" transform="translate(-2.374 -2.374)"/></g></g></g></svg>