<svg xmlns="http://www.w3.org/2000/svg" width="50.674" height="76" viewBox="0 0 50.674 76"><defs><style>.a{fill:#fff;}</style></defs><g transform="translate(-6 -4.981)"><path d="M6,5V30.307A50.666,50.666,0,0,0,56.674,80.981L56.664,5C52.235,4.975,10.43,4.975,6,5Z" transform="translate(0)"/><path class="a" d="M42.229,14.11a10.863,10.863,0,0,0-10.843,9.87v0a10.883,10.883,0,1,0-5.015,10.131l5.015,5.075,5.085-5.015A10.863,10.863,0,1,0,42.329,14.11ZM20.453,32.165a7.242,7.242,0,1,1,2.177-14.153,3.621,3.621,0,1,0,4.765,4.795,7.252,7.252,0,0,1-6.951,9.369Zm21.726.06a7.242,7.242,0,0,1-6.891-9.4,3.621,3.621,0,1,0,4.8-4.815A7.242,7.242,0,1,1,42.2,32.175Z" transform="translate(0.011 0.028)"/></g></svg>