<svg xmlns="http://www.w3.org/2000/svg" xmlns:xlink="http://www.w3.org/1999/xlink" width="1357.946" height="340" viewBox="0 0 1357.946 340"><defs><style>.a{fill:#f1f4f5;}.b{fill:url(#a);}.c,.m,.o,.q{fill:#fff;}.d{fill:url(#b);}.e{fill:url(#c);}.f,.g,.h,.n,.p,.r,.w{fill:none;}.f,.o,.p{stroke:#fba60a;}.f,.g,.h,.n,.p,.r{stroke-linecap:round;}.f,.g,.h{stroke-width:3px;stroke-dasharray:10;}.g,.q,.r{stroke:#52b9d8;}.h,.m,.n{stroke:#005696;}.i,.j{fill:url(#i);}.j{fill-rule:evenodd;}.k{fill:url(#l);}.l{fill:#46484b;font-size:16px;font-family:Inter-SemiBold, Inter;font-weight:600;}.m,.n,.o,.p,.q,.r{stroke-width:2px;}.n,.p,.r{stroke-linejoin:round;}.s{fill:url(#q);}.t{fill:url(#t);}.u{fill:url(#x);}.v{stroke:none;}</style><linearGradient id="a" x1="0.5" x2="0.5" y2="1.26" gradientUnits="objectBoundingBox"><stop offset="0" stop-color="#7dd8f3"/><stop offset="1" stop-color="#45b0d0"/></linearGradient><linearGradient id="b" x1="0.5" y1="-0.273" x2="0.5" y2="1.076" gradientUnits="objectBoundingBox"><stop offset="0" stop-color="#d27326"/><stop offset="0.272" stop-color="#f98910"/><stop offset="1" stop-color="#fd0"/></linearGradient><linearGradient id="c" x1="0.5" y1="-0.188" x2="0.5" y2="1" gradientUnits="objectBoundingBox"><stop offset="0" stop-color="#071539"/><stop offset="1" stop-color="#00599a"/></linearGradient><linearGradient id="i" x1="0.5" x2="0.5" y2="1" gradientUnits="objectBoundingBox"><stop offset="0" stop-color="#071539"/><stop offset="0.353" stop-color="#0a3770"/><stop offset="1" stop-color="#00599a"/></linearGradient><linearGradient id="l" y2="1" xlink:href="#a"/><linearGradient id="q" x1="1.373" y1="1.526" x2="0.315" y2="0.171" gradientUnits="objectBoundingBox"><stop offset="0" stop-color="#d27326"/><stop offset="0.283" stop-color="#f98910"/><stop offset="1" stop-color="#fd0"/></linearGradient><linearGradient id="t" y1="0" y2="1" xlink:href="#b"/><linearGradient id="x" x1="1.407" y1="1.872" x2="0.064" y2="-0.375" xlink:href="#b"/></defs><g transform="translate(-65.054 -1207)"><g transform="translate(59 1204)"><g transform="translate(6.054 112.753)"><path class="a" d="M61.3,0c9.076,0,22.722,1.87,31.891,7.982,14.425,9.615,18.978,18.874,22.639,25.293s10.749,13.171,24.15,17.476c4.954,1.591,14.054,1.7,21.045,0a31.657,31.657,0,0,0,10.8-4.932L192.313,24V60.562L197.4,102.5,171.819,75.944s-3.694-1.716-8.784-3.479a64.2,64.2,0,0,0-10.811-2.82,34.89,34.89,0,0,0-16.308,1.775c-8.619,2.791-15.4,11.314-19.185,16.065s-7.105,16.361-20.964,25.137S71.7,122.591,61.3,122.591A61.3,61.3,0,0,1,61.3,0Z" transform="translate(0 0)"/><g transform="translate(12.902 13.911)"><ellipse class="b" cx="48" cy="47.5" rx="48" ry="47.5" transform="translate(0.044 0.336)"/><path class="c" d="M33.675,0A33.675,33.675,0,1,1,0,33.675,33.675,33.675,0,0,1,33.675,0Z" transform="translate(14.34 14.088)"/></g></g><g transform="translate(182.373 112.753)"><path class="a" d="M61.3,0c9.076,0,22.722,1.87,31.891,7.982,14.425,9.615,18.978,18.874,22.639,25.293s10.749,13.171,24.15,17.476c4.954,1.591,14.054,1.7,21.045,0a31.657,31.657,0,0,0,10.8-4.932L192.313,24V60.562L197.4,102.5,171.819,75.944s-3.694-1.716-8.784-3.479a64.2,64.2,0,0,0-10.811-2.82,34.89,34.89,0,0,0-16.308,1.775c-8.619,2.791-15.4,11.314-19.185,16.065s-7.105,16.361-20.964,25.137S71.7,122.591,61.3,122.591A61.3,61.3,0,0,1,61.3,0Z" transform="translate(0 0)"/><g transform="translate(13.223 13.911)"><circle class="d" cx="47.5" cy="47.5" r="47.5" transform="translate(0.404 0.336)"/><path class="c" d="M33.675,0A33.675,33.675,0,1,1,0,33.675,33.675,33.675,0,0,1,33.675,0Z" transform="translate(14.02 14.088)"/></g></g><g transform="translate(358.692 112.753)"><path class="a" d="M61.3,0c9.076,0,22.722,1.87,31.891,7.982,14.425,9.615,18.978,18.874,22.639,25.293s10.749,13.171,24.15,17.476c4.954,1.591,14.054,1.7,21.045,0a31.657,31.657,0,0,0,10.8-4.932L192.313,24V60.562L197.4,102.5,171.819,75.944s-3.694-1.716-8.784-3.479a64.2,64.2,0,0,0-10.811-2.82,34.89,34.89,0,0,0-16.308,1.775c-8.619,2.791-15.4,11.314-19.185,16.065s-7.105,16.361-20.964,25.137S71.7,122.591,61.3,122.591A61.3,61.3,0,0,1,61.3,0Z" transform="translate(0 0)"/><g transform="translate(12.681 13.911)"><ellipse class="e" cx="48.5" cy="47.5" rx="48.5" ry="47.5" transform="translate(-0.373 0.336)"/><path class="c" d="M33.675,0A33.675,33.675,0,1,1,0,33.675,33.675,33.675,0,0,1,33.675,0Z" transform="translate(14.561 14.088)"/></g></g><g transform="translate(535.011 112.753)"><path class="a" d="M61.3,0c9.076,0,22.722,1.87,31.891,7.982,14.425,9.615,18.978,18.874,22.639,25.293s10.749,13.171,24.15,17.476c4.954,1.591,14.054,1.7,21.045,0a31.657,31.657,0,0,0,10.8-4.932L192.313,24V60.562L197.4,102.5,171.819,75.944s-3.694-1.716-8.784-3.479a64.2,64.2,0,0,0-10.811-2.82,34.89,34.89,0,0,0-16.308,1.775c-8.619,2.791-15.4,11.314-19.185,16.065s-7.105,16.361-20.964,25.137S71.7,122.591,61.3,122.591A61.3,61.3,0,0,1,61.3,0Z" transform="translate(0 0)"/><g transform="translate(13.863 13.911)"><ellipse class="b" cx="48" cy="47.5" rx="48" ry="47.5" transform="translate(0.126 0.336)"/><path class="c" d="M33.675,0A33.675,33.675,0,1,1,0,33.675,33.675,33.675,0,0,1,33.675,0Z" transform="translate(14.136 14.088)"/></g></g><g transform="translate(711.331 112.753)"><path class="a" d="M61.3,0c9.076,0,22.722,1.87,31.891,7.982,14.425,9.615,18.978,18.874,22.639,25.293s10.749,13.171,24.15,17.476c4.954,1.591,14.054,1.7,21.045,0a31.657,31.657,0,0,0,10.8-4.932L192.313,24V60.562L197.4,102.5,171.819,75.944s-3.694-1.716-8.784-3.479a64.2,64.2,0,0,0-10.811-2.82,34.89,34.89,0,0,0-16.308,1.775c-8.619,2.791-15.4,11.314-19.185,16.065s-7.105,16.361-20.964,25.137S71.7,122.591,61.3,122.591A61.3,61.3,0,0,1,61.3,0Z" transform="translate(0 0)"/><g transform="translate(13.321 13.911)"><ellipse class="d" cx="48" cy="47.5" rx="48" ry="47.5" transform="translate(0.348 0.336)"/><path class="c" d="M33.675,0A33.675,33.675,0,1,1,0,33.675,33.675,33.675,0,0,1,33.675,0Z" transform="translate(14.678 14.088)"/></g></g><g transform="translate(887.65 112.753)"><path class="a" d="M61.3,0c9.076,0,22.722,1.87,31.891,7.982,14.425,9.615,18.978,18.874,22.639,25.293s10.749,13.171,24.15,17.476c4.954,1.591,14.054,1.7,21.045,0a31.657,31.657,0,0,0,10.8-4.932L192.313,24V60.562L197.4,102.5,171.819,75.944s-3.694-1.716-8.784-3.479a64.2,64.2,0,0,0-10.811-2.82,34.89,34.89,0,0,0-16.308,1.775c-8.619,2.791-15.4,11.314-19.185,16.065s-7.105,16.361-20.964,25.137S71.7,122.591,61.3,122.591A61.3,61.3,0,0,1,61.3,0Z" transform="translate(0 0)"/><g transform="translate(12.78 13.911)"><ellipse class="e" cx="48.5" cy="47.5" rx="48.5" ry="47.5" transform="translate(-0.43 0.336)"/><path class="c" d="M33.675,0A33.675,33.675,0,1,1,0,33.675,33.675,33.675,0,0,1,33.675,0Z" transform="translate(14.463 14.088)"/></g></g><line class="f" y1="65.079" transform="translate(241.02 45.782)"/><line class="f" y1="65.079" transform="translate(1300.448 45.782)"/><line class="g" y1="65.079" transform="translate(595.172 45.782)"/><line class="h" y1="65.079" transform="translate(948.567 45.782)"/><g transform="translate(1065.482 112.754)"><path class="a" d="M61.3,0c9.076,0,22.722,1.87,31.891,7.982,14.425,9.615,18.978,18.874,22.639,25.293s10.749,13.171,24.15,17.476c4.954,1.591,14.054,1.7,21.045,0a31.657,31.657,0,0,0,10.8-4.932L192.313,24V60.562L197.4,102.5,171.819,75.944s-3.694-1.716-8.784-3.479a64.2,64.2,0,0,0-10.811-2.82,34.89,34.89,0,0,0-16.308,1.775c-8.619,2.791-15.4,11.314-19.185,16.065s-7.105,16.361-20.964,25.137S71.7,122.591,61.3,122.591A61.3,61.3,0,0,1,61.3,0Z" transform="translate(0 0)"/><g transform="translate(12.448 13.909)"><ellipse class="b" cx="48" cy="47.5" rx="48" ry="47.5" transform="translate(0.069 0.338)"/><path class="c" d="M33.675,0A33.675,33.675,0,1,1,0,33.675,33.675,33.675,0,0,1,33.675,0Z" transform="translate(14.794 14.09)"/></g></g><g transform="translate(1241.409 112.754)"><path class="a" d="M61.3,0A61.3,61.3,0,1,1,0,61.3,61.3,61.3,0,0,1,61.3,0Z" transform="translate(0 0)"/><g transform="translate(13.254 13.254)"><circle class="d" cx="48.042" cy="48.042" r="48.042"/><path class="c" d="M33.667,0A33.667,33.667,0,1,1,0,33.667,33.667,33.667,0,0,1,33.667,0Z" transform="translate(14.375 14.375)"/></g></g><line class="g" y1="65.079" transform="translate(66.971 237.993)"/><line class="g" y1="65.079" transform="translate(1126.399 237.993)"/><line class="h" y1="65.079" transform="translate(421.88 237.993)"/><line class="f" y1="65.079" transform="translate(772.248 237.993)"/><g transform="translate(403.34 159.151)"><path class="i" d="M31.411,10H10.128A2.129,2.129,0,0,0,8,12.128v14.9a2.129,2.129,0,0,0,2.128,2.128H31.411a2.129,2.129,0,0,0,2.128-2.128v-14.9A2.129,2.129,0,0,0,31.411,10ZM11.192,20.642a1.064,1.064,0,1,1,1.064-1.064A1.063,1.063,0,0,1,11.192,20.642Zm19.155,5.321H14.385V13.192H30.347Z" transform="translate(0.513 0.642)"/><path class="i" d="M3.192,3.192h25.54V8.513h3.192V2.047A2.047,2.047,0,0,0,29.877,0H2.047A2.047,2.047,0,0,0,0,2.047V23.492A2.047,2.047,0,0,0,2.047,25.54H6.385V18.091H3.192Z"/></g><g transform="translate(932.567 157.401)"><g transform="translate(0)"><path class="j" d="M15.068,9.151,16.39,7.829a6.9,6.9,0,1,0,3.154,3.153L18.222,12.3a5.157,5.157,0,1,1-3.153-3.153m5.48,13.83a11.568,11.568,0,0,0,1.761-1.761L30.6,29.51,28.837,31.27ZM13.35,4.5a9.481,9.481,0,0,1,4.972,1.4l1.424-1.423A11.492,11.492,0,1,0,18.882,24.1l9.956,9.955,4.543-4.543-9.955-9.956A11.5,11.5,0,0,0,22.9,7.627L21.476,9.051A9.526,9.526,0,1,1,13.35,4.5Zm7.981.317L14.1,12.044a2.112,2.112,0,1,0,1.228,1.227l7.229-7.229,1.84-.127,2.974-2.974-2.649-.293L24.431,0,21.457,2.974Z" transform="translate(-1.857)"/></g></g><g transform="translate(1113.984 159.519)"><path class="k" d="M27.669,11.77a2.545,2.545,0,1,1-3.6,0A2.591,2.591,0,0,1,27.669,11.77Zm1.9,8.479a7.612,7.612,0,1,0-9.067-1.28,7.8,7.8,0,0,0,1.765,1.315l.761-1.834a2.489,2.489,0,0,1,.415-.727A4.827,4.827,0,0,1,22.513,17a4.772,4.772,0,1,1,6.748,0,5.421,5.421,0,0,1-.865.692,2.971,2.971,0,0,1,.45.8Zm-2.769-1a1.208,1.208,0,0,0-.208-.311.961.961,0,0,0-1.557.311l-3.98,9.828a1.023,1.023,0,0,0,.208,1.038.945.945,0,0,0,.658.277h2.769v3.288a1.146,1.146,0,0,0,.346.831,1.2,1.2,0,0,0,2.042-.865V30.354H29.85a.946.946,0,0,0,.865-1.315ZM34.9,4.538a12.786,12.786,0,1,0-18.065,18.1,12.087,12.087,0,0,0,3.5,2.457l1.073-2.63A9.95,9.95,0,1,1,32.93,20.63a10.188,10.188,0,0,1-2.457,1.8l1.073,2.63a12.184,12.184,0,0,0,3.391-2.422A12.856,12.856,0,0,0,34.9,4.538Z" transform="translate(-13.1 -0.8)"/></g><text class="l" transform="translate(131 19)"><tspan x="0" y="0">Search Engine Optimization</tspan></text><text class="l" transform="translate(18 339)"><tspan x="0" y="0">Social Media</tspan></text><text class="l" transform="translate(1076 339)"><tspan x="0" y="0">Pay Per Click</tspan></text><text class="l" transform="translate(688 339)"><tspan x="0" y="0">Return On Investment</tspan></text><text class="l" transform="translate(361 339)"><tspan x="0" y="0">Mobile &amp; Tablet</tspan></text><text class="l" transform="translate(573 19)"><tspan x="0" y="0">Video</tspan></text><text class="l" transform="translate(851 19)"><tspan x="0" y="0">Search Engine Marketing</tspan></text><text class="l" transform="translate(1270 19)"><tspan x="0" y="0">Content</tspan></text><g transform="translate(411.01 293.825)"><g class="m" transform="translate(-0.01 0.176)"><circle class="v" cx="10.5" cy="10.5" r="10.5"/><circle class="w" cx="10.5" cy="10.5" r="9.5"/></g><g transform="translate(5.951 8.869)"><path class="n" d="M10.5,19.5l4.373,4.373L19.245,19.5" transform="translate(-10.5 -19.5)"/></g></g><g transform="translate(959.022 53.423) rotate(180)"><g class="m" transform="translate(0.021 0.423)"><circle class="v" cx="10.5" cy="10.5" r="10.5"/><circle class="w" cx="10.5" cy="10.5" r="9.5"/></g><g transform="translate(6.293 8.776)"><path class="n" d="M0,0,4.373,4.373,8.745,0" transform="translate(0 0)"/></g></g><g transform="translate(761.703 293.825)"><g class="o" transform="translate(0.297 0.176)"><circle class="v" cx="10.5" cy="10.5" r="10.5"/><circle class="w" cx="10.5" cy="10.5" r="9.5"/></g><g transform="translate(6.382 8.869)"><path class="p" d="M10.5,19.5l4.373,4.373L19.245,19.5" transform="translate(-10.5 -19.5)"/></g></g><g transform="translate(251.603 53.423) rotate(180)"><g class="o" transform="translate(-0.396 0.423)"><circle class="v" cx="10.5" cy="10.5" r="10.5"/><circle class="w" cx="10.5" cy="10.5" r="9.5"/></g><g transform="translate(5.665 8.776)"><path class="p" d="M0,0,4.373,4.373,8.745,0" transform="translate(0 0)"/></g></g><g transform="translate(1310.578 53.423) rotate(180)"><g class="o" transform="translate(-0.423 0.423)"><circle class="v" cx="10.5" cy="10.5" r="10.5"/><circle class="w" cx="10.5" cy="10.5" r="9.5"/></g><g transform="translate(5.967 8.776)"><path class="p" d="M0,0,4.373,4.373,8.745,0" transform="translate(0 0)"/></g></g><g transform="translate(56.008 293.825)"><g class="q" transform="translate(-0.008 0.176)"><circle class="v" cx="10.5" cy="10.5" r="10.5"/><circle class="w" cx="10.5" cy="10.5" r="9.5"/></g><g transform="translate(6.045 8.869)"><path class="r" d="M10.5,19.5l4.373,4.373L19.245,19.5" transform="translate(-10.5 -19.5)"/></g></g><g transform="translate(605.744 53.423) rotate(180)"><g class="q" transform="translate(0.744 0.423)"><circle class="v" cx="10.5" cy="10.5" r="10.5"/><circle class="w" cx="10.5" cy="10.5" r="9.5"/></g><g transform="translate(6.41 8.776)"><path class="r" d="M0,0,4.373,4.373,8.745,0" transform="translate(0 0)"/></g></g><g transform="translate(1115.844 293.825)"><g class="q" transform="translate(0.156 0.176)"><circle class="v" cx="10.5" cy="10.5" r="10.5"/><circle class="w" cx="10.5" cy="10.5" r="9.5"/></g><g transform="translate(6.394 8.869)"><path class="r" d="M10.5,19.5l4.373,4.373L19.245,19.5" transform="translate(-10.5 -19.5)"/></g></g></g><g transform="translate(111.173 1361.359)"><g transform="translate(0 0)"><path class="k" d="M54.77,70.77V68.642A10.642,10.642,0,0,0,44.128,58H42v4.257h2.128a6.385,6.385,0,0,1,6.385,6.385V70.77Z" transform="translate(-29.23 -36.717)"/><circle class="k" cx="2.215" cy="2.215" r="2.215" transform="translate(12.596 29.581)"/><path class="k" d="M44.128,42H42v4.257h2.128a14.9,14.9,0,0,1,14.9,14.9v2.128h4.257V61.155A19.155,19.155,0,0,0,44.128,42Z" transform="translate(-29.23 -29.23)"/><path class="k" d="M43.54,29.083v-4.7A6.385,6.385,0,0,0,37.155,18H24.385A6.385,6.385,0,0,0,18,24.385V45.668a6.385,6.385,0,0,0,6.385,6.385h2.128V47.8H24.385a2.128,2.128,0,0,1-2.128-2.128V24.385a2.128,2.128,0,0,1,2.128-2.128h12.77a2.128,2.128,0,0,1,2.128,2.128v3.022A23.241,23.241,0,0,1,43.54,29.083Z" transform="translate(-18 -18)"/></g></g><g transform="translate(285.861 1361.303)"><g transform="translate(0 0)"><path class="s" d="M148.019,168.129c4.358.392,6.418,4.852,8.76,8.324,1.459,2.128,7.931,10.975,8.048,12.766-1.4.819-4.6.5-5.9-.457-1.584-1.646-14.082-19.741-13.146-20.442A6.592,6.592,0,0,1,148.019,168.129Zm-12.037,23.246a5.839,5.839,0,0,1-5.192-.324c1.074-2.3,9.979-19.139,12.007-18.643,1.266.309,2.488,3.5,1.716,5.33C143.473,180.2,137.578,189.682,135.982,191.375Zm25.2,6.16c-2.541.18-24.012.67-24.712-.237-.472-.612,1.221-2.819,1.516-3.263,1.41-2.07,2.26-1.583,5.019-1.655a205.718,205.718,0,0,1,21.835.349C164.109,194.709,163.393,197.249,161.185,197.535Z" transform="translate(-130.79 -168.122)"/></g></g><g transform="translate(638.696 1361.548)"><path class="k" d="M40,42.746c.336.2,1.035-.234,1.035-.234l9.858-6.068s.508-.438.508-.838-.508-.762-.508-.762l-9.515-5.81s-.872-.527-1.294-.3-.393,1.193-.393,1.193V41.731S39.664,42.551,40,42.746Z" transform="translate(-25.455 -17.929)"/><path class="k" d="M16.8-.805C7.392-.805-.95,7.427-.95,16.831S7.392,34.645,16.8,34.645s17.849-8.411,17.849-17.814S26.2-.805,16.8-.805Zm0,32.279A14.643,14.643,0,1,1,31.438,16.831,14.643,14.643,0,0,1,16.8,31.473Z" transform="translate(0.95 0.805)"/></g><g transform="translate(1346.206 1362.914)"><g transform="translate(0 0)"><path class="t" d="M18,28.385V45.411a6.385,6.385,0,1,0,12.77,0V28.385a6.385,6.385,0,1,0-12.77,0Zm8.513,0V45.411a2.128,2.128,0,0,1-4.257,0V28.385a2.128,2.128,0,0,1,4.257,0Z" transform="translate(-18 -22)"/><rect class="t" width="17.027" height="4.257" transform="translate(17.027 4.257)"/><rect class="t" width="17.027" height="4.257" transform="translate(17.027 12.77)"/><rect class="t" width="12.77" height="4.257" transform="translate(17.027 21.283)"/></g></g><g transform="translate(812.516 1362.991)"><path class="u" d="M35.011,13.006A17.14,17.14,0,0,0,23.88,8.1c-5.991-.416-12.832,3.246-12.832,3.246l1.524,2.845s5.434-3.419,10.918-2.845a14.1,14.1,0,0,1,9,4.241,13.944,13.944,0,0,1,4.34,9.464A13.855,13.855,0,0,1,22.975,38.9,14.013,14.013,0,0,1,9.195,26.539l-.133-1.223h3.315a.254.254,0,0,0,.2-.416L7.879,19.231a.253.253,0,0,0-.391,0c-.78.944-3.681,4.464-4.684,5.68a.254.254,0,0,0,.2.415l1.891-.008H5.918l.076,1.021A17.026,17.026,0,1,0,35.011,13.006Z" transform="translate(-2.747 -8.065)"/><path class="u" d="M68.766,71.257V69.175a3.894,3.894,0,0,0,2.913-3.758c0-1.893-1.032-3.159-3.345-4.1-1.674-.693-1.8-.993-1.8-1.373,0-.507.424-.8,1.166-.8a3.661,3.661,0,0,1,1.931.522l.8.46,1.025-2.7-.575-.337a5.411,5.411,0,0,0-2.006-.686V54.544H66.156v2.025a3.722,3.722,0,0,0-2.784,3.594c0,2.232,1.789,3.235,3.535,3.921,1.32.534,1.59.971,1.59,1.461,0,.618-.551,1.018-1.4,1.018a4.092,4.092,0,0,1-2.218-.66l-.84-.56-.983,2.746.485.348a5.758,5.758,0,0,0,2.49.9v1.922Z" transform="translate(-47.16 -45.174)"/></g></g></svg>