<svg xmlns="http://www.w3.org/2000/svg" width="125.001" height="78.005" viewBox="0 0 125.001 78.005">
  <g id="dot-net-core-7" transform="translate(0.001)">
    <path id="Path_8116" data-name="Path 8116" d="M6.02,40.25a3.511,3.511,0,0,0-1.14-.8,3.346,3.346,0,0,0-1.36-.28,3.337,3.337,0,0,0-1.36.27,3.511,3.511,0,0,0-1.14.8,3.393,3.393,0,0,0-.76,1.15A3.775,3.775,0,0,0,0,42.75a3.328,3.328,0,0,0,.26,1.36,3.575,3.575,0,0,0,.77,1.15,3.339,3.339,0,0,0,2.5,1.05,3.456,3.456,0,0,0,2.5-1.05,3.312,3.312,0,0,0,.78-1.14,3.56,3.56,0,0,0,0-2.72,3.423,3.423,0,0,0-.79-1.15Zm41.85-8.12a48.706,48.706,0,0,0,.32,6.72h-.12c-.28-.55-.9-1.57-1.85-3.06L23.42,0H16.5V45.69h5.32V12.66a46.965,46.965,0,0,0-.25-6.27h.2a15.37,15.37,0,0,0,1.45,2.86L46.64,45.69h6.55V0H47.87Zm41.39,8.54H70.46V24.84H86.91V20.02H70.46V4.84H88.11V0H65.01V45.69H89.23ZM93.33,0V4.84h13.1V45.69h5.32V4.84H125V0ZM41.19,57.05a10.04,10.04,0,0,0-3.52,2.37,11.21,11.21,0,0,0-2.34,3.78,11.355,11.355,0,0,0-.69,4.39,10.7,10.7,0,0,0,2.7,7.52,9.332,9.332,0,0,0,7.18,2.88,12.277,12.277,0,0,0,5.8-1.23l.02-2.33a10.293,10.293,0,0,1-5.47,1.4,7.2,7.2,0,0,1-3.01-.53,7.073,7.073,0,0,1-2.51-1.75,8.72,8.72,0,0,1-2.1-6.14,9.118,9.118,0,0,1,2.25-6.47,7.616,7.616,0,0,1,5.87-2.51,9.931,9.931,0,0,1,5,1.25V57.17a12.23,12.23,0,0,0-5-.88,10.834,10.834,0,0,0-4.18.76Zm24.93,7.16a6.719,6.719,0,0,0-5.22-2.08,7.361,7.361,0,0,0-3.01.49,7.726,7.726,0,0,0-2.57,1.64,8.154,8.154,0,0,0-1.63,2.75,7.945,7.945,0,0,0-.44,3.17,7.846,7.846,0,0,0,1.97,5.59,7.083,7.083,0,0,0,2.42,1.7,6.884,6.884,0,0,0,2.9.53,7.177,7.177,0,0,0,2.96-.55,7,7,0,0,0,2.47-1.73,8.06,8.06,0,0,0,2.02-5.76,8.282,8.282,0,0,0-1.87-5.75ZM64.29,74.48a4.394,4.394,0,0,1-3.57,1.51,4.705,4.705,0,0,1-2-.36,4.621,4.621,0,0,1-1.65-1.19,6.126,6.126,0,0,1-1.35-4.21,6.516,6.516,0,0,1,1.35-4.36,4.672,4.672,0,0,1,1.64-1.21,4.592,4.592,0,0,1,2-.37,4.293,4.293,0,0,1,1.97.36,4.421,4.421,0,0,1,1.61,1.2,6.668,6.668,0,0,1,1.25,4.34,6.547,6.547,0,0,1-1.25,4.29ZM75.88,63.23a5.268,5.268,0,0,0-1.57,2.51V62.6h-2.5V77.64h2.5V69.97a6.744,6.744,0,0,1,1.02-3.96,3.059,3.059,0,0,1,2.5-1.45,2.878,2.878,0,0,1,1.82.48V62.56a4.038,4.038,0,0,0-1.42-.2A3.528,3.528,0,0,0,75.88,63.23Zm18.4,6.21a7.966,7.966,0,0,0-1.6-5.31,5.713,5.713,0,0,0-2.06-1.48,5.605,5.605,0,0,0-2.49-.43,6.355,6.355,0,0,0-5,2.21,8.217,8.217,0,0,0-1.97,5.71,8.379,8.379,0,0,0,1.82,5.76,6.44,6.44,0,0,0,2.27,1.59,6.375,6.375,0,0,0,2.73.47,8.689,8.689,0,0,0,5.22-1.43V74.27a7.506,7.506,0,0,1-4.65,1.68,4.5,4.5,0,0,1-1.92-.3A4.641,4.641,0,0,1,85,74.59a5.58,5.58,0,0,1-1.27-3.86H94.3Zm-10.57-.7a5.521,5.521,0,0,1,1.47-3.18,3.86,3.86,0,0,1,2.88-1.23,3.4,3.4,0,0,1,1.51.26,3.335,3.335,0,0,1,1.24.89,5.005,5.005,0,0,1,1,3.23Z" fill="#621ee5"/>
  </g>
</svg>
