<svg xmlns="http://www.w3.org/2000/svg" width="21.872" height="25" viewBox="0 0 21.872 25"><defs><style>.a{fill:#00598e;}.b{fill:#fff;}.c{fill:#0073ba;}.d{fill:#004975;}.e{fill:#93c5e4;}</style></defs><g transform="translate(-90.334 -67.5)"><path class="a" d="M106.789,72.187c-1.276-.795-2.48-1.108-3.685-1.9a17.154,17.154,0,0,1-2.649-2.745A3.707,3.707,0,0,1,99.2,70.357a17.309,17.309,0,0,1-3.058,1.83,10.809,10.809,0,0,0,5.3,20.349c5.8,0,10.837-4.214,10.837-10.6A11.328,11.328,0,0,0,106.789,72.187Z" transform="translate(-0.074 -0.036)"/><path class="b" d="M268.74,353.687a2,2,0,0,1,1.084.217,1.906,1.906,0,0,1,.554.867.339.339,0,0,1-.193.482c-.169.1-.193.048-.361-.265s-.313-.626-1.156-.626a1.946,1.946,0,0,0-1.517.626c-.409.337-.554.458-.7.265s-.1-.385.169-.626a4.353,4.353,0,0,1,1.108-.795A2.156,2.156,0,0,1,268.74,353.687Z" transform="translate(-163.981 -266.584)"/><path class="b" d="M233.56,391.42a4.092,4.092,0,0,0,2.745.7,5.453,5.453,0,0,0,3.107-.795c.217-.169.313-.024.337.072a.365.365,0,0,1-.1.409,5.226,5.226,0,0,1-2.529,1.011c-1.3.12-3.058.193-4.118-.771a.347.347,0,0,1,0-.506.561.561,0,0,1,.361-.169C233.512,391.371,233.488,391.371,233.56,391.42Z" transform="translate(-132.798 -301.571)"/><path class="c" d="M94.861,88.018c1.83-.024,2.167-.337,3.781-1.06,8.718-3.9,10.331-7.465,10.644-8.284a5.273,5.273,0,0,0,.289-3.612c-.093-.284-.161-.511-.21-.695a12.006,12.006,0,0,0-2.656-2.219c-1.252-.795-2.48-1.108-3.685-1.9a16.19,16.19,0,0,1-2.649-2.745,3.582,3.582,0,0,1-1.252,2.818,17.306,17.306,0,0,1-3.058,1.83,10.98,10.98,0,0,0-5.732,9.561,10.493,10.493,0,0,0,1.447,5.355l.239-.009A3.8,3.8,0,0,0,94.861,88.018Z"/><path class="d" d="M106.71,72.148c-1.252-.795-2.48-1.108-3.685-1.9a16.19,16.19,0,0,1-2.649-2.745,3.582,3.582,0,0,1-1.252,2.818,17.306,17.306,0,0,1-3.058,1.83,10.98,10.98,0,0,0-5.732,9.561,10.493,10.493,0,0,0,1.447,5.355,11.178,11.178,0,0,0,9.583,5.434c5.8,0,10.837-4.214,10.837-10.6a11.029,11.029,0,0,0-2.835-7.534A12.007,12.007,0,0,0,106.71,72.148Zm2.927,2.819A10.824,10.824,0,0,1,112.02,81.9a10.646,10.646,0,0,1-.862,4.276,9.835,9.835,0,0,1-2.323,3.283,11.113,11.113,0,0,1-11.576,2.057A11,11,0,0,1,93.8,89.3a10.356,10.356,0,0,1-3.282-7.593A10.238,10.238,0,0,1,93,74.9a11.454,11.454,0,0,1,3.148-2.589c.256-.139.5-.262.727-.381a12.917,12.917,0,0,0,2.357-1.466,3.444,3.444,0,0,0,1.268-2.527,14.159,14.159,0,0,0,2.424,2.464,13.06,13.06,0,0,0,1.889.983,13.925,13.925,0,0,1,1.8.92l.023.014A11.577,11.577,0,0,1,109.637,74.967Z"/><path class="e" d="M123.271,74.532a4.351,4.351,0,0,1,.289,1.71,1.528,1.528,0,0,1-.506,1.084c-.169.12-.217.217-.217.241,0,.1.217.169.217.385,0,.265-.12.795-1.4,2.071a18.088,18.088,0,0,1-4.527,3.107c-1.421.7-2.1.65-2.288.313s.072-1.084.963-2.071a18.181,18.181,0,0,1,3.709-2.408l3.516-2.456.193-.939" transform="translate(-22.775 -6.55)"/><path class="b" d="M130.445,74.18a3.237,3.237,0,0,1-1.349,2.577,14.819,14.819,0,0,1-2.384,1.445,11.4,11.4,0,0,0-4.07,3.372c-.361.554,0,.771.072.819s.891.145,2.649-.915a14.482,14.482,0,0,0,3.516-2.721c.53-.554.6-.867.6-1.011,0-.169-.12-.241-.313-.289-.1-.024-.12-.072,0-.145s.626-.313.747-.409a1.574,1.574,0,0,0,.722-1.108A4.439,4.439,0,0,0,130.445,74.18Z" transform="translate(-29.948 -6.222)"/><path class="b" d="M159.585,280.009a3.967,3.967,0,0,1,4-3.66c2.818-.024,4.768,2.793,6.189,2.769,1.2-.024,3.516-2.384,4.648-2.384,1.2,0,1.541,1.252,1.541,2a5.919,5.919,0,0,1-.819,2.938c-.578.843-.939,1.156-1.613,1.108-.867-.072-2.6-2.769-3.709-2.818-1.4-.048-4.431,2.914-6.815,2.914a3.612,3.612,0,0,1-2.36-.53A2.577,2.577,0,0,1,159.585,280.009Z" transform="translate(-64.506 -194.544)"/></g></svg>