<svg xmlns="http://www.w3.org/2000/svg" xmlns:xlink="http://www.w3.org/1999/xlink" width="120" height="120" viewBox="0 0 120 120"><defs><style>.a{fill:url(#a);}.b{fill:url(#b);}.c{fill:url(#c);}.d{fill:#f0f7fc;}.e{fill:url(#e);}.f{fill:url(#f);}.g{fill:url(#g);}.h{fill:url(#i);}.i{fill:#231f20;}.j{fill:url(#j);}.k{fill:url(#k);}</style><linearGradient id="a" y1="0.5" x2="1" y2="0.5" gradientUnits="objectBoundingBox"><stop offset="0" stop-color="#071539"/><stop offset="0.353" stop-color="#0a3770"/><stop offset="1" stop-color="#00599a"/></linearGradient><linearGradient id="b" y1="0.5" x2="1" y2="0.5" gradientUnits="objectBoundingBox"><stop offset="0" stop-color="#d3e6f5"/><stop offset="1" stop-color="#f0f7fc"/></linearGradient><linearGradient id="c" x1="0.5" y1="0" x2="0.5" y2="1" xlink:href="#a"/><linearGradient id="e" x1="0" xlink:href="#a"/><linearGradient id="f" x1="0" xlink:href="#a"/><linearGradient id="g" x1="0" xlink:href="#a"/><linearGradient id="i" x1="0" y1="0.499" y2="0.499" xlink:href="#a"/><linearGradient id="j" y1="0.5" x2="1" y2="0.5" gradientUnits="objectBoundingBox"><stop offset="0" stop-color="#d27326"/><stop offset="0.272" stop-color="#f98910"/><stop offset="1" stop-color="#fd0"/></linearGradient><linearGradient id="k" x1="0.5" y1="0" x2="0.5" y2="1" xlink:href="#j"/></defs><g transform="translate(-7 -7)"><path class="a" d="M79.6,35V53.823H23.129A14.423,14.423,0,0,1,11.74,48.012C8.587,43.729,9.011,40.129,9.011,35Z" transform="translate(2.695 37.882)"/><path class="b" d="M107.823,27.118V45.235H89a9.412,9.412,0,0,0-9.412,9.412v4.706H9V27.118c6.141,4.047,16.471.894,17.106-7.906V17.847a10.235,10.235,0,1,0,20.447.682V17a11.765,11.765,0,1,0,23.529,0v1.529a10.235,10.235,0,1,0,20.447-.682v1.365C91.353,28.059,101.706,31.118,107.823,27.118Z" transform="translate(2.706 13.53)"/><path class="c" d="M26.353,43H49.882l2.353,18.823H24Z" transform="translate(23 48.706)"/><path class="c" d="M64.706,54.706H22.353a2.353,2.353,0,1,1,0-4.706H64.706a2.353,2.353,0,1,1,0,4.706Z" transform="translate(17.588 58.176)"/><path class="d" d="M33.706,40.353A2.353,2.353,0,1,1,31.353,38,2.353,2.353,0,0,1,33.706,40.353Z" transform="translate(29.765 41.941)"/><path class="e" d="M30.529,7c-1.482,21.882-1.318,20.047-1.718,25.741C27.965,45.729,7,45.8,7,31.541c0-1.882,0-1.247,5.035-17.859A9.412,9.412,0,0,1,21.118,7Z" transform="translate(0)"/><path class="f" d="M36.771,7V32.059a10.235,10.235,0,1,1-20.447-.682C17.5,13.471,17.147,18.765,17.947,7Z" transform="translate(12.582 0)"/><path class="g" d="M48.529,7V30.529a11.765,11.765,0,0,1-23.529,0V7Z" transform="translate(24.353 0)"/><path class="f" d="M55.447,31.376A10.235,10.235,0,1,1,35,32.059V7H53.823C54.623,18.765,54.271,13.471,55.447,31.376Z" transform="translate(37.882 0)"/><path class="h" d="M66.529,31.541c0,14.259-20.965,14.118-21.812,1.2C44.224,25.823,44.576,30.176,43,7h9.412A9.412,9.412,0,0,1,61.4,13.682C66.529,30.176,66.529,29.612,66.529,31.541Z" transform="translate(48.706 0)"/><path class="i" d="M51.706,54.353A2.353,2.353,0,1,1,49.353,52,2.353,2.353,0,0,1,51.706,54.353Z" transform="translate(54.117 60.882)"/><path class="j" d="M73.294,28H49.765A11.765,11.765,0,0,0,38,39.765V86.823A11.765,11.765,0,0,0,49.765,98.588H73.294A11.765,11.765,0,0,0,85.059,86.823V39.765A11.765,11.765,0,0,0,73.294,28Zm7.059,58.823a7.059,7.059,0,0,1-7.059,7.059H49.765a7.059,7.059,0,0,1-7.059-7.059V39.765a7.059,7.059,0,0,1,7.059-7.059h3.741c1.459,1.482,2.024,2.353,3.318,2.353,11.765,0,9.812.612,12.729-2.353h3.741a7.059,7.059,0,0,1,7.059,7.059Z" transform="translate(41.941 28.412)"/><path class="d" d="M77.647,37.059V84.118a7.059,7.059,0,0,1-7.059,7.059H47.059A7.059,7.059,0,0,1,40,84.118V37.059A7.059,7.059,0,0,1,47.059,30H50.8c2.894,2.941.965,2.353,12.729,2.353,1.176,0,1.553-.565,3.318-2.353h3.741a7.059,7.059,0,0,1,7.059,7.059Z" transform="translate(44.647 31.118)"/><path class="k" d="M54.542,46.236V43.883a2.659,2.659,0,1,0-5.318,0v2.353a2.047,2.047,0,1,1-4.094,0V43.883a6.753,6.753,0,1,1,13.506,0v2.353a2.047,2.047,0,0,1-4.094,0Z" transform="translate(51.587 40.764)"/><path class="j" d="M44,41H62.823V52.765a4.706,4.706,0,0,1-4.706,4.706H48.706A4.706,4.706,0,0,1,44,52.765Z" transform="translate(50.059 46)"/></g></svg>