<svg id="elastic-elasticsearch" xmlns="http://www.w3.org/2000/svg" xmlns:xlink="http://www.w3.org/1999/xlink" width="80" height="80" viewBox="0 0 80 80">
  <defs>
    <clipPath id="clip-path">
      <circle id="Ellipse_293" data-name="Ellipse 293" cx="32" cy="32" r="32" transform="translate(8 8)"/>
    </clipPath>
  </defs>
  <g id="Group_2507" data-name="Group 2507" clip-path="url(#clip-path)">
    <path id="Path_16354" data-name="Path 16354" d="M53.7,26H10a2.006,2.006,0,0,1-2-2V10a2.006,2.006,0,0,1,2-2H67a2.006,2.006,0,0,1,2,2v.7A15.43,15.43,0,0,1,53.7,26Z" fill="#f0bf1a"/>
  </g>
  <g id="Group_2508" data-name="Group 2508" clip-path="url(#clip-path)">
    <path id="Path_16355" data-name="Path 16355" d="M69.1,72H8.2V54H53.9A15.193,15.193,0,0,1,69.1,69.2Z" fill="#3ebeb0"/>
  </g>
  <g id="Group_2510" data-name="Group 2510">
    <g id="Group_2509" data-name="Group 2509" clip-path="url(#clip-path)">
      <path id="Path_16356" data-name="Path 16356" d="M50.1,49H4.8V31H50.1a9,9,0,1,1,0,18Z" fill="#07a5de"/>
    </g>
  </g>
  <g id="Group_2512" data-name="Group 2512">
    <g id="Group_2511" data-name="Group 2511" clip-path="url(#clip-path)">
      <path id="Path_16357" data-name="Path 16357" d="M36,31H6.4V49H36a37.368,37.368,0,0,0,0-18Z" fill="#231f20"/>
    </g>
  </g>
  <path id="Path_16358" data-name="Path 16358" d="M23.9,12.3A32.932,32.932,0,0,0,11.2,26H34.8A34.811,34.811,0,0,0,23.9,12.3Z" fill="#d7a229"/>
  <path id="Path_16359" data-name="Path 16359" d="M24.9,68.2A35.684,35.684,0,0,0,35.5,54H11.2A32.949,32.949,0,0,0,24.9,68.2Z" fill="#019b8f"/>
  <path id="Path_16360" data-name="Path 16360" d="M0,0H80V80H0Z" fill="none"/>
</svg>
