<svg id="_12099885771536233213" data-name="12099885771536233213" xmlns="http://www.w3.org/2000/svg" width="119.711" height="67.971" viewBox="0 0 119.711 67.971">
  <path id="Path_16295" data-name="Path 16295" d="M85.808,21.464H96.54V32.435h5.426a23.532,23.532,0,0,0,7.457-1.251,19.094,19.094,0,0,0,3.625-1.638,13.458,13.458,0,0,1-2.516-6.937c-.309-3.348.367-7.707,2.633-10.328l1.128-1.3,1.344,1.081c3.384,2.719,6.231,6.519,6.733,10.85a16.4,16.4,0,0,1,12.452,1.158l1.474.85-.775,1.514c-3.038,5.929-9.389,7.766-15.6,7.441-9.292,23.143-29.521,34.1-54.049,34.1-12.672,0-24.3-4.737-30.919-15.98l-.109-.184-.964-1.962A31.125,31.125,0,0,1,31.4,34.058l.151-1.623h9.177V21.464H51.464V10.732H72.929V0H85.808V21.464" transform="translate(-16.584)" fill="#364548" fill-rule="evenodd"/>
  <path id="Path_16296" data-name="Path 16296" d="M122.6,40.732c.72-5.592-3.466-9.985-6.061-12.071-2.991,3.458-3.456,12.521,1.237,16.337-2.618,2.326-8.137,4.435-13.788,4.435H35.207a28.983,28.983,0,0,0,2.851,15.979l.782,1.431a26.476,26.476,0,0,0,1.622,2.434h0q4.241.272,7.82.191h0a38.357,38.357,0,0,0,11.411-1.661.826.826,0,1,1,.541,1.561c-.385.134-.787.259-1.2.377h0a35.906,35.906,0,0,1-7.888,1.285c.187,0-.2.028-.2.029-.107.007-.243.022-.35.028-1.243.07-2.584.084-3.956.084-1.5,0-2.977-.029-4.629-.112l-.042.028c5.731,6.441,14.692,10.3,25.924,10.3,23.772,0,43.935-10.538,52.864-34.2,6.334.65,12.422-.965,15.191-6.371-4.411-2.546-10.083-1.734-13.35-.092" transform="translate(-18.606 -15.209)" fill="#22a0c8" fill-rule="evenodd"/>
  <path id="Path_16297" data-name="Path 16297" d="M127.349,40.732c.72-5.592-3.466-9.985-6.061-12.071C118.3,32.119,117.832,41.182,122.525,45c-2.618,2.326-8.137,4.435-13.788,4.435H44.03c-.281,9.033,3.071,15.89,9,20.035h0a38.357,38.357,0,0,0,11.411-1.661.826.826,0,1,1,.541,1.561c-.385.134-.787.259-1.2.377h0a37.752,37.752,0,0,1-8.1,1.341l-.077-.073c8.09,4.15,19.821,4.135,33.27-1.031,15.081-5.794,29.113-16.831,38.9-29.455-.148.067-.292.135-.431.2" transform="translate(-23.356 -15.209)" fill="#37b1d9" fill-rule="evenodd"/>
  <path id="Path_16298" data-name="Path 16298" d="M35.645,88.186A27.5,27.5,0,0,0,38.367,97l.783,1.431a26.42,26.42,0,0,0,1.622,2.434q4.242.272,7.821.191A38.357,38.357,0,0,0,60,99.394a.826.826,0,1,1,.541,1.561c-.385.134-.787.259-1.2.377h0a37.765,37.765,0,0,1-8.084,1.313c-.108.007-.3.008-.407.014-1.242.07-2.57.113-3.942.113-1.5,0-3.033-.029-4.684-.113,5.731,6.441,14.747,10.319,25.98,10.319,20.35,0,38.057-7.725,48.333-24.792H35.645" transform="translate(-18.915 -46.796)" fill="#1b81a5" fill-rule="evenodd"/>
  <path id="Path_16299" data-name="Path 16299" d="M45.367,88.186a20.657,20.657,0,0,0,8.384,12.869,38.357,38.357,0,0,0,11.411-1.661.826.826,0,1,1,.541,1.561c-.385.134-.787.259-1.2.377h0a38.333,38.333,0,0,1-8.14,1.313c8.09,4.149,19.786,4.089,33.234-1.076a87.837,87.837,0,0,0,22.991-13.383H45.367" transform="translate(-24.074 -46.796)" fill="#1d91b4" fill-rule="evenodd"/>
  <path id="Path_16300" data-name="Path 16300" d="M55.261,49.543h9.3v9.3h-9.3Zm.775.775h.734V58.07h-.734Zm1.38,0h.763V58.07h-.763Zm1.409,0h.763V58.07h-.763Zm1.41,0H61V58.07h-.763Zm1.409,0h.763V58.07h-.763Zm1.409,0h.734V58.07h-.734Z" transform="translate(-29.324 -26.29)" fill="#23a3c2" fill-rule="evenodd"/>
  <path id="Path_16301" data-name="Path 16301" d="M78.126,26.677h9.3v9.3h-9.3Zm.776.775h.734V35.2H78.9Zm1.38,0h.763V35.2h-.763Zm1.409,0h.763V35.2H81.69Zm1.409,0h.763V35.2H83.1Zm1.41,0h.763V35.2h-.763Zm1.409,0h.735V35.2h-.735Z" transform="translate(-41.457 -14.156)" fill="#23a3c2" fill-rule="evenodd"/>
  <path id="Path_16302" data-name="Path 16302" d="M78.126,49.543h9.3v9.3h-9.3Zm.776.775h.734V58.07H78.9Zm1.38,0h.763V58.07h-.763Zm1.409,0h.763V58.07H81.69Zm1.409,0h.763V58.07H83.1Zm1.41,0h.763V58.07h-.763Zm1.409,0h.735V58.07h-.735Z" transform="translate(-41.457 -26.29)" fill="#34bbde" fill-rule="evenodd"/>
  <path id="Path_16303" data-name="Path 16303" d="M100.993,49.543h9.3v9.3h-9.3Zm.775.775h.734V58.07h-.734Zm1.38,0h.763V58.07h-.763Zm1.409,0h.763V58.07h-.763Zm1.409,0h.763V58.07h-.763Zm1.409,0h.764V58.07h-.764Zm1.409,0h.734V58.07h-.734Z" transform="translate(-53.592 -26.29)" fill="#23a3c2" fill-rule="evenodd"/>
  <path id="Path_16304" data-name="Path 16304" d="M100.993,26.677h9.3v9.3h-9.3Zm.775.775h.734V35.2h-.734Zm1.38,0h.763V35.2h-.763Zm1.409,0h.763V35.2h-.763Zm1.409,0h.763V35.2h-.763Zm1.409,0h.764V35.2h-.764Zm1.409,0h.734V35.2h-.734Z" transform="translate(-53.592 -14.156)" fill="#34bbde" fill-rule="evenodd"/>
  <path id="Path_16305" data-name="Path 16305" d="M123.859,49.543h9.3v9.3h-9.3Zm.775.775h.734V58.07h-.734Zm1.38,0h.763V58.07h-.763Zm1.409,0h.763V58.07h-.763Zm1.409,0h.764V58.07h-.764Zm1.409,0h.764V58.07h-.764Zm1.409,0h.734V58.07h-.734Z" transform="translate(-65.726 -26.29)" fill="#34bbde" fill-rule="evenodd"/>
  <path id="Path_16306" data-name="Path 16306" d="M123.859,26.677h9.3v9.3h-9.3Zm.775.775h.734V35.2h-.734Zm1.38,0h.763V35.2h-.763Zm1.409,0h.763V35.2h-.763Zm1.409,0h.764V35.2h-.764Zm1.409,0h.764V35.2h-.764Zm1.409,0h.734V35.2h-.734Z" transform="translate(-65.726 -14.156)" fill="#23a3c2" fill-rule="evenodd"/>
  <path id="Path_16307" data-name="Path 16307" d="M123.859,3.811h9.3v9.3h-9.3Zm.775.775h.734v7.752h-.734Zm1.38,0h.763v7.752h-.763Zm1.409,0h.763v7.752h-.763Zm1.409,0h.764v7.752h-.764Zm1.409,0h.764v7.752h-.764Zm1.409,0h.734v7.752h-.734Z" transform="translate(-65.726 -2.022)" fill="#34bbde" fill-rule="evenodd"/>
  <path id="Path_16308" data-name="Path 16308" d="M146.725,49.543h9.3v9.3h-9.3Zm.775.775h.734V58.07H147.5Zm1.38,0h.763V58.07h-.763Zm1.409,0h.764V58.07h-.764Zm1.409,0h.764V58.07H151.7Zm1.41,0h.763V58.07h-.763Zm1.409,0h.734V58.07h-.734Z" transform="translate(-77.86 -26.29)" fill="#23a3c2" fill-rule="evenodd"/>
  <path id="Path_16309" data-name="Path 16309" d="M93.8,101.492a2.566,2.566,0,1,1-2.566,2.566,2.566,2.566,0,0,1,2.566-2.566" transform="translate(-48.415 -53.857)" fill="#d3ecec" fill-rule="evenodd"/>
  <path id="Path_16310" data-name="Path 16310" d="M94.626,103.043a1.832,1.832,0,0,1,.665.124.75.75,0,1,0,1.032,1.009,1.838,1.838,0,1,1-1.7-1.133" transform="translate(-49.238 -54.68)" fill="#364548" fill-rule="evenodd"/>
  <path id="Path_16311" data-name="Path 16311" d="M0,84.559H119.368c-2.6-.659-8.223-1.55-7.3-4.956-4.726,5.469-16.124,3.837-19,1.14-3.2,4.646-21.85,2.88-23.151-.739-4.016,4.713-16.459,4.713-20.474,0-1.3,3.619-19.948,5.385-23.152.739-2.876,2.7-14.273,4.329-19-1.14.928,3.406-4.7,4.3-7.3,4.956" transform="translate(0 -42.241)" fill="#364548" fill-rule="evenodd"/>
  <path id="Path_16312" data-name="Path 16312" d="M78.231,127.786c-6.355-3.016-9.843-7.115-11.784-11.59a39.361,39.361,0,0,1-8.495,1.289q-1.863.1-3.92.105-2.371,0-4.995-.139c5.828,5.824,13,10.309,26.272,10.39q1.47,0,2.921-.055" transform="translate(-26.022 -61.66)" fill="#bdd9d7" fill-rule="evenodd"/>
  <path id="Path_16313" data-name="Path 16313" d="M78.887,120.325a22.27,22.27,0,0,1-2.359-4.13,39.347,39.347,0,0,1-8.5,1.29c2.265,1.23,5.5,2.369,10.856,2.84" transform="translate(-36.101 -61.659)" fill="#d3ecec" fill-rule="evenodd"/>
</svg>
