<svg xmlns="http://www.w3.org/2000/svg" width="76" height="70.009" viewBox="0 0 76 70.009">
  <g id="gitlab" transform="translate(-0.164 -0.421)">
    <path id="Path_16361" data-name="Path 16361" d="M94.964,134.173,108.958,91.1H80.97l13.994,43.068Z" transform="translate(-56.8 -63.744)" fill="#e24329"/>
    <path id="Path_16362" data-name="Path 16362" d="M48.562,134.172,34.568,91.1H14.956Z" transform="translate(-10.398 -63.743)" fill="#fc6d26"/>
    <path id="Path_16363" data-name="Path 16363" d="M4.558,91.1.306,104.192a2.9,2.9,0,0,0,1.052,3.239l36.806,26.741L4.558,91.1Z" transform="translate(0 -63.743)" fill="#fca326"/>
    <path id="Path_16364" data-name="Path 16364" d="M14.956,27.361H34.568L26.14,1.422a1.449,1.449,0,0,0-2.755,0l-8.428,25.94Z" transform="translate(-10.398 0)" fill="#e24329"/>
    <path id="Path_16365" data-name="Path 16365" d="M128.074,134.172,142.068,91.1H161.68l-33.606,43.068Z" transform="translate(-89.91 -63.743)" fill="#fc6d26"/>
    <path id="Path_16366" data-name="Path 16366" d="M161.681,91.1l4.252,13.088a2.9,2.9,0,0,1-1.053,3.239l-36.805,26.741L161.681,91.1Z" transform="translate(-89.911 -63.743)" fill="#fca326"/>
    <path id="Path_16367" data-name="Path 16367" d="M194.791,27.361H175.179l8.428-25.94a1.449,1.449,0,0,1,2.755,0l8.428,25.94Z" transform="translate(-123.021 0)" fill="#e24329"/>
  </g>
</svg>
