<svg xmlns="http://www.w3.org/2000/svg" width="76" height="67.332" viewBox="0 0 76 67.332">
  <g id="google-cloud" transform="translate(-0.242 -0.044)">
    <path id="Path_16390" data-name="Path 16390" d="M49.977,81.087,36.618,57.949,49.977,34.811H76.694L90.053,57.949,76.694,81.087H49.978" transform="translate(-25.563 -24.432)" fill="#cac9c2"/>
    <path id="Path_16391" data-name="Path 16391" d="M103.382,98.945a10.413,10.413,0,1,1,10.412-10.413,10.425,10.425,0,0,1-10.412,10.413" transform="translate(-65.163 -54.867)" fill="#fff"/>
    <path id="Path_16392" data-name="Path 16392" d="M76.753,2.622A5.721,5.721,0,0,0,72.288.044H39.368A5.719,5.719,0,0,0,34.9,2.622L25.283,19.283a5.474,5.474,0,0,0,.6,3.022l6.511,11.133L44.014,13.357H80.754a5.364,5.364,0,0,1,2.687.848L76.753,2.622" transform="translate(-17.586)" fill="#5072aa"/>
    <path id="Path_16393" data-name="Path 16393" d="M25.695,62.311l-.421.729a5.476,5.476,0,0,0,.6,3.022L32.382,77.2l3.464-5.984-10.151-8.9" transform="translate(-17.58 -43.757)" fill="#4d6796"/>
    <path id="Path_16394" data-name="Path 16394" d="M70.8,19.339a2.009,2.009,0,1,1,2.009-2.009A2.011,2.011,0,0,1,70.8,19.339m32.92-2.009a1.86,1.86,0,1,1-1.86-1.86,1.86,1.86,0,0,1,1.86,1.86Z" transform="translate(-48.175 -10.736)" fill="#fff"/>
    <g id="Group_2513" data-name="Group 2513" transform="translate(41.372 13.357)">
      <path id="Path_16395" data-name="Path 16395" d="M172.859,62.6l-9.773-16.928a5.364,5.364,0,0,0-2.687-.847H147.15l11.456,20.192L140.469,97.065a5.243,5.243,0,0,1-1.865,1.784h13.329a5.72,5.72,0,0,0,4.466-2.578l16.46-28.51a5.717,5.717,0,0,0,0-5.156" transform="translate(-138.604 -44.83)" fill="#cc4232"/>
      <path id="Path_16396" data-name="Path 16396" d="M183.74,46.437l-.438-.76a5.36,5.36,0,0,0-2.687-.847H167.366l3.448,6.078,12.925-4.472" transform="translate(-158.816 -44.83)" fill="#b23f33"/>
      <path id="Path_16397" data-name="Path 16397" d="M175.289,137.184a2.009,2.009,0,1,1,2.009-2.009,2.011,2.011,0,0,1-2.009,2.009m15.635-26.777a2.009,2.009,0,1,1,2.009-2.009,2.011,2.011,0,0,1-2.009,2.009" transform="translate(-162.972 -88.089)" fill="#fff"/>
    </g>
    <g id="Group_2514" data-name="Group 2514" transform="translate(0.241 19.283)">
      <path id="Path_16398" data-name="Path 16398" d="M26.681,99.224,8.293,67.785a5.479,5.479,0,0,1-.6-3.022L.856,76.612a5.719,5.719,0,0,0,0,5.156l16.46,28.51a5.719,5.719,0,0,0,4.465,2.578H41.372a5.238,5.238,0,0,0,1.865-1.784l6.706-11.848H26.681" transform="translate(-0.241 -64.763)" fill="#ecb02a"/>
      <path id="Path_16399" data-name="Path 16399" d="M134.857,194.322H136a5.232,5.232,0,0,0,1.865-1.784l6.706-11.848h-7.142l-2.569,13.632" transform="translate(-94.84 -146.229)" fill="#c79732"/>
      <path id="Path_16400" data-name="Path 16400" d="M33.778,137.184a2.009,2.009,0,1,1,2.009-2.009,2.011,2.011,0,0,1-2.009,2.009M18.115,110.407a2.009,2.009,0,1,1,2.009-2.009,2.011,2.011,0,0,1-2.009,2.009" transform="translate(-11.39 -94.015)" fill="#fff"/>
    </g>
  </g>
</svg>
