<svg xmlns="http://www.w3.org/2000/svg" width="76" height="69.44" viewBox="0 0 76 69.44"><defs><style>.a{fill:#3c8bd9;}.b{fill:#fabc04;}.c{fill:#34a852;}</style></defs><g transform="translate(-20.071 -21.132)"><path class="a" d="M84.085,8.777A13.734,13.734,0,0,1,87.33,3.635,12.708,12.708,0,0,1,107.316,6.6c3.061,5.571,6.305,11.019,9.458,16.528,5.265,9.152,10.59,18.3,15.794,27.486a12.653,12.653,0,1,1-22.129,12.274q-6.933-12.075-13.9-24.119a2.776,2.776,0,0,0-.337-.49,4.98,4.98,0,0,1-1.01-1.5c-2.051-3.612-4.163-7.193-6.213-10.774-1.316-2.326-2.693-4.622-4.01-6.948a12.674,12.674,0,0,1-1.683-6.734,9.383,9.383,0,0,1,.8-3.55" transform="translate(-38.151 21.099)"/><path class="b" d="M34.2,28.6a17.6,17.6,0,0,0-.582,3.367,13.222,13.222,0,0,0,1.836,7.193q5.05,8.677,10.07,17.416c.306.52.551,1.041.857,1.53-1.836,3.183-3.673,6.336-5.54,9.519C38.273,72.063,35.7,76.531,33.1,80.969c-.122,0-.153-.061-.184-.153a1.9,1.9,0,0,1,.122-.7A12.319,12.319,0,0,0,30.1,67.961a11.665,11.665,0,0,0-7.193-3.7,12.422,12.422,0,0,0-9.825,2.724c-.52.4-.857.979-1.469,1.285a.2.2,0,0,1-.214-.153c1.469-2.54,2.908-5.081,4.377-7.621Q24.867,44.7,33.988,28.937c.061-.122.153-.214.214-.337" transform="translate(11.731 1.275)"/><path class="c" d="M4.585,148.348c.582-.52,1.132-1.071,1.745-1.561a12.651,12.651,0,0,1,20.232,7.682,13.453,13.453,0,0,1-.49,6.519,3.206,3.206,0,0,1-.122.52c-.275.49-.52,1.01-.826,1.5-2.724,4.5-6.734,6.734-12,6.4a12.564,12.564,0,0,1-11.6-10.958,12.246,12.246,0,0,1,1.683-8.142c.306-.551.673-1.041,1.01-1.592.153-.122.092-.367.367-.367" transform="translate(18.669 -78.867)"/></g></svg>