<svg xmlns="http://www.w3.org/2000/svg" width="76" height="76" viewBox="0 0 76 76"><defs><style>.a{fill:none;}.b{opacity:0.7;}.c{fill:#f9ab00;}.d{fill:#e37400;}</style></defs><g transform="translate(0 0.027)"><rect class="a" width="76" height="76" transform="translate(0 -0.027)"/><g class="b" transform="translate(7.912 3.186)"><g transform="translate(43.514)"><path class="c" d="M130,16.307V68.524c0,5.843,4.031,9.1,8.307,9.1,3.956,0,8.307-2.769,8.307-9.1V16.7A8.317,8.317,0,0,0,138.307,8,8.443,8.443,0,0,0,130,16.307Z" transform="translate(-130 -8)"/></g><g transform="translate(21.757 26.504)"><path class="d" d="M75,83.307V109.02c0,5.843,4.031,9.1,8.307,9.1,3.956,0,8.307-2.769,8.307-9.1V83.7A8.317,8.317,0,0,0,83.307,75,8.443,8.443,0,0,0,75,83.307Z" transform="translate(-75 -75)"/></g><g transform="translate(0 53.008)"><circle class="d" cx="8.307" cy="8.307" r="8.307"/></g></g></g></svg>