<svg xmlns="http://www.w3.org/2000/svg" width="22.137" height="29.995" viewBox="0 0 22.137 29.995"><defs><style>.a{fill:#e11322;stroke:#e11322;}.a,.b{stroke-miterlimit:10;stroke-width:0.094px;}.b{fill:#0062af;stroke:#0062af;}</style></defs><g transform="translate(-21.561 -22.37)"><path class="a" d="M126.225,22.534a3.423,3.423,0,0,1,.711,2.887,6.526,6.526,0,0,1-1.567,2.974A14.483,14.483,0,0,1,123.4,30.26a8.182,8.182,0,0,0-2.14,2.3,3,3,0,0,0-.239,2.5c.486,1.407,1.618,2.452,2.234,3.78-.682-.6-1.349-1.226-1.973-1.886a9.032,9.032,0,0,1-1.676-2.307,2.76,2.76,0,0,1-.189-1.966A4.538,4.538,0,0,1,120.573,31c1.313-1.313,2.931-2.278,4.215-3.613a5.367,5.367,0,0,0,1.5-2.619,5.276,5.276,0,0,0-.065-2.234Z" transform="translate(-90.597 0)"/><path class="a" d="M176.012,108.611a14.732,14.732,0,0,1,4.723-2.176,24.46,24.46,0,0,0-3.838,2.691,3.573,3.573,0,0,0-.987,1.415A1.8,1.8,0,0,0,176,111.8a16.207,16.207,0,0,0,1.212,1.9,2.012,2.012,0,0,1,.138,1.828,4.848,4.848,0,0,1-1.923,2c-.1.058-.189.167-.312.181a2.528,2.528,0,0,0,.914-1.857,2.228,2.228,0,0,0-.66-1.393,4.287,4.287,0,0,1-1.2-3.1,4.186,4.186,0,0,1,1.843-2.75Z" transform="translate(-141.459 -77.814)"/><path class="b" d="M259.95,245.026a1.817,1.817,0,0,1,1.233-.522,2.7,2.7,0,0,1,2.169.624,1.97,1.97,0,0,1,.646,1.741,3.084,3.084,0,0,1-1.175,1.843,9.239,9.239,0,0,1-3.548,1.618,1.143,1.143,0,0,1,.247-.21,8.673,8.673,0,0,0,2.612-1.959,2.357,2.357,0,0,0,.624-1.894,1.849,1.849,0,0,0-1.712-1.422,3.765,3.765,0,0,0-1.1.181Z" transform="translate(-220.405 -205.843)"/><path class="b" d="M55.563,249.345a10.463,10.463,0,0,1,4.244-.921,16.769,16.769,0,0,0-2.517.834,1.154,1.154,0,0,0-.515.392c-.058.152.1.254.218.3a5.436,5.436,0,0,0,1.567.283,43.278,43.278,0,0,0,5.572-.065c1.828-.116,3.642-.363,5.448-.653a10.06,10.06,0,0,0-1.175.617,1.816,1.816,0,0,1-.631.218,33.618,33.618,0,0,1-6.762.682c-.878.007-1.748-.007-2.619-.065a15.087,15.087,0,0,1-2.9-.392,1.939,1.939,0,0,1-.784-.363.254.254,0,0,1-.015-.363,2.916,2.916,0,0,1,.871-.508Z" transform="translate(-30.6 -209.5)"/><path class="b" d="M87.558,295.858a4.356,4.356,0,0,1,1.277-.624c-.145.174-.348.341-.363.58a.408.408,0,0,0,.239.341,2.364,2.364,0,0,0,.776.2,24.689,24.689,0,0,0,4.208.131,31.106,31.106,0,0,0,3.831-.5,4.263,4.263,0,0,0,1.2.747,22.933,22.933,0,0,1-4.687.834,19.86,19.86,0,0,1-4.5-.145,6.226,6.226,0,0,1-1.727-.508.938.938,0,0,1-.53-.522.584.584,0,0,1,.276-.537Z" transform="translate(-60.883 -252.916)"/><path class="b" d="M99.685,340.757a3.2,3.2,0,0,1,1.154-.522c-.131.123-.363.276-.261.486.2.254.559.283.849.348a18.518,18.518,0,0,0,3.693.16,24.815,24.815,0,0,0,2.75-.384,13.5,13.5,0,0,0,1.625.8,12.053,12.053,0,0,1-2.7.805,14.3,14.3,0,0,1-4.716.065,6.582,6.582,0,0,1-2.017-.624,1.221,1.221,0,0,1-.595-.566.522.522,0,0,1,.218-.566Z" transform="translate(-72.168 -294.652)"/><path class="b" d="M23.49,370.243a7.2,7.2,0,0,1,2.06-.428,1.511,1.511,0,0,1,.82.152,6.211,6.211,0,0,0-2.438.646.808.808,0,0,0-.421.4c0,.225.254.3.421.37a13.317,13.317,0,0,0,3.279.631,56.914,56.914,0,0,0,9.881-.094,22.681,22.681,0,0,0,3.693-.617,2.088,2.088,0,0,0,1.074-.6.5.5,0,0,0-.1-.631c.247.138.595.312.544.646-.094.348-.45.53-.74.7a11.742,11.742,0,0,1-2.967.921,40.5,40.5,0,0,1-8.982.624,50.381,50.381,0,0,1-6.762-.682,2.151,2.151,0,0,1-1.139-.486c-.189-.218-.022-.522.16-.682a4.709,4.709,0,0,1,1.618-.863Z" transform="translate(0 -322.085)"/><path class="b" d="M92.528,395.838a4.9,4.9,0,0,0,2.06-1.1,2,2,0,0,1-1.175,1.349,11.456,11.456,0,0,1-3.33.987,42.059,42.059,0,0,1-7.342.435,28.323,28.323,0,0,1-5.013-.464,3.782,3.782,0,0,1-1.154-.414,34.909,34.909,0,0,0,4.44.406,47.559,47.559,0,0,0,7.327-.326,25.081,25.081,0,0,0,4.186-.871Z" transform="translate(-50.959 -345.198)"/></g></svg>