<svg xmlns="http://www.w3.org/2000/svg" width="76" height="105.086" viewBox="0 0 76 105.086">
  <g id="jenkins" transform="translate(-10 -9.997)">
    <path id="Path_16314" data-name="Path 16314" d="M87.11,86.1c0,20.82-16.5,37.7-36.856,37.7S13.4,106.918,13.4,86.1,29.9,48.4,50.254,48.4,87.11,65.278,87.11,86.1" transform="translate(-2.254 -25.462)" fill="#d33833"/>
    <path id="Path_16315" data-name="Path 16315" d="M13.988,100.131S11.32,60.818,47.544,59.7l-2.527-4.212-19.656,6.6L19.745,68.54,14.83,77.948,12.022,88.9l.842,7.3" transform="translate(-1.341 -30.158)" fill="#ef3d3a"/>
    <path id="Path_16316" data-name="Path 16316" d="M22.758,58.405a37.168,37.168,0,0,0,0,51.713,35.133,35.133,0,0,0,50.486,0,37.168,37.168,0,0,0,0-51.713,35.134,35.134,0,0,0-50.486,0Zm-1.636,53.313a39.454,39.454,0,0,1,0-54.913,37.42,37.42,0,0,1,53.758,0,39.453,39.453,0,0,1,0,54.913,37.417,37.417,0,0,1-53.757,0" transform="translate(0 -23.486)" fill="#231f20"/>
    <path id="Path_16317" data-name="Path 16317" d="M90.907,63.927l-5.617.842-7.582.842-4.914.14-4.774-.14-3.65-1.123-3.229-3.51-2.527-7.161-.562-1.545-3.37-1.123-1.966-3.229-1.4-4.633,1.544-4.072,3.651-1.264,2.948,1.4,1.4,3.089,1.685-.281.562-.7-.562-3.229-.14-4.072.842-5.616-.033-3.208,2.56-4.092,4.493-3.229,7.862-3.37,8.705,1.264,7.582,5.476L97.927,27l2.247,4.072.561,10.109L99.05,49.887l-3.089,7.722-2.948,4.072" transform="translate(-27.392 -3.082)" fill="#f0d6b7"/>
    <path id="Path_16318" data-name="Path 16318" d="M76.74,181.317l-20.078.842v3.37l1.685,11.794-.842.983-14.04-4.774-.983-1.685-1.4-15.865-3.229-9.548-.7-2.246,11.232-7.722,3.51-1.4,3.089,3.791,2.668,2.387,3.089.983,1.4.421,1.685,7.3,1.264,1.544,3.229-1.123-2.246,4.353,12.215,5.756-1.545.842" transform="translate(-17.999 -96.183)" fill="#335061"/>
    <path id="Path_16319" data-name="Path 16319" d="M54.791,41.7l3.651-1.264,2.948,1.4,1.4,3.089,1.685-.281.421-1.685-.842-3.229.842-7.723L64.2,27.8l2.527-2.948L72.2,20.5l-1.544-2.106-7.723,3.791-3.229,2.527L57.88,28.644l-2.808,3.791-.842,4.493.561,4.773" transform="translate(-29.326 -5.568)" fill="#6d6b6d"/>
    <path id="Path_16320" data-name="Path 16320" d="M60.547,29.433s2.106-5.195,10.53-7.722.421-1.826.421-1.826L62.372,23.4l-3.51,3.51-1.545,2.808,3.229-.281M56.335,41.648s-2.948-9.828,8.283-11.232L64.2,28.73l-7.722,1.826-2.246,7.3.561,4.773,1.545-.983" transform="translate(-29.325 -6.497)" fill="#dcd9d8"/>
    <path id="Path_16321" data-name="Path 16321" d="M58.617,48.975l1.838-1.781a1.184,1.184,0,0,1,.97,1.079c.14.983.561,9.829,6.6,14.6.55.436-4.493-.7-4.493-.7l-4.493-7.019m25.414-8.846s.328-4.256,1.474-3.929a1.578,1.578,0,0,1,1.146,1.474s-2.784,1.8-2.62,2.455M96.105,30.722s-2.315.489-2.527,2.527,2.527.421,2.948.28m-17.41-2.667s-3.089.421-3.089,2.387,3.51,1.825,4.493.983m-20.5,5.756s-5.336-3.229-5.9-.141-1.826,5.336.842,8.565l-1.826-.562L51.456,43.5l-.561-4.212,3.229-3.37,3.65.281,2.106,1.685.141,2.106m2.527-8.845S64.935,18.788,77.01,16.4c9.942-1.965,15.163.421,17.129,2.667,0,0-8.845-10.53-17.27-7.3s-14.6,9.126-14.462,12.917a61.923,61.923,0,0,1,.141,6.459M95.122,20.473s-4.071-.14-4.212,3.511a2.787,2.787,0,0,0,.281,1.123s3.23-3.65,5.195-1.685" transform="translate(-27.115 -0.766)" fill="#f7e4cd"/>
    <path id="Path_16322" data-name="Path 16322" d="M113.339,47.072s-.7-5.6-5.478-2.346c-3.089,2.106-2.808,5.055-2.247,5.616s.409,1.693.837.917.286-3.3,1.831-4.005,4.076-1.486,5.057-.182" transform="translate(-63.161 -22.351)" fill="#f7e4cd"/>
    <path id="Path_16323" data-name="Path 16323" d="M54.976,158.577l-13.2,5.9s5.476,21.763,2.667,28.5l-1.965-.7-.141-8.284-3.65-15.725-1.545-4.353,13.76-9.266,4.071,3.931m1.357,12.037,1.872,2.284v8.424H55.959s-.281-5.9-.281-6.6.281-3.229.281-3.229m.421,11.092-6.318.28,1.825,1.264,4.493.7" transform="translate(-17.998 -95.907)" fill="#49728b"/>
    <path id="Path_16324" data-name="Path 16324" d="M158.4,233.118l5.2-.141,1.264,12.917-5.336.7L158.4,233.118" transform="translate(-98.391 -147.843)" fill="#335061"/>
    <path id="Path_16325" data-name="Path 16325" d="M162.563,177.314l7.862-.421s3.229-8.143,3.229-8.565,2.808-11.794,2.808-11.794l-6.318-6.6-1.264-1.123-3.37,3.37V165.24l-2.948,12.074" transform="translate(-101.154 -92.039)" fill="#335061"/>
    <path id="Path_16326" data-name="Path 16326" d="M163.309,176.331l-4.914.983.7,3.932c1.825.842,4.914-1.4,4.914-1.4m-.562-28.08,9.829,7.3.28-3.37-7.441-6.88-2.668,2.948" transform="translate(-98.391 -92.039)" fill="#49728b"/>
    <path id="Path_16327" data-name="Path 16327" d="M99.655,261.055l-2.907-11.8-1.446-8.7-.239-6.46,13.156-.7H116.4l-.744,14.744,1.264,11.373-.141,2.106-10.67.842-6.459-1.4" transform="translate(-56.4 -148.119)" fill="#fff"/>
    <path id="Path_16328" data-name="Path 16328" d="M135.3,231.32s-.7,14.6,1.4,24.992a26.819,26.819,0,0,1-10.39,3.37l11.794-.421,1.4-.842-1.685-23.026-.421-4.915" transform="translate(-77.118 -146.186)" fill="#dcd9d8"/>
    <path id="Path_16329" data-name="Path 16329" d="M175.315,237.318l5.476-1.545,10.39-.561,1.545-4.774-2.808-8.283-3.229-.421-4.493,1.4-4.311,2.1-2.288-.42-1.784.7" transform="translate(-108.613 -140.388)" fill="#fff"/>
    <path id="Path_16330" data-name="Path 16330" d="M177.979,240.031s3.65-1.684,4.212-1.544l-1.545-7.723,1.825-.7s1.264,7.3,1.264,8.143c0,0,7.862.421,8.565.421a12.751,12.751,0,0,0,1.264-6.6l1.544,4.493.141,2.527L193,242.418l-2.527.562-4.212-.141-1.4-1.825-4.914.7-1.545.562" transform="translate(-111.376 -145.911)" fill="#dcd9d8"/>
    <path id="Path_16331" data-name="Path 16331" d="M149.173,201.611l-3.089-7.862-3.229-4.633s.7-1.966,1.685-1.966h3.23l3.089,1.123-.28,5.195-1.4,8.143" transform="translate(-88.087 -117.458)" fill="#fff"/>
    <path id="Path_16332" data-name="Path 16332" d="M149.307,198.386s-3.931-7.581-3.931-8.7c0,0,.7-1.685,1.685-1.264s3.089,1.544,3.089,1.544v-2.667l-4.773-.983-3.229.421,5.476,12.917,1.123.141" transform="translate(-87.617 -116.902)" fill="#dcd9d8"/>
    <path id="Path_16333" data-name="Path 16333" d="M97.6,164.107l-3.89-.423-3.651-1.123v1.264l1.784,1.967,5.616,2.527" transform="translate(-53.084 -101.155)" fill="#fff"/>
    <path id="Path_16334" data-name="Path 16334" d="M92.985,168.4s4.352,1.825,5.757,1.4l.139,1.683-3.93-.841-2.387-1.685.421-.562" transform="translate(-54.743 -105.025)" fill="#dcd9d8"/>
    <path id="Path_16335" data-name="Path 16335" d="M164.478,173.258a26.7,26.7,0,0,1-6.419-.885,19.825,19.825,0,0,1,.081-2.087,5.01,5.01,0,0,1,2.2-.461,3.829,3.829,0,0,0-2.443-.276,3.922,3.922,0,0,0-.405-1.288c1.339-.478,4.5-3.612,6.28-2.574.847.494,1.208,3.313,1.273,4.684a4.782,4.782,0,0,1-.566,2.888" transform="translate(-97.791 -103.088)" fill="#d33833"/>
    <path id="Path_16336" data-name="Path 16336" d="M164.478,173.258a26.7,26.7,0,0,1-6.419-.885,19.825,19.825,0,0,1,.081-2.087,5.01,5.01,0,0,1,2.2-.461,3.829,3.829,0,0,0-2.443-.276,3.922,3.922,0,0,0-.405-1.288c1.339-.478,4.5-3.612,6.28-2.574.847.494,1.208,3.313,1.273,4.684a4.782,4.782,0,0,1-.566,2.888Z" transform="translate(-97.791 -103.088)" fill="none" stroke="#d33833" stroke-width="2.5"/>
    <path id="Path_16337" data-name="Path 16337" d="M123.938,170.579c-.006.18-.014.362-.021.544-.744.489-1.944.483-2.761.893a7.169,7.169,0,0,1,2.97.751l-.053,1.362c-1.363.933-2.609,2.323-4.214,3.2-.759.414-3.423,1.479-4.231,1.291-.457-.106-.5-.673-.681-1.208a17.27,17.27,0,0,1-1.364-4.689c-.1-2.176-.319-5.822,2.026-5.374a20.933,20.933,0,0,1,5.557,2.033,5.742,5.742,0,0,0,2.771,1.2" transform="translate(-68.643 -104.304)" fill="#d33833"/>
    <path id="Path_16338" data-name="Path 16338" d="M123.938,170.579c-.006.18-.014.362-.021.544-.744.489-1.944.483-2.761.893a7.169,7.169,0,0,1,2.97.751l-.053,1.362c-1.363.933-2.609,2.323-4.214,3.2-.759.414-3.423,1.479-4.231,1.291-.457-.106-.5-.673-.681-1.208a17.27,17.27,0,0,1-1.364-4.689c-.1-2.176-.319-5.822,2.026-5.374a20.933,20.933,0,0,1,5.557,2.033A5.742,5.742,0,0,0,123.938,170.579Z" transform="translate(-68.643 -104.304)" fill="none" stroke="#d33833" stroke-width="2.5"/>
    <path id="Path_16339" data-name="Path 16339" d="M147.7,178.758a8.018,8.018,0,0,1-.356-2.558c3.162-2.107,3.755,3.621.356,2.558" transform="translate(-91.048 -109.886)" fill="#d33833"/>
    <path id="Path_16340" data-name="Path 16340" d="M147.7,178.758a8.018,8.018,0,0,1-.356-2.558c3.162-2.107,3.755,3.621.356,2.558Z" transform="translate(-91.048 -109.886)" fill="none" stroke="#d33833" stroke-width="2.5"/>
    <path id="Path_16341" data-name="Path 16341" d="M127.787,170.99s-.983-1.4-.28-1.825,1.4,0,1.825-.7,0-1.123.14-1.965.843-.983,1.545-1.123,2.668-.421,2.948.281l-.842-2.527-1.685-.562-5.336,3.089-.28,1.544v3.089m-12.777,5.335q-.253-3.286-.546-6.568c-.3-3.269.785-2.7,3.619-2.7.433,0,2.664.516,2.824.842.766,1.564-1.28,1.216.883,2.4,1.825,1,5.05-.6,4.313-2.817-.413-.492-2.151-.153-2.774-.476l-3.29-1.706c-1.4-.724-4.621-1.779-6.109-.768-3.77,2.564.238,8.97,1.583,11.645" transform="translate(-66.561 -101.158)" fill="#ef3d3a"/>
    <path id="Path_16342" data-name="Path 16342" d="M82.825,49.218C79,48.327,77.1,50.82,75.937,53.4c-1.036-.251-.623-1.66-.362-2.377.685-1.884,3.445-4.391,5.7-4.051.97.146,2.284,1.033,1.549,2.242m18.646,4.358.182.007a39.6,39.6,0,0,0,2.7,5.286c-.73,1.7-5.533,3.208-5.46.152,1.039-.454,2.832-.093,3.752-.673-.532-1.461-1.3-2.705-1.178-4.772m-16.686.047c.821,1.5,1.088,3.085,2.254,4.222.525.512,1.547,1.136,1.04,2.559A3.242,3.242,0,0,1,86.6,61.634c-1.823.538-6.072.111-4.633-2.162,1.509.07,3.535.979,4.662-.115-.865-1.384-2.408-4.121-1.84-5.734m16,15.288c-2.745,1.764-5.807,3.681-10.305,3.237a3.051,3.051,0,0,1-.394-3.924c.486.836.181,2.373,1.535,2.6,2.553.437,5.524-1.562,7.36-2.26,1.138-1.919-.1-2.625-1.124-3.861-2.1-2.531-4.916-5.668-4.814-9.458.849-.615.922.939,1.044,1.223,1.1,2.566,3.856,5.848,5.87,8.044.494.541,1.308,1.06,1.4,1.417.261,1.041-.679,2.286-.57,2.978M64.593,67.053c-.86-.491-1.065-2.655-2.076-2.716-1.443-.088-1.18,2.806-1.175,4.5-.993-.9-1.168-3.68-.438-5.106-.832-.408-1.2.451-1.665.753.593-4.309,6.3-2,5.354,2.57M102.535,70.7c-1.278,2.433-3.086,5.111-6.836,5.189a9.275,9.275,0,0,1,0-2.454c2.867-.275,4.637-1.734,6.832-2.735M84.569,72.281c2.391,1.258,6.787,1.393,10.038,1.3a11.4,11.4,0,0,1,.177,2.461c-4.179.208-9.12-.826-10.215-3.759m-.455,2.345c1.654,4.153,7.339,3.675,12.133,3.56a2.565,2.565,0,0,1-1.237,1.407c-1.537.625-5.773,1.1-7.906-.034-1.353-.719-2.221-2.343-2.962-3.3-.358-.46-2.14-1.635-.027-1.638" transform="translate(-32.647 -24.498)" fill="#231f20"/>
    <path id="Path_16343" data-name="Path 16343" d="M169.941,193.361a84.638,84.638,0,0,1-6.1,9.671c.965-2.839,1.379-7.59,1.524-11.212a3.533,3.533,0,0,1,4.576,1.541" transform="translate(-102.001 -120.326)" fill="#81b0c4"/>
    <path id="Path_16344" data-name="Path 16344" d="M201.489,232.529c-2.173.435-3.7,2.547-5.82,2.411,1.165-1.642,3.207-2.335,5.82-2.411m.959,3.4a31.768,31.768,0,0,1-5.648.326c.85-1.3,4.127-.851,5.648-.326m.614,2.932c-1.99.043-4.465,0-6.356-.155,1.119-1.2,5.065-.446,6.356.155" transform="translate(-123.105 -147.546)" fill="#231f20"/>
    <path id="Path_16345" data-name="Path 16345" d="M166.118,275.081c.285,2.5,1.276,5.033,1.152,7.771a8.146,8.146,0,0,1-3.208.694c-.1-2.327-.415-5.884-.322-8.1.725.048,1.8-.518,2.378-.363" transform="translate(-101.923 -175.741)" fill="#dcd9d8"/>
    <path id="Path_16346" data-name="Path 16346" d="M146.224,165.793c-1,.652-1.851,1.467-2.811,2.164a6.188,6.188,0,0,1-4.854-1.37c.026-.1.183-.054.189-.175,2.279,1.015,5.175-.414,7.476-.62" transform="translate(-85.239 -103.298)" fill="#f0d6b7"/>
    <path id="Path_16347" data-name="Path 16347" d="M125.806,200.848c.626-2.713,3.079-4.118,5.307-5.612,2.3,2.918,3.7,6.671,5.238,10.293a53.672,53.672,0,0,1-10.545-4.68" transform="translate(-76.783 -122.819)" fill="#81b0c4"/>
    <path id="Path_16348" data-name="Path 16348" d="M77.381,99.7c-.093,2.218.218,5.775.322,8.1a8.129,8.129,0,0,0,3.208-.694c.124-2.738-.867-5.271-1.152-7.771C79.175,99.184,78.106,99.751,77.381,99.7ZM54.419,87.088a115.97,115.97,0,0,0,4.964,24.37c5.734,1.741,12.645,1.892,17.713.322-.93-4.468-.524-9.907-1.068-14.675-.41-3.584-.2-7.189-.763-10.845C69.124,84.982,60.445,85.961,54.419,87.088Zm22.3-.772c-.052,3.839.172,7.626.465,11.47,1.475-.221,2.475-.369,3.844-.669-.444-3.7-.39-7.865-1.3-11.138a9.114,9.114,0,0,0-3.013.338ZM84.2,85.7a9.2,9.2,0,0,0-2.183.007c.314,3.13,1.077,6.584,1.345,9.868a9.144,9.144,0,0,0,2.479-.63C85.882,92.058,85.583,88.085,84.2,85.7ZM95.519,96.043c2.192-.532,3.571-3.217,2.958-5.975-.411-1.853-1.144-5.343-1.929-6.529-.58-.876-2.151-2.025-3.406-1.222C91.1,83.624,87.5,84,86.016,85.585A52.753,52.753,0,0,1,87.3,94.633c2.55.159,5.687-.7,7.808.212-1.481.479-3.4.483-4.68,1.182C91.475,96.532,93.923,96.43,95.519,96.043ZM75.131,82.709c-1.54-3.621-2.939-7.375-5.238-10.293-2.228,1.494-4.681,2.9-5.307,5.612a53.671,53.671,0,0,0,10.545,4.68Zm3.8-11.214c-.146,3.622-.559,8.373-1.524,11.211a84.619,84.619,0,0,0,6.1-9.67,3.532,3.532,0,0,0-4.576-1.541Zm-4.3-1.529c-.872-.094-1.613,1-2.748.528-.259.287-.5.6-.761.879,2.505,3.019,3.644,7.3,5.579,10.851,1.038-3.408.919-7.142,1.147-10.863-1.427.09-2.218-1.291-3.218-1.4Zm-2.767-3.652a8.018,8.018,0,0,0,.356,2.558c3.4,1.062,2.805-4.666-.356-2.558Zm-3.77-1.237a20.934,20.934,0,0,0-5.557-2.033c-2.345-.449-2.125,3.2-2.026,5.374a17.25,17.25,0,0,0,1.363,4.689c.183.534.224,1.1.681,1.208.807.188,3.471-.877,4.231-1.291,1.605-.875,2.851-2.265,4.214-3.2q.027-.681.053-1.362a7.187,7.187,0,0,0-2.97-.751c.816-.411,2.017-.405,2.761-.894.007-.182.014-.363.021-.544A5.728,5.728,0,0,1,68.087,65.077ZM54.1,62.535c-1.216,1.234,3.409,2.916,4.882,3.007-.008-.781.445-1.517.354-2.077-1.75-.307-4.048-.1-5.236-.93Zm14.975.58c-.006.121-.163.077-.189.175a6.19,6.19,0,0,0,4.854,1.369c.96-.7,1.811-1.511,2.811-2.164-2.3.206-5.2,1.635-7.476.619Zm13.745,4.168c-.066-1.371-.426-4.191-1.273-4.684-1.779-1.039-4.941,2.1-6.28,2.574a3.9,3.9,0,0,1,.4,1.288,3.825,3.825,0,0,1,2.444.276,5.02,5.02,0,0,0-2.2.461,19.815,19.815,0,0,0-.081,2.088,26.661,26.661,0,0,0,6.419.885,4.787,4.787,0,0,0,.566-2.888ZM52.051,63.729c-.381-.272-2.964-3.632-3.317-3.493-4.673,1.843-9.042,5.03-12.947,8.043,3.723,7.988,5.226,17.774,5.491,27.206,4.264,1.995,8.01,4.87,13.8,5.17-.67-4.738-1.281-8.965-1.661-13.425-1.454-.613-3.54.028-4.9-.19-.011-1.639,2.078-.718,2.252-1.821.131-.834-1.15-.9-.733-2.21,1.064.387,1.623,1.24,2.757,1.562,1.037-2.268-.014-6.28.135-8.176.028-.356.178-1.971.975-1.688.706.251-.04,4.3.037,6.091.07,1.653-.2,3.252.47,4.29A159.638,159.638,0,0,1,71.73,83.668a41.915,41.915,0,0,1-4.646-2.089c-.94-.53-3.9-1.632-4.174-2.525-.432-1.422,1.135-2.18,1.4-3.4-2.822,1.54-3.373-1.475-4.041-3.611a28.068,28.068,0,0,1-1.1-4.5,48.644,48.644,0,0,1-7.123-3.82Zm28.3-3.086c3.893-1.888,4.595,7.056,3.069,9.937.236.859,1.047,1.188,1.378,1.961-2.172,3.892-4.585,7.525-6.8,11.371,1.649-1.027,4-.184,5.945-.952.709-.281,1.223-1.9,1.76-3.2a69.714,69.714,0,0,0,3.718-11.491A14.552,14.552,0,0,0,89.9,65.1c-.17-1.238-1.85-2.157-2.7-2.922-1.575-1.415-2.566-2.659-4.209-3.981C82.322,59.183,80.892,59.843,80.348,60.642Zm-37.2-34.525C41.292,28.158,41.68,31.983,41.9,34.7c3.354-2.11,7.8.166,7.762,3.754,1.6-.043.6-2,.309-3.26-.946-4.118,1.595-8.591.115-12.357a10.176,10.176,0,0,0-6.943,3.276ZM56.421,14.27c-4.2,1.19-9.582,4.242-11.308,8.015,1.336-.194,2.264-.868,3.582-.952a8.82,8.82,0,0,0,1.724.066c1.141-.283,2.1-2.841,2.965-3.793.839-.93,1.848-1.327,2.538-2.174.443-.214,1.1-.2,1.124-.865C56.854,14.362,56.651,14.2,56.421,14.27ZM78.283,15.39c-4.359-2.459-11.738-4.309-16.374-2-3.741,1.866-8.8,4.952-10.523,8.864,1.611,3.775-.477,7.233-.61,11.065-.071,2.039.96,3.819,1.039,6.038-.552.91-2.235,1.022-3.4.959-.392-1.964-1.079-4.171-3.1-4.392a4.694,4.694,0,0,0-5.083,4.53c-.154,2.91,2.235,7.733,5.621,7.4,1.307-.129,1.63-1.441,3.054-1.427.772,1.541-1.192,2.025-1.394,3.127a8.882,8.882,0,0,0,.288,1.92,26.2,26.2,0,0,0,3.336,7.764c1.712,2.454,5.078,2.824,8.7,3.064.646-1.393,3.028-1.278,4.58-.914-1.86-.737-3.589-2.523-5.022-4.1-1.646-1.814-3.313-3.759-3.4-6.13,3.111,4.316,5.681,8.085,11.338,9.983,4.281,1.436,9.279-.658,12.568-2.967A14.441,14.441,0,0,0,83.047,54.3C86.677,49.074,88.37,41.622,88,34.4c-.153-2.979-.147-5.947-1.146-7.951-1.045-2.1-4.578-3.97-6.646-2.075-.383-2.038,1.72-3.3,4.19-2.565-1.761-2.275-3.61-5.006-6.113-6.419ZM86.4,82.6c3.406-1.693,9.771-4.558,11.906.006a38.709,38.709,0,0,1,2.121,6.263c.576,2.45-.625,7.6-3.144,8.422a14.937,14.937,0,0,1-7.5.144,4.089,4.089,0,0,1-.913-1.2,10.352,10.352,0,0,0-5.216.889c.143,1.415-.814,1.642-1.711,1.933-.665,2.637,1.331,6.082.853,8.486-.341,1.713-2.448,1.978-4,2.3a13.182,13.182,0,0,0,.174,2.552c-.354,1.305-1.943,2.048-3.449,2.23-4.952.595-12.473.863-17.237-.851-1.329-3.261-2.377-7.228-3.484-10.951-4.646.5-8.4-2-11.947-3.643-1.227-.569-2.924-.882-3.381-1.858-.444-.946-.263-2.757-.373-4.469A67.891,67.891,0,0,0,37.432,79.8c-.518-2.008-1.422-3.781-2.052-5.716a41.319,41.319,0,0,1-1.865-5.8c-.393-2.651,2.1-2.8,3.7-3.947,2.468-1.776,4.4-2.758,7.076-4.361.792-.475,3.178-1.676,3.449-2.23.539-1.1-.926-2.644-1.318-3.5a10.542,10.542,0,0,1-1.032-3.858,7.441,7.441,0,0,1-4.967-3.192c-1.7-2.489-2.876-7.095-1.407-10.6.115-.276.69-.818.775-1.242.167-.834-.315-1.944-.345-2.832-.154-4.553.77-8.476,3.835-9.85,1.244-4.957,5.7-6.606,9.894-9.069a31.094,31.094,0,0,1,5.083-2.166c6.406-2.357,16.234-1.914,21.55,2.107,2.254,1.705,5.858,5.305,7.146,7.912,3.4,6.881,3.162,18.382.782,26.752A26.923,26.923,0,0,1,86.3,52.329c-.452.943-1.857,2.829-1.686,3.661.176.86,3.2,3.159,3.852,3.785,1.169,1.127,3.39,2.624,3.569,4.047.193,1.514-.667,3.585-1.1,5.047C89.479,73.746,88.057,78.254,86.4,82.6" transform="translate(-15.563)" fill="#231f20"/>
    <path id="Path_16349" data-name="Path 16349" d="M122.926,124.646c.185-.246,1.2-.619,2.622.065,0,0-1.685.28-1.544,3.09l-.7-.141s-.726-2.547-.376-3.014" transform="translate(-74.81 -75.8)" fill="#f7e4cd"/>
    <path id="Path_16350" data-name="Path 16350" d="M156.608,195.419a.772.772,0,1,1-.772-.772.772.772,0,0,1,.772.772m.772,3.58a.772.772,0,1,1-.772-.773.773.773,0,0,1,.772.773" transform="translate(-96.182 -122.429)" fill="#1d1919"/>
  </g>
</svg>
