<svg xmlns="http://www.w3.org/2000/svg" width="76" height="74.007" viewBox="0 0 76 74.007">
  <g id="kubernets" transform="translate(-0.532 -0.165)">
    <path id="Path_16401" data-name="Path 16401" d="M27.621,75.545a5.8,5.8,0,0,1-4.57-2.211L5.852,51.957a5.769,5.769,0,0,1-1.13-5.013l6.143-26.684a5.812,5.812,0,0,1,3.194-3.98L38.924,4.388a5.833,5.833,0,0,1,5.111,0L68.9,16.232a5.813,5.813,0,0,1,3.194,3.98L78.237,46.9a5.928,5.928,0,0,1-1.13,5.013l-17.2,21.376a5.949,5.949,0,0,1-4.57,2.211l-27.715.049Z" transform="translate(-2.825 -2.553)" fill="#326de6"/>
    <path id="Path_16402" data-name="Path 16402" d="M38.605,2.475a4.806,4.806,0,0,1,2.015.442L65.486,14.76a4.772,4.772,0,0,1,2.555,3.194l6.143,26.684a4.6,4.6,0,0,1-.934,4.03l-17.2,21.377a4.682,4.682,0,0,1-3.686,1.769H24.8a4.682,4.682,0,0,1-3.686-1.769L3.912,48.667a4.918,4.918,0,0,1-.934-4.03L9.121,17.954a4.693,4.693,0,0,1,2.555-3.194L36.542,2.868a5.917,5.917,0,0,1,2.064-.393Zm0-2.31a7.439,7.439,0,0,0-3.047.688L10.693,12.745A6.959,6.959,0,0,0,6.86,17.512L.717,44.2a6.968,6.968,0,0,0,1.376,6l17.2,21.376a6.942,6.942,0,0,0,5.455,2.6H52.316a6.942,6.942,0,0,0,5.455-2.6l17.2-21.377a6.932,6.932,0,0,0,1.376-6L70.2,17.512a6.959,6.959,0,0,0-3.833-4.767L41.6.853a7.05,7.05,0,0,0-3-.688Z" transform="translate(0)" fill="#fff"/>
    <path id="Path_16403" data-name="Path 16403" d="M91.978,69.326h-.049c-.049,0-.1,0-.1-.049-.1,0-.2-.049-.295-.049a6.72,6.72,0,0,0-.934-.1,1.835,1.835,0,0,1-.492-.049h-.049a12.965,12.965,0,0,1-2.654-.442.959.959,0,0,1-.541-.541c0-.049-.049-.049-.049-.1l-.639-.2a19.438,19.438,0,0,0-.344-6.929,20.248,20.248,0,0,0-2.752-6.437l.492-.442v-.1a1.112,1.112,0,0,1,.245-.737,14.337,14.337,0,0,1,2.212-1.523c.147-.1.295-.147.442-.246a7.358,7.358,0,0,0,.835-.491c.049-.049.147-.1.246-.2.049-.049.1-.049.1-.1A1.641,1.641,0,0,0,88,48.392a1.4,1.4,0,0,0-1.13-.54,1.826,1.826,0,0,0-1.081.393l-.1.1c-.1.049-.148.148-.246.2a8.119,8.119,0,0,0-.639.688,2.258,2.258,0,0,1-.344.344,12.491,12.491,0,0,1-1.966,1.769.792.792,0,0,1-.442.148.621.621,0,0,1-.295-.049h-.1l-.59.393a23.885,23.885,0,0,0-2.015-1.867,19.625,19.625,0,0,0-10.271-4.079l-.049-.639-.1-.1a1.028,1.028,0,0,1-.393-.639,17.263,17.263,0,0,1,.148-2.654v-.049a1.748,1.748,0,0,1,.1-.492c.049-.295.1-.59.148-.934V39.94a1.5,1.5,0,0,0-2.6-1.13,1.558,1.558,0,0,0-.442,1.13v.393a2.864,2.864,0,0,0,.147.934c.049.148.049.295.1.492v.049a12.709,12.709,0,0,1,.148,2.654,1.028,1.028,0,0,1-.393.639l-.1.1-.049.639a24.641,24.641,0,0,0-2.654.393,18.946,18.946,0,0,0-9.73,5.5l-.492-.344h-.1c-.1,0-.2.049-.295.049a.794.794,0,0,1-.442-.147,13.028,13.028,0,0,1-1.966-1.818,2.258,2.258,0,0,0-.344-.344,8.127,8.127,0,0,0-.639-.688c-.049-.049-.147-.1-.245-.2-.049-.049-.1-.049-.1-.1a1.717,1.717,0,0,0-1.081-.393,1.4,1.4,0,0,0-1.13.541,1.641,1.641,0,0,0,.344,2.211c.049,0,.049.049.1.049.1.049.148.147.246.2a7.453,7.453,0,0,0,.835.492,1.983,1.983,0,0,1,.442.246A14.328,14.328,0,0,1,50.4,53.011a.9.9,0,0,1,.246.737v.1l.491.442a1.736,1.736,0,0,0-.246.393,19.14,19.14,0,0,0-2.752,12.973l-.639.2c0,.049-.049.049-.049.1a1.141,1.141,0,0,1-.541.541,12.4,12.4,0,0,1-2.653.442h-.049a1.672,1.672,0,0,0-.491.049,6.72,6.72,0,0,0-.934.1c-.1,0-.2.049-.295.049a.181.181,0,0,0-.148.049A1.611,1.611,0,0,0,41.068,71a1.515,1.515,0,0,0,1.572,1.131,1.078,1.078,0,0,0,.393-.049c.049,0,.1,0,.1-.049.1,0,.2-.049.295-.049a4.709,4.709,0,0,0,.885-.344c.147-.049.295-.148.442-.2H44.8a12.051,12.051,0,0,1,2.556-.737h.1a1.092,1.092,0,0,1,.639.246c.049,0,.049.049.1.049l.688-.1a19.437,19.437,0,0,0,6.437,9.238,19.929,19.929,0,0,0,2.113,1.425l-.295.639c0,.049.049.049.049.1a1.01,1.01,0,0,1,.1.786,13.826,13.826,0,0,1-1.278,2.31v.049c-.1.148-.2.246-.295.393-.2.246-.344.492-.541.786a1.069,1.069,0,0,0-.147.246.171.171,0,0,1-.049.1,1.554,1.554,0,0,0,.639,2.113,1.309,1.309,0,0,0,.59.148,1.767,1.767,0,0,0,1.474-.934.171.171,0,0,1,.049-.1,1.082,1.082,0,0,1,.147-.246,9.232,9.232,0,0,0,.295-.885l.148-.442a11.554,11.554,0,0,1,1.032-2.457,1.263,1.263,0,0,1,.639-.442c.049,0,.049,0,.1-.049l.344-.639a19.2,19.2,0,0,0,6.88,1.278,17.841,17.841,0,0,0,4.276-.491,21.838,21.838,0,0,0,2.555-.737l.295.541c.049,0,.049,0,.1.049a.911.911,0,0,1,.639.442A16.827,16.827,0,0,1,76.2,86.575v.049l.148.442a6.227,6.227,0,0,0,.295.885c.049.1.1.148.148.246a.171.171,0,0,0,.049.1,1.669,1.669,0,0,0,1.474.934,1.309,1.309,0,0,0,.59-.148,1.465,1.465,0,0,0,.737-.885,1.779,1.779,0,0,0-.1-1.229c0-.049-.049-.049-.049-.1a1.083,1.083,0,0,0-.147-.246,4.459,4.459,0,0,0-.541-.786c-.1-.147-.2-.245-.295-.393V85.4a11,11,0,0,1-1.278-2.31,1.37,1.37,0,0,1,.049-.786c0-.049.049-.049.049-.1l-.246-.59a19.492,19.492,0,0,0,8.551-10.762l.59.1c.049,0,.049-.049.1-.049a1.251,1.251,0,0,1,.639-.245h.1a12.054,12.054,0,0,1,2.556.737h.049c.147.049.295.147.442.2a4.734,4.734,0,0,0,.885.344c.1,0,.2.049.295.049a.18.18,0,0,1,.147.049,1.084,1.084,0,0,0,.393.049,1.654,1.654,0,0,0,1.572-1.13,1.891,1.891,0,0,0-1.425-1.622ZM69.226,66.918,67.064,67.95,64.9,66.918l-.54-2.309,1.474-1.867h2.408l1.474,1.867-.491,2.309Zm12.826-5.11A15.5,15.5,0,0,1,82.4,66.77l-7.519-2.162a1.332,1.332,0,0,1-.934-1.572,1.171,1.171,0,0,1,.295-.541l5.946-5.357a15.759,15.759,0,0,1,1.867,4.668Zm-4.226-7.617-6.437,4.57a1.309,1.309,0,0,1-1.72-.295,1.1,1.1,0,0,1-.246-.541l-.442-8.01A14.915,14.915,0,0,1,77.826,54.191ZM63.575,50.16c.541-.1,1.032-.2,1.572-.295l-.442,7.862a1.345,1.345,0,0,1-1.327,1.278,1.169,1.169,0,0,1-.59-.147l-6.536-4.668a14.991,14.991,0,0,1,7.322-4.03Zm-9.681,6.978,5.848,5.209a1.308,1.308,0,0,1,.148,1.818.981.981,0,0,1-.59.393L51.683,66.77a15.82,15.82,0,0,1,2.211-9.632ZM52.567,70.456l7.814-1.327a1.325,1.325,0,0,1,1.376,1.032,1.406,1.406,0,0,1-.049.786l-3,7.224a15.49,15.49,0,0,1-6.143-7.715ZM70.5,80.235a16.048,16.048,0,0,1-3.44.393,16.642,16.642,0,0,1-4.963-.786l3.882-7.027a1.29,1.29,0,0,1,1.572-.344,2.1,2.1,0,0,1,.59.54l3.784,6.831c-.442.147-.934.246-1.425.393ZM80.086,73.4a15.6,15.6,0,0,1-4.717,4.767l-3.1-7.421a1.323,1.323,0,0,1,.688-1.523,1.57,1.57,0,0,1,.688-.147l7.863,1.327A9.892,9.892,0,0,1,80.086,73.4Z" transform="translate(-28.458 -26.801)" fill="#fff"/>
  </g>
</svg>
