<svg xmlns="http://www.w3.org/2000/svg" width="25" height="17.187" viewBox="0 0 25 17.187"><g transform="translate(0)"><path d="M24.9,8.03c-.166-.186-2.454-3.064-2.857-3.552s-.6-.4-.847-.364-3.143.525-3.479.581-.548.192-.341.483c.183.259,2.087,2.968,2.507,3.565l-7.567,1.821L6.3.459C6.056.1,6.007-.022,5.462,0S.741.376.444.4-.18.559.118,1.265,5.158,12.234,5.29,12.532a1.015,1.015,0,0,0,1.281.589c.824-.2,3.684-.949,5.246-1.359.825,1.5,2.509,4.546,2.821,4.983.415.583.7.486,1.34.292.5-.152,7.8-2.787,8.125-2.923s.531-.233.309-.564c-.164-.243-2.088-2.833-3.1-4.188l3.408-.912c.3-.083.347-.233.181-.421ZM11.142,10.856c-.091.019-4.329,1.039-4.555,1.09s-.226.025-.252-.052S1.3,1.432,1.226,1.3s-.066-.233,0-.233,4-.354,4.142-.361.125.022.176.111l5.65,9.795c.1.169.039.221-.052.24ZM23.092,13.1c.067.107.135.174-.077.252s-7.174,2.437-7.309,2.5-.242.078-.415-.175-2.438-4.189-2.438-4.189l7.378-1.929c.183-.058.242-.1.358.088s2.436,3.35,2.5,3.457Zm.473-5.261c-.166.037-2.875.711-2.875.711L18.474,5.5c-.062-.088-.114-.176.041-.2s2.673-.478,2.786-.5.212-.057.351.135,2.056,2.628,2.128,2.721-.052.151-.218.186Z" transform="translate(0 0)"/></g></svg>