<svg xmlns="http://www.w3.org/2000/svg" width="76" height="85.523" viewBox="0 0 76 85.523"><defs><style>.a{fill:#664f44;}.b{fill:#132134;}.c{fill:#90694c;}.d{fill:#2f83c1;}.e{fill:#fce9cd;}.f{fill:#4d9ed7;}.g{fill:#fff;}.h{fill:#f2d2ac;}.i{fill:#e9b784;}.j{fill:#ffd250;}</style></defs><g transform="translate(0.07 -0.07)"><g transform="translate(-0.07 0.07)"><path class="a" d="M72.873,77.745a1.424,1.424,0,0,1-2.441-1.017,1.359,1.359,0,0,1,.441-1.051,1.327,1.327,0,0,1,.983-.373,1.39,1.39,0,0,1,1.424,1.424,1.164,1.164,0,0,1-.407,1.017m-1.831-1.865a1.1,1.1,0,0,0-.339.814,1.187,1.187,0,1,0,2.373,0,1.051,1.051,0,0,0-.339-.814,1.155,1.155,0,0,0-.847-.373,1.3,1.3,0,0,0-.848.373M72.33,77.44a.651.651,0,0,1-.407.136.794.794,0,0,1-.576-.237.817.817,0,0,1-.237-.61.946.946,0,0,1,.2-.61.7.7,0,0,1,.576-.237.9.9,0,0,1,.407.1.7.7,0,0,1,.339.542h-.373c-.034-.1-.068-.2-.136-.237a.482.482,0,0,0-.2-.068.308.308,0,0,0-.271.136.723.723,0,0,0-.1.407.545.545,0,0,0,.1.373.418.418,0,0,0,.271.136.49.49,0,0,0,.237-.068l.1-.2H72.6a.663.663,0,0,1-.271.441m3.593-15.052c0-.136-.034-.271-.034-.407,0-.1-.034-.17-.034-.237a3.546,3.546,0,0,0-.136-.576,3.281,3.281,0,0,0-.61-1.051,3.394,3.394,0,0,0-.881-.712,4.629,4.629,0,0,0-.949-.339c-.1,0-.17-.034-.237-.034a5.018,5.018,0,0,0-.407-3.458l.068-.068a15.482,15.482,0,0,0,1.051-1.153l.068-.068A3.706,3.706,0,0,0,74.3,53.3a3.164,3.164,0,0,0,.136-.746v-.644a4.886,4.886,0,0,0-.441-1.865A4.8,4.8,0,0,0,73.28,49a4.156,4.156,0,0,0-1.119-.881c-.034-.034-.068-.034-.1-.068A16.533,16.533,0,0,0,69.211,44.9c-.475-.407-.915-.746-1.288-1.017s-.678-.475-.848-.61a5.855,5.855,0,0,0-.848-.542,8.318,8.318,0,0,1-.712-.475,2.5,2.5,0,0,0-.2-.169.262.262,0,0,0-.034-.1,1.668,1.668,0,0,1-.034-.475c0-.339,0-.847.034-1.526.068-1.085.169-2.543.305-4.543.034-.644.034-1.254.034-1.8a13.221,13.221,0,0,0-.339-2.475c-.034-.169-.1-.339-.136-.508a1.148,1.148,0,0,0-.1-.271,2.338,2.338,0,0,0-.136-.339c-.034-.068-.034-.136-.1-.2a3.421,3.421,0,0,0-.237-.509l-.034-.034-.034-.1-.034-.068a4.965,4.965,0,0,0-.576-.814,12.39,12.39,0,0,0-.576-1.932,11.049,11.049,0,0,0-1.119-2.17,6.236,6.236,0,0,0-.576-.746l.068-.068a34.792,34.792,0,0,0,4.373-5.865c3.492-6.068,2.339-9.763.746-11.8l-.034-.068-.034-.068a9.779,9.779,0,0,0-6.17-3.051c-5.322-.678-11.357,1.966-12.95,2.712L44.7,2.08a5.81,5.81,0,0,0-.848-.746,9.339,9.339,0,0,0-.983-.576,7.769,7.769,0,0,0-2.237-.61,14.576,14.576,0,0,0-5.39.509,37.441,37.441,0,0,0-9.7,4.305,66.486,66.486,0,0,0-10.543,7.933,62.912,62.912,0,0,0-10.373,11.9,35.16,35.16,0,0,0-3.119,5.661A19.286,19.286,0,0,0,.021,35.54a9.212,9.212,0,0,0,.1,3.221A6.139,6.139,0,0,0,1.479,41.4L4.5,44.557l.339.339L4.8,44.93l-.1.2a1.892,1.892,0,0,1-.17.271l-.1.2c-.034.1-.1.2-.136.305l-.1.2c-.034.1-.1.2-.136.305a.482.482,0,0,0-.068.2l-.1.305c-.034.068-.034.136-.068.2-.034.1-.068.2-.1.339,0,.034-.034.068-.034.1s-.034.068-.034.1c-.034.1-.068.237-.1.339,0,.068-.034.136-.034.2,0,.034-.034.1-.034.136,0,.068-.034.136-.034.2s-.034.136-.034.2c-.034.136-.034.271-.068.441a.256.256,0,0,1-.034.136v.034c0,.1-.034.2-.034.271,0,.136-.034.305-.034.441v1.7a.43.43,0,0,0,.034.2.842.842,0,0,0,.034.271v.1c0,.068.034.169.034.237s.034.136.034.237a.125.125,0,0,0,.034.1c0,.034.034.1.034.136v.068a1.525,1.525,0,0,0,.068.271c0,.034,0,.034.034.068a.369.369,0,0,1,.034.17l.034.068c0,.034,0,.034.034.068l.034.068v.1c0,.034,0,.034.034.068l.034.068c0,.068.034.1.034.17a1.538,1.538,0,0,1,.068.271v0c0,.034,0,.034.034.068a1.333,1.333,0,0,1,.068.2,1.148,1.148,0,0,1,.1.271l.034.034c.034.068.034.136.068.169l.034.068c0,.034.034.068.034.1a.257.257,0,0,0,.068.136l.034.068c.034.034.034.1.068.136a.125.125,0,0,1,.034.1,1.653,1.653,0,0,1,.1.237l.034.034c.034.034.034.068.068.1s.034.1.068.136a.552.552,0,0,1,.1.2l.034.034c.034.034.034.068.068.1.034.068.068.1.068.136a.741.741,0,0,1,.1.169v.034c.034.034.034.068.068.1a.468.468,0,0,0,.1.136,2.008,2.008,0,0,1,.136.2c.034.034.068.068.068.1a.468.468,0,0,0,.1.136.741.741,0,0,1,.1.169c.034.034.068.1.1.136a.265.265,0,0,0,.136.136l.1.1.034.034c.068.068.1.136.17.2l.068.068.1.1.2.2.068.068.1.1.034.034A1.566,1.566,0,0,1,7,59.338l.034.034c.034.034.068.034.1.1.1.1.2.17.305.271l.068.034.034.034.068.034c.1.068.17.136.271.2l.034.034a.1.1,0,0,0,.068.034l.068.068c.068.068.136.1.2.169l.068.034.068.068.034.034c.068.034.17.1.237.136a.176.176,0,0,0,.136.068l.068.034.034.034h.034a2.981,2.981,0,0,1,.339.2L9.344,61l.407.2h.034l.068.034.2.1c.034,0,.068.034.1.034.034.034.068.034.136.068h.034a.482.482,0,0,0,.2.068h.034a1.652,1.652,0,0,0,.237.1h.034l.068.034c.034,0,.068.034.1.034h.034c.1.034.2.068.339.1h.034a2.824,2.824,0,0,0,.509.136h.034c.136.034.305.068.441.1h.136a1.7,1.7,0,0,0,.407.068h.136c.1,0,.17.034.271.034,0,.034.034.068.034.1.237.644.475,1.288.746,1.9,4,11.085,15.086,19.7,27.73,21.289C54.5,86.966,68.025,78.559,73.517,67.2c.237-.441.441-.848.644-1.288a6.516,6.516,0,0,0,1.254-1.763,2.207,2.207,0,0,0,.508-1.763M5.717,57.982h0" transform="translate(0.07 -0.07)"/></g><path class="b" d="M69.355,11.25a6.662,6.662,0,0,0-2.1-1.559,1.678,1.678,0,0,0-.441-.136c-.068-.034-.136-.1-.2-.136a8.977,8.977,0,0,0-2.136-.542c-3.661-.475-7.865.881-10.238,1.831-.136.068-.271.1-.407.17-.2.1-.407.17-.61.271-.339.136-.678.305-1.051.475-.068.034-.1.034-.17.068l-.644-.746-.305-.339-.271-.305-.1-.136L48.2,7.318,48,7.081l-.271-.305h-.034l-.712.17-.814.17a6.364,6.364,0,0,0-1.593-.441,12.5,12.5,0,0,0-4.543.441,29.486,29.486,0,0,0-5.865,2.271,60.613,60.613,0,0,0-13.458,9.458c-1.593,1.424-3.051,2.915-4.407,4.373-1.322,1.424-2.509,2.882-3.593,4.271a39.777,39.777,0,0,0-4.949,8.17,17.291,17.291,0,0,0-1.322,4.509A6.557,6.557,0,0,0,6.5,42.642c.068.237.136.407.2.61A3.646,3.646,0,0,0,7.352,44.3L10.1,47.185l.305.305.034-.034a1.032,1.032,0,0,1,.271-.271l.034-.034.1-.1c.068-.1.17-.17.237-.271a.6.6,0,0,1,.17-.136c.068-.034.1-.1.169-.136l.068-.068c.068-.034.1-.1.17-.136.068-.068.17-.136.237-.2.034-.034.1-.068.136-.1h.034c.1-.068.17-.136.271-.2a.6.6,0,0,0,.17-.136c.1-.068.17-.136.271-.2.068-.034.1-.068.17-.1a1.374,1.374,0,0,1,.305-.169c.068-.034.1-.068.17-.1.1-.068.2-.1.305-.17.068-.034.1-.068.169-.1l.068-.034c.1-.034.17-.1.271-.136.034-.034.1-.034.136-.068a1.654,1.654,0,0,1,.237-.1l.2-.1.068-.034.509-.2c.068-.034.1-.034.17-.068s.1-.034.17-.068l.068-.034c.034,0,.068-.034.1-.034a2.159,2.159,0,0,1,.237-.068H16.2c.1-.034.169-.034.271-.068.068-.034.17-.034.237-.068.1-.034.2-.034.305-.068.034,0,.068-.034.136-.034a.2.2,0,0,0,.136-.034.939.939,0,0,1,.305-.034c.1,0,.169-.034.271-.034.068,0,.136-.034.2-.034h.271c.339,0,.746,0,1.153.034h.068a10.987,10.987,0,0,1,1.356.2c.1.034.237.034.339.068.034-.034.034-.1.068-.136.271-.441.509-.915.78-1.356a51.453,51.453,0,0,1,4.814-6.746c.576-.678,1.153-1.288,1.729-1.9a44.941,44.941,0,0,1,6.983-5.933c.475-.339.983-.644,1.424-.949.644-.407,1.254-.746,1.831-1.085.475-.271.915-.509,1.356-.712q1.068-.559,1.932-.915l.509-.2c.237-.1.475-.2.678-.271a2.916,2.916,0,0,0-.542-.034h-.678a2.916,2.916,0,0,0-.542.034c-.339.034-.712.068-1.085.1-.136.034-.237.034-.373.068a17.075,17.075,0,0,1,2.678-1.085c.576-.17,1.153-.305,1.7-.407a17.03,17.03,0,0,1,2.1-.271c.441-.034.848-.034,1.22-.034S48.575,22,48.88,22a10.878,10.878,0,0,1,1.8.237,3.091,3.091,0,0,0-.576-.576,5.7,5.7,0,0,0-1.254-.678c-.169-.068-.305-.1-.441-.17a1.048,1.048,0,0,0-.271-.068,3.38,3.38,0,0,1,.542-.068c.2-.034.373-.034.576-.068a16.779,16.779,0,0,1,4.068.169,12.522,12.522,0,0,1,2.034.542,3.167,3.167,0,0,0-.746-.915,7.822,7.822,0,0,0-.644-.475c.441.1.814.2,1.22.339a20.131,20.131,0,0,1,2.543.983l.61.305c.068.034.1.068.136.068.61.339.949.576.949.576a2.551,2.551,0,0,0-.576-1.017c-.068-.068-.136-.17-.2-.237h.034c.034,0,.068.034.136.034a.573.573,0,0,1,.17.068,12.358,12.358,0,0,1,1.153.508c.034,0,.034.034.068.034l.2.1a4.037,4.037,0,0,1,.508.305l.509.305c.1.068.169.1.271.169a6.191,6.191,0,0,1,.542.441c.2.17.373.339.542.509l.1.1a4.063,4.063,0,0,1,.373.407,8.393,8.393,0,0,1,.644.881,7.079,7.079,0,0,1,.576,1.254c0,.034,0,.068.034.068.1-.1.305-.305.542-.576,1.966-2.305,7.865-9.763,4.305-14.306" transform="translate(-4.246 -4.322)"/><g transform="translate(5.242 21.505)"><path class="c" d="M84.248,104.421a1.727,1.727,0,0,0-.2-.983.118.118,0,0,0-.034-.068l-.034-.034-.1-.1a1.473,1.473,0,0,0-.237-.2.74.74,0,0,0-.169-.1,2.328,2.328,0,0,0-.576-.17,2.741,2.741,0,0,0-.542-.034h-.271v.068c0,.034.034.068.034.136,0,.034,0,.068.034.068.034.1.068.271.1.407a.262.262,0,0,1-.034.1v.034A5.469,5.469,0,0,1,81.231,105a3.375,3.375,0,0,1-.339.373c-1.7,1.763-5.356,4.238-13.085,5.627a26.463,26.463,0,0,1-7.085.136c-3.051-.373-5.322-1.356-6.407-2.678-.1-.1-.169-.237-.271-.339-.068-.1-.1-.169-.169-.271-.034-.034-.034-.068-.068-.1a5.344,5.344,0,0,1-.644-2.543,4.762,4.762,0,0,1,.881-2.78,3.265,3.265,0,0,1,1.729-1.288A2.9,2.9,0,0,1,56.856,101a1.168,1.168,0,0,1,.305.034c.237.034.61.068,1.051.136a.2.2,0,0,1,.136.034,36.2,36.2,0,0,0,6.543.237,28.622,28.622,0,0,0,17.831-7.39v-.034a2.639,2.639,0,0,0-.61-1.932,3.058,3.058,0,0,0-.339-.305c-.068-.068-.169-.1-.237-.169a1.475,1.475,0,0,1-.237-.136l-.305-.2v-.034a.71.71,0,0,0-.136-.2,16.832,16.832,0,0,0-4.61-4.407,4.986,4.986,0,0,0-.678-.441c-1.865-1.153-2.136-1.525-1.966-4.61.068-1.119.169-2.576.305-4.577,0-.271.034-.508.034-.746v-.983c0-.169-.034-.339-.034-.475a.43.43,0,0,0-.034-.2c-.034-.169-.034-.339-.068-.509,0-.068-.034-.169-.034-.237a.8.8,0,0,0-.068-.271c-.034-.068-.034-.17-.068-.237a.989.989,0,0,1-.068-.305c0-.034-.034-.068-.034-.1s-.034-.068-.034-.1v-.034l-.034-.1a.482.482,0,0,1-.068-.2v-.034l-.034-.068-.034-.068a3.98,3.98,0,0,0-.17-.373l-.034-.1c-.068-.1-.136-.237-.2-.339l-.034-.034-.034-.034c-.068-.068-.1-.136-.169-.2l-.068-.1a1.473,1.473,0,0,0-.2-.237v-.271c-.034-.136-.068-.305-.1-.475,0-.034-.034-.1-.034-.136v-.034c0-.068-.034-.1-.034-.169a1.91,1.91,0,0,0-.136-.407c0-.034-.034-.1-.034-.136l-.1-.305c-.034-.068-.034-.136-.068-.169a1.2,1.2,0,0,0-.136-.305l-.1-.2c-.034-.1-.1-.2-.136-.305l-.1-.2c-.068-.1-.1-.2-.169-.305l-.1-.2a2.978,2.978,0,0,1-.2-.339c-.034-.068-.068-.1-.1-.169-.034-.034-.068-.1-.1-.136-.1-.1-.169-.2-.271-.305l-.068-.034a3.869,3.869,0,0,0-.373-.373l-.034-.034a.74.74,0,0,1-.17-.136h-.034c-.068-.034-.1-.068-.169-.1l-.034-.034c-.068-.034-.17-.1-.305-.17-.034-.034-.1-.034-.169-.068-.305-.1-.678-.237-1.153-.373a.125.125,0,0,1-.1-.034,10.656,10.656,0,0,0-1.288-.271c-.17-.034-.305-.034-.475-.068a.662.662,0,0,1-.237-.034h-.1c-.373-.034-.712-.068-1.085-.068h-.034a6.239,6.239,0,0,0-1.39.136,2.363,2.363,0,0,1,.678-.542,7.444,7.444,0,0,1,.712-.339,3.735,3.735,0,0,0-.61.068c-.068,0-.136.034-.2.034a.2.2,0,0,0-.136.034H63.67a.125.125,0,0,0-.1.034,17.505,17.505,0,0,0-2.644.848l-.2.1h-.034a.306.306,0,0,0-.17.034,3,3,0,0,1,1.492-1.39c.068-.034.17-.068.237-.1.034,0,.034,0,.068-.034.068-.034.136-.034.169-.068a.593.593,0,0,1,.169-.034h-.542a8.084,8.084,0,0,0-3.085,1.017A12.33,12.33,0,0,0,57.4,65.4a1.442,1.442,0,0,1-.373.068c-1.288.271-2.746.61-4.271,1.085-.576.169-1.153.373-1.729.576-.441.169-.915.339-1.356.508-.339.136-.644.271-.983.407a23.12,23.12,0,0,0-6.611,4.305l-.2.2-.508.508-.2.2a1.936,1.936,0,0,1-.237.271,13.842,13.842,0,0,0-1.051,1.322,11.687,11.687,0,0,0-.678,1.085l-.034.034a14.156,14.156,0,0,0-1.153,2.509c-.17.441-.305.915-.441,1.39-.034.136-.068.237-.1.373l-.034.068a12.035,12.035,0,0,0-.305,1.593c0,.1-.034.2-.034.339a6.6,6.6,0,0,0-.068.848,6,6,0,0,0-.034.78v1.051a8.261,8.261,0,0,0,.034.915v.034c0,.305.034.61.068.949,0,.136.034.271.034.407v.1a.662.662,0,0,0,.034.237c.034.339.1.712.136,1.085,0,.1.034.2.034.305.068.305.1.644.17.949a5.1,5.1,0,0,1-.034-1.017c0-.136.034-.305.034-.441a4.727,4.727,0,0,1,.237-1.119l.1-.305c0-.034.034-.068.068-.136a4.047,4.047,0,0,1,.271-.542c.034.136.034.271.068.373v1.8a23.558,23.558,0,0,0,.373,3.729s.034-2.136.407-2.407a42.229,42.229,0,0,0,1.22,5.492,1.71,1.71,0,0,0,.237.441V95.37l-.068-2.2v-.237c.441.915.949,1.831,1.526,2.814.169.271.305.542.475.814a11.939,11.939,0,0,0-2.848,3.966c-.1.271-.237.542-.339.814-.068.169-.1.305-.17.475,0,.034-.034.1-.034.136-.034.1-.068.237-.1.339,0,.068-.034.1-.034.17-.034.1-.068.237-.1.339,0,.068-.034.1-.034.169l-.1.509a2.617,2.617,0,0,0-.068.508.306.306,0,0,1-.034.169c0,.136-.034.237-.034.373a.43.43,0,0,1-.034.2c0,.136-.034.237-.034.373v1.187a2.085,2.085,0,0,0,.034.441v.1a3.38,3.38,0,0,0,.068.542.306.306,0,0,0,.034.17,1.442,1.442,0,0,0,.068.373c0,.068.034.136.034.2.034.1.034.237.068.339,0,.068.034.136.034.2a1,1,0,0,1,.068.339,2.161,2.161,0,0,1,.068.237c.034.1.068.237.1.339.034.068.034.136.068.2.034.1.068.237.1.339.034.068.034.136.068.2.034.136.1.271.136.373.034.068.034.1.068.169l.509,1.119c.034.068.068.1.1.169l.2.407a.709.709,0,0,0,.136.2c.068.1.136.237.2.339.034.068.1.136.136.2a2.056,2.056,0,0,0,.237.339,1.435,1.435,0,0,1,.169.237c.068.1.17.237.237.339a1.436,1.436,0,0,1,.169.237c.1.1.17.237.271.339.068.068.1.136.17.2a3.377,3.377,0,0,0,.339.373l.17.169c.169.17.339.373.508.542a2.913,2.913,0,0,1-.237-.407.259.259,0,0,1-.068-.169l-.1-.2a1.652,1.652,0,0,1-.1-.237,5.689,5.689,0,0,1-.475-2.441l.305.407c.1.237.271.542.441.881a1.584,1.584,0,0,1,.169.339c.271.475.542,1.017.881,1.526.407.644.814,1.254,1.254,1.831a12.208,12.208,0,0,1-.678-1.8,1.227,1.227,0,0,1-.034-.475c.034.034.068.1.136.136.034.034.068.1.136.136q.1.153.305.407l.068.068c.068.068.1.169.169.237a1.865,1.865,0,0,0,.237.305,29.591,29.591,0,0,0,2.373,2.78,3.718,3.718,0,0,0,.576.441l-.983-1.763c2.237,1.831,11.526,4.17,20.645,1.559a23.858,23.858,0,0,0,3.288-1.187c.644-.271,1.288-.61,1.932-.949l.1-.068c.441-.237.881-.508,1.322-.78.339-.2.678-.441.983-.644q.814-.559,1.627-1.22c.034-.034.068-.068.1-.068a18.966,18.966,0,0,0,1.458-1.39,20.517,20.517,0,0,0,1.627-1.932l.034-.034a4.112,4.112,0,0,0,.339-.475l.034-.034c.034-.068.068-.1.1-.169.17-.237.305-.441.475-.678.034-.068.068-.1.1-.17a2.28,2.28,0,0,1,.237-.373c.068-.1.1-.169.17-.271a1.374,1.374,0,0,0,.17-.305c.1-.169.2-.373.305-.542l.1-.2.2-.407.1-.2.034-.068c.068-.169.169-.339.237-.509v-.034a7.1,7.1,0,0,0,.712-.78c.034-.034.068-.068.068-.1a5.579,5.579,0,0,0,.339-1.627M29.7,97.844a.256.256,0,0,0-.034-.136,15.291,15.291,0,0,1-.237-1.8v-.136c-.1.034-.2.169-.339.339a1.475,1.475,0,0,0-.136.237,11.072,11.072,0,0,0-.576,1.39,6.584,6.584,0,0,0,.068-.814v-.1c.034-.271.068-.576.1-.848v-.1a7.884,7.884,0,0,1,.17-.949.256.256,0,0,1,.034-.136v-.034a.125.125,0,0,1,.034-.1c0-.068.034-.1.034-.17.034-.237.1-.475.136-.712.034-.2.068-.407.1-.576v-.068c0-.034,0-.068.034-.068V93c0-.034.034-.1.034-.136a.125.125,0,0,1,.034-.1,1.467,1.467,0,0,1,.034-.169c0-.034.034-.1.034-.136a1.469,1.469,0,0,1,.034-.17.125.125,0,0,1,.034-.1c0-.034,0-.068.034-.068,0-.068.034-.1.034-.136v-.1l-.068.068c-.068.034-.1.1-.17.136l-.068.068a.9.9,0,0,0-.17.2l-.034.034-.2.305-.034.034c0,.034-.034.034-.034.068l-.1.2v.068c-.034.1-.1.2-.136.305-.1.271-.2.542-.271.78-.034.068-.034.17-.068.2a2.762,2.762,0,0,0-.068.305v0a.746.746,0,0,1,.034-.271c0-.169.034-.373.034-.542a1.984,1.984,0,0,1,.068-.441.2.2,0,0,1,.034-.136c0-.068.034-.136.034-.2s.034-.136.034-.2v-.1c0-.068.034-.169.034-.237v-.237a.125.125,0,0,1,.034-.1,1.2,1.2,0,0,0,.068-.339V91.81c.034-.068.034-.17.068-.237v-.034c.034-.17.1-.339.136-.509v-.068a.125.125,0,0,1,.034-.1c.068-.271.17-.542.237-.78v-.034c.068-.2.17-.441.237-.644v-.034c.034-.1.068-.169.1-.271.068-.136.1-.271.17-.407a.882.882,0,0,1,.1-.237c.034-.034.034-.1.068-.136a1.651,1.651,0,0,0,.1-.237l.034-.068.576-1.051c.034-.034.034-.1.068-.136v-.034l.034-.068c.068-.1.136-.237.2-.339.1-.169.169-.339.271-.475.17-.305.305-.576.407-.712a.362.362,0,0,1,.1-.169c-.034,0-.2-.136-.475-.305a15.61,15.61,0,0,0-1.39-.746c-.2-.1-.373-.169-.576-.271-.237-.1-.509-.2-.78-.305-.068-.034-.136-.034-.2-.068-.237-.068-.441-.136-.678-.2-.17-.034-.339-.068-.475-.1s-.271-.034-.407-.068a2825.053,2825.053,0,0,1-.407-.068c-.17,0-.373-.034-.542-.034h-.271a6.34,6.34,0,0,0-1.153.1h-.068a9.866,9.866,0,0,0-1.966.509c-.2.068-.407.169-.644.271-.068.034-.1.068-.169.068l-.2.1a9.594,9.594,0,0,0-1.729,1.153h-.034a8.773,8.773,0,0,0-1.254,1.254l-.305.407a4.416,4.416,0,0,0-.339.508,9.339,9.339,0,0,0-.576.983,1.817,1.817,0,0,0-.17.373c0,.034-.034.034-.034.068a9.357,9.357,0,0,0-.712,2.576c-.034.169-.034.339-.068.542v.068c0,.136-.034.271-.034.441v.61a1.65,1.65,0,0,0,.034.407v.169c0,.1.034.2.034.305v.034a.306.306,0,0,0,.034.169c0,.1.034.2.034.271s.034.136.034.2c.034.1.034.169.068.271a.482.482,0,0,0,.068.2v.034l.034.068V95.1l.034.068c.034.068.034.136.068.2s.034.169.068.237a.49.49,0,0,1,.068.237l.034.068c.034.068.034.1.068.169a1.652,1.652,0,0,1,.1.237l.1.2c.034.034.034.068.068.1s.034.068.068.1l.1.2a.85.85,0,0,0,.136.237.741.741,0,0,0,.1.17c.034.068.1.169.136.237s.068.1.1.169a1.03,1.03,0,0,0,.17.237.468.468,0,0,0,.1.136c.068.068.1.169.17.237.034.034.068.1.1.136.068.068.136.17.2.237a.468.468,0,0,1,.1.136c.068.068.136.17.2.237l.1.1a1.566,1.566,0,0,0,.237.237l.1.1.237.237c.034.034.068.068.1.068.068.068.17.136.271.237.034.034.068.034.1.068.1.068.169.136.271.2.034.034.068.034.068.068l.305.2.068.034.305.2.068.034c.1.068.237.136.339.2l.068.034a1.584,1.584,0,0,0,.339.169l.068.034c.136.068.237.1.373.17l.034.034a3.976,3.976,0,0,1,.373.169h.034c.136.034.271.1.407.136h.034c.068.034.136.034.2.068a2.16,2.16,0,0,0,.237.068h.034c.136.034.305.068.441.1a1.986,1.986,0,0,0,.441.068c.475.068.949.1,1.424.136h.339a2.238,2.238,0,0,0,.475-.034c.2-.034.441-.034.678-.068.2-.034.407-.068.576-.1a6.689,6.689,0,0,0,.881-.237,6.083,6.083,0,0,0,2.1-.949s-.305-1.356-.542-2.712a.787.787,0,0,1-.136-.339" transform="translate(-15.6 -63.3)"/></g><path class="d" d="M45.42,9.93l-.1-1.356L46,7.082l.271-.068a6.364,6.364,0,0,0-1.593-.441,12.5,12.5,0,0,0-4.543.441,29.487,29.487,0,0,0-5.865,2.271,60.613,60.613,0,0,0-13.458,9.458c-1.593,1.424-3.051,2.915-4.407,4.373C15.08,24.541,13.893,26,12.808,27.389a39.777,39.777,0,0,0-4.949,8.17,17.291,17.291,0,0,0-1.322,4.509A6.557,6.557,0,0,0,6.6,42.542c.068.237.136.407.2.61A3.646,3.646,0,0,0,7.452,44.2L10.2,47.085l.305.305.034-.034a1.032,1.032,0,0,1,.271-.271l.034-.034.1-.1c.068-.1.17-.17.237-.271a.6.6,0,0,1,.17-.136c.068-.034.1-.1.17-.136l.068-.068c.068-.034.1-.1.17-.136.068-.068.17-.136.237-.2.034-.034.1-.068.136-.1h.034c.1-.068.17-.136.271-.2a.6.6,0,0,0,.17-.136c.1-.068.169-.136.271-.2.068-.034.1-.068.17-.1a1.374,1.374,0,0,1,.305-.17c.068-.034.1-.068.17-.1.1-.068.2-.1.305-.169.068-.034.1-.068.169-.1l.068-.034a30.131,30.131,0,0,1,2.915-5.831,56.579,56.579,0,0,1,5.933-7.8,66.627,66.627,0,0,1,4.882-4.916,72,72,0,0,1,6.916-5.56c1.559-1.085,3.085-2.068,4.577-2.915.136-.068.271-.17.441-.237.407-.237.78-.441,1.187-.644.848-.441,1.7-.848,2.509-1.187l-.407-.475-.068-.068-.509-.576-2.814-3.39.034-2.441-.034-.034,2-.61,3.8,1.932" transform="translate(-4.312 -4.256)"/><g transform="translate(11.126 28.353)"><path class="e" d="M95.72,117.773a1.727,1.727,0,0,0-.2-.983.118.118,0,0,0-.034-.068l-.034-.034-.1-.1a1.476,1.476,0,0,0-.237-.2.741.741,0,0,0-.17-.1,2.327,2.327,0,0,0-.576-.169,2.74,2.74,0,0,0-.542-.034H93.55v.068c0,.034.034.068.034.136,0,.034,0,.068.034.068.034.1.068.271.1.407a.262.262,0,0,1-.034.1v.034a5.47,5.47,0,0,1-.983,1.458,3.375,3.375,0,0,1-.339.373c-1.7,1.763-5.356,4.238-13.085,5.627a26.462,26.462,0,0,1-7.085.136c-3.051-.373-5.322-1.356-6.407-2.678-.1-.1-.17-.237-.271-.339-.068-.1-.1-.17-.169-.271-.034-.034-.034-.068-.068-.1a5.344,5.344,0,0,1-.644-2.543,4.762,4.762,0,0,1,.881-2.78,3.265,3.265,0,0,1,1.729-1.288,2.9,2.9,0,0,1,1.085-.136,1.168,1.168,0,0,1,.305.034c.237.034.61.068,1.051.136a.2.2,0,0,1,.136.034,36.194,36.194,0,0,0,6.543.237,28.622,28.622,0,0,0,17.831-7.39v-.034a2.639,2.639,0,0,0-.61-1.932,3.05,3.05,0,0,0-.339-.305c-.068-.068-.169-.1-.237-.169a1.474,1.474,0,0,1-.237-.136l-.305-.2v-.034a.71.71,0,0,0-.136-.2,16.833,16.833,0,0,0-4.61-4.407,4.982,4.982,0,0,0-.678-.441c-1.865-1.153-2.136-1.526-1.966-4.61.068-1.119.169-2.576.305-4.577,0-.271.034-.509.034-.746v-.983c0-.169-.034-.339-.034-.475a.43.43,0,0,0-.034-.2c-.034-.169-.034-.339-.068-.508,0-.068-.034-.169-.034-.237a.8.8,0,0,0-.068-.271c-.034-.068-.034-.169-.068-.237a.99.99,0,0,1-.068-.305c0-.034-.034-.068-.034-.1s-.034-.068-.034-.1v-.034l-.034-.1a.482.482,0,0,1-.068-.2v-.034l-.034-.068L84.8,85.67a3.972,3.972,0,0,0-.169-.373l-.034-.1c-.068-.1-.136-.237-.2-.339l-.034-.034-.034-.034c-.068-.068-.1-.136-.17-.2l-.068-.1a1.475,1.475,0,0,0-.2-.237l-.271-.271a1.374,1.374,0,0,0-.305-.169.125.125,0,0,0-.1-.034l-.2-.1c-.034,0-.068-.034-.1-.034-.068-.034-.136-.034-.169-.068-.034,0-.068-.034-.136-.034s-.1-.034-.17-.034h-.746a264.622,264.622,0,0,0-.2.068.863.863,0,0,0-.237.068h-.068c-.2.068-.373.136-.576.2l-.068.034a1.651,1.651,0,0,1-.237.1l-.1.034-.2.1-.1.068-.2.1-.1.068c-.068.034-.136.1-.2.136l-.068.034c-.068.068-.169.1-.237.169l-.034.034a1.189,1.189,0,0,1-.271.169c-.17.1-.339.237-.509.339a4.956,4.956,0,0,1-.441.305l-.068.034a3.094,3.094,0,0,1-.441.271l-.068.034c-.136.1-.305.169-.441.271l-.068.034a2.071,2.071,0,0,1-.475.237l-.068.034c-.169.068-.305.136-.475.2l-.068.034c-.169.068-.339.1-.508.17h-.034c-.169.034-.373.068-.542.1a8.94,8.94,0,0,1-.949.068,12.45,12.45,0,0,1-1.559-.1l-.508-.1a1.468,1.468,0,0,1-.169-.034c-.441-.1-.915-.2-1.356-.305-.2-.034-.373-.1-.576-.136-.305-.068-.61-.136-.949-.2a1.467,1.467,0,0,1-.169-.034c-.034,0-.1-.034-.136-.034-.068,0-.136-.034-.2-.034s-.136-.034-.2-.034h-.068a1.47,1.47,0,0,1-.169-.034,1.717,1.717,0,0,0-.441-.068.2.2,0,0,1-.136-.034c-.1,0-.2-.034-.305-.034a.306.306,0,0,1-.17-.034c-.1,0-.17-.034-.271-.034H64.667c-.169,0-.305.034-.475.034h-.136c-.1,0-.2.034-.305.034h-.034c-.068,0-.1.034-.169.034-.1.034-.2.034-.305.068a1.469,1.469,0,0,0-.17.034.991.991,0,0,1-.305.068c-.068,0-.1.034-.169.068-.1.034-.237.068-.339.1-.068.034-.1.034-.136.068-.169.068-.339.136-.475.2A10.77,10.77,0,0,0,58.4,89.4a12.715,12.715,0,0,0-.814,1.22,10.529,10.529,0,0,0-.678,1.39c-.068.136-.1.271-.169.407-.068.237-.17.475-.237.712,0,.034,0,.068-.034.068-.068.271-.136.542-.2.848a7.917,7.917,0,0,0-.136.881,2.238,2.238,0,0,0-.034.475,8.172,8.172,0,0,0,0,1.288v.1a1.272,1.272,0,0,0,.034.339,8.515,8.515,0,0,0,.136.915,1,1,0,0,1,.068.339c.034.1.034.2.068.305a7.839,7.839,0,0,0,.881,2.1,11.967,11.967,0,0,0,5.39,4.644c.644.271,1.322.542,2.034.78l-.068.068c-.136.034-.271.068-.441.1-.237.068-.542.169-.848.271-.339.1-.746.271-1.153.441a13.476,13.476,0,0,0-3.39,1.966c-.136.1-.271.237-.407.339a5.782,5.782,0,0,0-.644.644l-.068.068-.1.1c-.068.1-.17.169-.237.271l-.1.1a2.826,2.826,0,0,0-.271.407c-.1.136-.17.271-.271.407a7.154,7.154,0,0,0-.915,4.1v-.068a.125.125,0,0,1,.034-.1V115.3c0-.034.034-.068.034-.136v-.034a1.471,1.471,0,0,0,.034-.17c0-.068.034-.1.068-.169v-.034c.034-.068.034-.136.068-.2v-.034c.034-.068.034-.136.068-.2v-.034a1.653,1.653,0,0,0,.1-.237l.034-.034a.85.85,0,0,1,.136-.237c.068-.136.136-.237.2-.373.034-.034.068-.1.1-.136l.034-.034.2-.305c.068-.068.136-.169.2-.237l.068-.068c.068-.068.1-.136.169-.169l.068-.068a1.567,1.567,0,0,0,.237-.237s-1.458,3.322-.814,5.933v-.509a14913384419753.438,14913384419753.438,0,0,1,.068-.407v-.034c0-.068.034-.169.034-.237v-.068c.034-.1.034-.169.068-.271v-.034a1.048,1.048,0,0,0,.068-.271c0-.034.034-.068.034-.1l.034-.068c.034-.068.068-.169.1-.237a1.375,1.375,0,0,1,.169-.305.118.118,0,0,1,.034-.068l.2-.305s-.068.814-.068,1.8a2.237,2.237,0,0,0,.034.475.938.938,0,0,0,.034.305,13.382,13.382,0,0,1,.542-2.949,13.382,13.382,0,0,0-.542,2.949A13.6,13.6,0,0,0,58.6,123.6a4.763,4.763,0,0,1,.2-3.051l.2.407c.068.441.136,1.085.271,1.8a12.657,12.657,0,0,0,3.119,7.221,4.254,4.254,0,0,1-.78-2.712c.1.2.2.373.271.542a16.92,16.92,0,0,0,2.136,3.221s-.712-1.39-.542-1.7c0,0,2.373,2.949,3.119,3.221l-.983-1.627-.034-.034c3.424,2.509,8.17,3.424,14,1.8A26.385,26.385,0,0,0,82.7,131.6c.644-.271,1.288-.61,1.932-.949l.1-.068c.441-.237.881-.508,1.322-.78.339-.2.678-.441.983-.644q.814-.559,1.627-1.22c.034-.034.068-.068.1-.068a18.968,18.968,0,0,0,1.458-1.39,20.514,20.514,0,0,0,1.627-1.932l.034-.034a4.112,4.112,0,0,0,.339-.475l.034-.034c.034-.068.068-.1.1-.169.17-.237.305-.441.475-.678.034-.068.068-.1.1-.17a2.281,2.281,0,0,1,.237-.373c.068-.1.1-.169.17-.271a1.373,1.373,0,0,0,.169-.305c.1-.169.2-.373.305-.542l.1-.2.2-.407.1-.2.034-.068c.068-.169.17-.339.237-.509v-.034a7.089,7.089,0,0,0,.712-.78c.034-.034.068-.068.068-.1a2.511,2.511,0,0,0,.441-1.424M40.9,109.128c-.1.034-.2.17-.339.339a1.473,1.473,0,0,0-.136.237,11.072,11.072,0,0,0-.576,1.39,6.584,6.584,0,0,0,.068-.814v-.1c.034-.271.068-.576.1-.848v-.1a7.885,7.885,0,0,1,.17-.949.256.256,0,0,1,.034-.136v-.034a.124.124,0,0,1,.034-.1c0-.068.034-.1.034-.17.034-.237.1-.475.136-.712.034-.2.068-.407.1-.576v-.068c0-.034,0-.068.034-.068v-.068c0-.034.034-.1.034-.136a.125.125,0,0,1,.034-.1,1.469,1.469,0,0,1,.034-.169c0-.034.034-.1.034-.136a1.466,1.466,0,0,1,.034-.169.125.125,0,0,1,.034-.1c0-.034,0-.068.034-.068,0-.068.034-.1.034-.136v-.1l-.068.068c-.068.034-.1.1-.17.136l-.068.068a.9.9,0,0,0-.17.2l-.034.034-.2.305-.034.034c0,.034-.034.034-.034.068l-.1.2v.068c-.034.1-.1.2-.136.305-.1.271-.2.542-.271.78-.034.068-.034.169-.068.2a2.759,2.759,0,0,0-.068.305v0a.747.747,0,0,1,.034-.271c0-.169.034-.373.034-.542a1.984,1.984,0,0,1,.068-.441.2.2,0,0,1,.034-.136c0-.068.034-.136.034-.2s.034-.136.034-.2v-.1c0-.068.034-.169.034-.237v-.237a.125.125,0,0,1,.034-.1,1.2,1.2,0,0,0,.068-.339v-.034c.034-.068.034-.169.068-.237v-.034c.034-.169.1-.339.136-.509v-.068a.125.125,0,0,1,.034-.1c.068-.271.17-.542.237-.78V103.4c.068-.2.17-.441.237-.644v-.034c.034-.1.068-.169.1-.271.068-.136.1-.271.17-.407a.882.882,0,0,1,.1-.237c.034-.034.034-.1.068-.136a1.653,1.653,0,0,0,.1-.237l.034-.068c-.034-.034-.1-.034-.136-.068H40.9l-.068-.034a8.435,8.435,0,0,0-.983-.373h-.068a4.8,4.8,0,0,0-.678-.136c-.136,0-.271-.034-.407-.034h-.339c-.17,0-.339.034-.509.034a.306.306,0,0,0-.169.034c-.068,0-.17.034-.237.034a.124.124,0,0,0-.1.034c-.068,0-.1.034-.17.034-.1.034-.237.068-.339.1-.034,0-.1.034-.136.034-.136.068-.305.1-.441.169-.068.034-.1.068-.17.068l-.2.1-.068.034a3530.336,3530.336,0,0,0-.407.271c-.068.034-.136.1-.2.136-.034.034-.1.068-.136.1-.1.1-.237.2-.339.305l-.169.169c-.1.1-.17.2-.271.305l-.034.034c-.034.068-.1.1-.136.169l-.1.1a5.97,5.97,0,0,0-.475.78c-.034.034-.034.068-.068.1-.068.136-.1.271-.17.407-.034.068-.034.1-.068.169-.034.136-.1.271-.136.441v.136c-.034.1-.034.2-.068.305a1996.875,1996.875,0,0,1-.068.339v.136a2.549,2.549,0,0,0,0,.508,1.65,1.65,0,0,0,.034.407v.068c0,.068.034.136.034.2a6.411,6.411,0,0,0,.169.78c.068.2.136.373.2.542a5.114,5.114,0,0,0,.508.949,5.379,5.379,0,0,0,1.593,1.559,4.5,4.5,0,0,0,1.153.542,4.588,4.588,0,0,0,1.22.271c.1,0,.2.034.271.034H38.6c.136,0,.271-.034.407-.034a.577.577,0,0,0,.237-.034c.2-.034.373-.068.576-.1h.034a2.16,2.16,0,0,1,.237-.068,4.042,4.042,0,0,0,.678-.271l.034-.034a.573.573,0,0,1,.17-.068,15.291,15.291,0,0,1-.237-1.8c.17-.068.17-.1.17-.136" transform="translate(-32.956 -83.5)"/></g><path class="f" d="M123.9,17.8l.1.068Z" transform="translate(-81.944 -11.719)"/><path class="g" d="M160.31,169c0-.034,0-.068-.034-.068a.257.257,0,0,1-.034-.136,4.855,4.855,0,0,0-.576-1.254,3.67,3.67,0,0,0-.441-.576l.1-.407a2.619,2.619,0,0,0,.068-.508,4.9,4.9,0,0,0-.441-2.712,1.649,1.649,0,0,0-.1-.237c-.2.136-.373.271-.576.407a29.569,29.569,0,0,1-12.2,4.746,35.079,35.079,0,0,1-9.628.1l.068.034a3.236,3.236,0,0,0-2.576,2.2l.034.034-.169,1.288a4,4,0,0,0,1.763,3.424,14.629,14.629,0,0,0,3.39.814,27.13,27.13,0,0,0,7.356-.2,31.052,31.052,0,0,0,11.831-4.678,18.789,18.789,0,0,0,2.136-1.695l.034-.034.034-.034c0-.237-.034-.373-.034-.508" transform="translate(-88.488 -107.763)"/><g transform="translate(11.446 29.573)"><path class="h" d="M131.259,102.016c-1.865-1.153-2.136-1.526-1.966-4.61.068-1.119.17-2.576.305-4.577,0-.271.034-.508.034-.746V91.1c0-.17-.034-.339-.034-.475a.43.43,0,0,0-.034-.2c-.034-.169-.034-.339-.068-.508,0-.068-.034-.17-.034-.237a.8.8,0,0,0-.068-.271c-.034-.068-.034-.169-.068-.237a4.681,4.681,0,0,0-.949-1.051l-.068-.068-.068-.034h-.034c-.068-.034-.1-.068-.169-.1a.742.742,0,0,1-.17-.1,4.921,4.921,0,0,0-1.831-.644,6.2,6.2,0,0,0-1.119-.068c-.17,0-.373.034-.542.034a12.441,12.441,0,0,0-1.458.305c-.169.1-.339.237-.508.339a4.958,4.958,0,0,1-.441.305l-.068.034a3.1,3.1,0,0,1-.441.271l-.068.034c-.136.1-.305.169-.441.271l-.068.034a2.069,2.069,0,0,1-.475.237l-.068.034c-.169.068-.305.136-.475.2l-.068.034c-.169.068-.339.1-.509.169h-.034c-.169.034-.373.068-.542.1a8.931,8.931,0,0,1-.949.068,12.444,12.444,0,0,1-1.559-.1l-.509-.1a1.469,1.469,0,0,1-.169-.034c-.441-.1-.915-.2-1.356-.305-.2-.034-.373-.1-.576-.136-.305-.068-.61-.136-.949-.2a1.468,1.468,0,0,1-.169-.034,5.563,5.563,0,0,0-.78.068h-.068a11.36,11.36,0,0,0-2.305.542c-.034,0-.068.034-.136.034-.136.034-.237.1-.373.136-.169.068-.305.136-.475.2a12.819,12.819,0,0,0-3.187,2c-.407.339-.78.712-1.153,1.085a15.014,15.014,0,0,0-1.458,1.831c-.034.034-.034.068-.068.1a8.4,8.4,0,0,0-.61,1.051,3.706,3.706,0,0,1-.2.373v.034a10.149,10.149,0,0,0-.509,1.288c0,.034,0,.068-.034.068-.034.068-.034.136-.068.2a4.1,4.1,0,0,0-.17.61,3.6,3.6,0,0,0-.136.644c0,.034-.034.1-.034.136-.034.136-.034.271-.068.373-.068.475-.1.949-.136,1.424v.339a7.838,7.838,0,0,0,.881,2.1,11.967,11.967,0,0,0,5.39,4.644c.644.271,1.322.542,2.034.78l.034.034.034-.034c.1-.068.17-.136.271-.2.034-.034.068-.034.1-.068l.305-.2c.034-.034.068-.034.1-.068l.305-.2c.034-.034.068-.034.1-.068a2.974,2.974,0,0,1,.339-.2c.034-.034.068-.034.1-.068.1-.068.237-.136.339-.2.034-.034.068-.034.1-.068.1-.068.237-.136.339-.2.034-.034.1-.034.136-.068.1-.068.237-.136.339-.2a.257.257,0,0,1,.136-.068,3.7,3.7,0,0,1,.373-.2c.068-.034.1-.068.169-.068a1.817,1.817,0,0,1,.373-.169c.068-.034.1-.068.17-.068.136-.068.237-.1.373-.169l.2-.1c.136-.068.237-.1.373-.169a1.653,1.653,0,0,1,.237-.1c.136-.034.237-.1.373-.136.068-.034.169-.068.237-.1.136-.034.237-.1.373-.136.1-.034.17-.068.271-.1.136-.034.237-.1.373-.136l.305-.1a1.417,1.417,0,0,0,.339-.136c.1-.034.237-.068.339-.1s.237-.068.339-.1c.136-.034.271-.068.373-.1s.2-.068.339-.1a3.149,3.149,0,0,0,.441-.136c.068-.034.136-.034.2-.068.542-1.39,2.2-4.848,5.017-5.221a7.739,7.739,0,0,1,.848-.068h.2a3.754,3.754,0,0,1-.068-.644c-.1-1.492.373-2.746,1.017-2.78.509-.034.915.712.983.949a4.619,4.619,0,0,1,.373,1.661,5.947,5.947,0,0,1-.136,1.593c.068.068.1.136.169.169a4.111,4.111,0,0,1,.712,2.712c.237-.034.509-.034.78-.068a.43.43,0,0,0,.2-.034h.136a8.955,8.955,0,0,1,.983-.068c.746-.068,1.492-.1,2.271-.136-.441-.237-.712-.373-.712-.373m7.085,20.882a20.98,20.98,0,0,1-3.8,2.678c-.644.339-1.288.644-1.9.915a25.231,25.231,0,0,1-3.9,1.322,20.354,20.354,0,0,1-4.407.644,8.136,8.136,0,0,0,4.441.678,7.75,7.75,0,0,0,1.424-.237c-.034.509-.1.983-.169,1.458a7.1,7.1,0,0,1-.407,1.356v.034a7.378,7.378,0,0,1-.746,1.356c-.034.034-.068.1-.1.136l.1-.068c.441-.237.881-.508,1.322-.78.339-.2.678-.441.983-.644q.814-.559,1.627-1.22c.034-.034.068-.068.1-.068a18.969,18.969,0,0,0,1.458-1.39,20.516,20.516,0,0,0,1.627-1.932l.034-.034a4.116,4.116,0,0,0,.339-.475l.034-.034c.034-.068.068-.1.1-.17.169-.237.305-.441.475-.678.034-.068.068-.1.1-.169a2.283,2.283,0,0,1,.237-.373c.068-.1.1-.169.169-.271a1.374,1.374,0,0,0,.169-.305c.1-.169.2-.373.305-.542l.1-.2.2-.407.1-.2.034-.068c.068-.169.169-.339.237-.508a.61.61,0,0,0-.305.2m-30.917-13.662c-.339.1-.746.271-1.153.441a13.476,13.476,0,0,0-3.39,1.966c-.136.1-.271.237-.407.339a5.772,5.772,0,0,0-.644.644l-.068.068-.1.1c-.068.1-.169.169-.237.271l-.1.1a2.827,2.827,0,0,0-.271.407c-.1.136-.169.271-.271.407a7.154,7.154,0,0,0-.915,4.1v-.068a.125.125,0,0,1,.034-.1v-.034c0-.034.034-.068.034-.136v-.034a1.466,1.466,0,0,0,.034-.169c0-.068.034-.1.068-.169v-.034c.034-.068.034-.136.068-.2V117.1c.034-.068.034-.136.068-.2v-.034a1.649,1.649,0,0,0,.1-.237l.034-.034a.849.849,0,0,1,.136-.237c.068-.136.136-.237.2-.373.034-.034.068-.1.1-.136l.034-.034.2-.305c.068-.068.136-.17.2-.237l.068-.068c.068-.068.1-.136.169-.17l.068-.068a1.566,1.566,0,0,0,.237-.237s-1.458,3.322-.814,5.932v-.508a324209925400,324209925400,0,0,0,.068-.407v-.034c0-.068.034-.169.034-.237v-.068c.034-.1.034-.169.068-.271V119.1a1.047,1.047,0,0,0,.068-.271c0-.034.034-.068.034-.1l.034-.068c.034-.068.068-.169.1-.237a1.371,1.371,0,0,1,.169-.305.118.118,0,0,1,.034-.068l.2-.305s-.068.814-.068,1.8a2.24,2.24,0,0,0,.034.475.938.938,0,0,0,.034.305,13.382,13.382,0,0,1,.542-2.949c.068-.237.169-.509.237-.746,0-.034.034-.068.034-.1.1-.237.17-.441.271-.678.034-.034.034-.068.068-.136.1-.2.2-.441.305-.644a.124.124,0,0,0,.034-.1q.356-.661.712-1.22c.034-.034.034-.068.068-.1a4.952,4.952,0,0,0,.305-.441c.034-.034.034-.068.068-.1s.034-.068.068-.1c.136-.169.237-.339.373-.508.034-.034.034-.068.068-.068a5.907,5.907,0,0,1,.407-.475c.169-.2.339-.373.509-.576a3.867,3.867,0,0,1,.373-.373l.136-.136c.271-.271.542-.542.814-.78a14.841,14.841,0,0,1,1.559-1.254c-.136.034-.271.068-.441.1a5.228,5.228,0,0,1-.814.305" transform="translate(-77.494 -87.1)"/><path class="h" d="M83.36,127.428a.949.949,0,0,0-.034-.2,2.058,2.058,0,0,0-2.475-1.458,3.28,3.28,0,0,0-2.814,2.339.593.593,0,0,0-.034.17l.068.034a.986.986,0,0,1,1.153.1,1.981,1.981,0,0,1,.475.441.769.769,0,0,1,.1.746l-.1.1a1.091,1.091,0,0,0,.2.068c.542.169,2.068.475,2.882-.576.034-.068.068-.1.1-.169-.169-.068-.237-.305-.237-.61a2.334,2.334,0,0,1,.068-.441c.1-.407.407-.644.644-.542m-9.8,14.509c-1.288.271-2.407.475-3.254.61a.2.2,0,0,1,.136.034,36.194,36.194,0,0,0,6.543.237,28.622,28.622,0,0,0,17.831-7.39v-.034a2.639,2.639,0,0,0-.61-1.932,3.056,3.056,0,0,0-.339-.305c-.034,0-.034-.034-.068-.034a5.022,5.022,0,0,1-.441-.271l-.305-.2v-.034a10.965,10.965,0,0,1-1.288,1.526c-.169.169-.339.339-.542.508a23.148,23.148,0,0,1-6.17,3.8,59.677,59.677,0,0,1-11.492,3.492M41.426,133.09c-.068.034-.1.1-.169.136l-.068.068a.9.9,0,0,0-.169.2l-.034.034-.2.305-.034.034c0,.034-.034.034-.034.068l-.1.2v.068c-.034.1-.1.2-.136.305-.1.271-.2.542-.271.78-.034.068-.034.169-.068.2a2.76,2.76,0,0,0-.068.305v0a.747.747,0,0,1,.034-.271c0-.169.034-.373.034-.542a1.983,1.983,0,0,1,.068-.441.2.2,0,0,1,.034-.136c0-.068.034-.136.034-.2s.034-.136.034-.2v-.1c0-.068.034-.169.034-.237v-.237a.125.125,0,0,1,.034-.1,1.2,1.2,0,0,0,.068-.339v-.034c.034-.068.034-.17.068-.237v-.034c.034-.169.1-.339.136-.509v-.068a.125.125,0,0,1,.034-.1c.068-.271.169-.542.237-.78v-.034c.068-.2.169-.441.237-.644v-.034c.034-.1.068-.169.1-.271.068-.136.1-.271.17-.407a.882.882,0,0,1,.1-.237c.034-.034.034-.1.068-.136a1.654,1.654,0,0,0,.1-.237l.034-.068c-.034-.034-.1-.034-.136-.068h-.034l-.068-.034a8.446,8.446,0,0,0-.983-.373h-.068a4.8,4.8,0,0,0-.678-.136c-.136,0-.271-.034-.407-.034h-.339c-.169,0-.339.034-.508.034a.306.306,0,0,0-.17.034c-.068,0-.169.034-.237.034a.125.125,0,0,0-.1.034c-.068,0-.1.034-.169.034-.1.034-.237.068-.339.1-.034,0-.1.034-.136.034-.136.068-.305.1-.441.17-.068.034-.1.068-.169.068l-.2.1-.068.034a2824.191,2824.191,0,0,1-.407.271c-.068.034-.136.1-.2.136-.034.034-.1.068-.136.1-.1.1-.237.2-.339.305l-.169.17c-.1.1-.17.2-.271.305l-.034.034c-.034.068-.1.1-.136.169l-.1.1a5.968,5.968,0,0,0-.475.78c-.034.034-.034.068-.068.1-.068.136-.1.271-.17.407-.034.068-.034.1-.068.169,0,.034.034.068.034.1.034.136.068.237.1.373v.068c.034.1.1.237.136.339a5.744,5.744,0,0,0,.441.915c.034.034.034.068.068.1v.034l.034.034a3.347,3.347,0,0,0,.305.508c.17.237.305.407.407.542l.068.068a.033.033,0,0,0,.034.034l.068.068a1.469,1.469,0,0,0-.034-.169,5.548,5.548,0,0,1-.136-1.288V133.9a5.747,5.747,0,0,1,.034-.78l.1.305c.034.136.1.271.136.407v.068a7,7,0,0,0,.678,1.424,6.569,6.569,0,0,0,.678.983c.034.034.068.068.068.1l.068.068a6.45,6.45,0,0,1-.169-1.356v-.441a2.74,2.74,0,0,1,.034-.542,6.7,6.7,0,0,0,.271.881v.034a9.893,9.893,0,0,0,1.119,2.136l.034.034a.71.71,0,0,1,.136.2c.034.034.068.068.068.1l.068.068.034.034v-.068c0-.068-.034-.136-.034-.2-.034-.237-.068-.475-.1-.678,0-.136-.034-.305-.034-.441V135.5c0-.17.034-.373.034-.542.034.1.068.237.1.339.034.068.068.169.1.237v.034l.034.034a2.336,2.336,0,0,0,.1.271,2.071,2.071,0,0,0,.237.475,3.451,3.451,0,0,0,.271.508,1.949,1.949,0,0,1,.136.237,3.123,3.123,0,0,1,.169.271.709.709,0,0,1,.136.2l.034.034c.034.068.1.1.136.169.034.034.068.068.068.1.068.068.1.136.136.136l.034.034v-.1c.034-.271.068-.576.1-.847v-.1a7.884,7.884,0,0,1,.169-.949.256.256,0,0,1,.034-.136v-.034a.125.125,0,0,1,.034-.1c0-.068.034-.1.034-.169.034-.237.1-.475.136-.712.034-.2.068-.407.1-.576v-.068c0-.034,0-.068.034-.068v-.068c0-.034.034-.1.034-.136a.124.124,0,0,1,.034-.1,1.465,1.465,0,0,1,.034-.169c0-.034.034-.1.034-.136a1.469,1.469,0,0,1,.034-.169.125.125,0,0,1,.034-.1c0-.034,0-.068.034-.068,0-.068.034-.1.034-.136v-.1l.17.1m41.087,14.17c.475-.17.881-.305,1.22-.441.644-.271.983-.475.983-.542-.034-.068-.407-.034-1.085.136-.339.068-.746.136-1.254.271a5.336,5.336,0,0,1-.78.136c-.271.034-.576.1-.881.136-.61.1-1.288.169-2.034.237l-1.119.1c-.373.034-.78.034-1.187.068a25.908,25.908,0,0,1-5.255-.373,11.542,11.542,0,0,1-3.187-1.119l-.034-.034a3.236,3.236,0,0,1,2.576-2.2l-.068-.034h-.1c-.305-.034-.542-.068-.78-.1-.17-.034-.305-.034-.407-.068a1.911,1.911,0,0,1-.237-.034,2.282,2.282,0,0,0-2.1,1.39l-.1.2a4.193,4.193,0,0,0-.339,1.356,3.769,3.769,0,0,0,.881,2.746,5.688,5.688,0,0,0,2.339,1.492,3.968,3.968,0,0,1-1.763-3.424,15.909,15.909,0,0,0,3.153.881,22.026,22.026,0,0,0,5.492.305c.407-.034.848-.068,1.22-.1.407-.068.78-.1,1.153-.136.746-.136,1.39-.237,2.034-.373a6.69,6.69,0,0,0,.881-.237,4.243,4.243,0,0,0,.78-.237" transform="translate(-33.9 -112.648)"/></g><g transform="translate(42.803 38.149)"><path class="a" d="M142.062,115.788a3.045,3.045,0,0,1,2.17.814,5.7,5.7,0,0,0,.136-1.593,4.619,4.619,0,0,0-.373-1.661c-.068-.271-.475-.983-.983-.949-.644.034-1.119,1.288-1.017,2.78a3.736,3.736,0,0,0,.068.61m1.7,3.831a.785.785,0,0,0,.237.61c.237.136.542-.136.678-.576,0-.034.034-.068.034-.1.1-.407,0-.814-.237-.915-.237-.136-.542.136-.678.576,0,.136-.034.271-.034.407m-4.61.746a1.581,1.581,0,0,0,.475.475,1.027,1.027,0,0,0,1.187.068l.1-.1a.769.769,0,0,0-.1-.746,1.2,1.2,0,0,0-.475-.441,1.046,1.046,0,0,0-1.153-.1.467.467,0,0,0-.1.136.784.784,0,0,0,.068.712m16.848,6.2h0m-.542,9.39a16.19,16.19,0,0,1-2.17,1.729,30.513,30.513,0,0,1-11.831,4.678,27.16,27.16,0,0,1-7.356.2,15.07,15.07,0,0,1-3.39-.814,5.688,5.688,0,0,1-2.339-1.492,3.973,3.973,0,0,1-.881-2.746,3.633,3.633,0,0,1,.339-1.356l.1-.2a2.272,2.272,0,0,1,2.1-1.39.763.763,0,0,1,.237.034,2.032,2.032,0,0,1,.407.068c.237.034.475.068.78.1h.1a35.08,35.08,0,0,0,9.628-.1,29.57,29.57,0,0,0,12.2-4.746c.2-.136.373-.271.576-.407l2-2.983a28.493,28.493,0,0,1-17.831,7.424,33.293,33.293,0,0,1-6.543-.237c-.068,0-.1,0-.136-.034-.441-.068-.78-.1-1.051-.136-.136,0-.237-.034-.305-.034a2.9,2.9,0,0,0-1.085.136,3.4,3.4,0,0,0-1.729,1.288,4.842,4.842,0,0,0-.881,2.78,5.344,5.344,0,0,0,.644,2.542c.034.034.034.068.068.1.068.1.1.169.169.271a2.379,2.379,0,0,0,.271.339c1.051,1.322,3.356,2.271,6.407,2.678a26.448,26.448,0,0,0,7.085-.136c7.729-1.39,11.39-3.9,13.085-5.627a3.379,3.379,0,0,0,.339-.373,6.857,6.857,0,0,0,.983-1.458v-.034a.262.262,0,0,0,.034-.1l-.034.034" transform="translate(-126.4 -112.397)"/></g><g transform="translate(39.583 32.286)"><path class="i" d="M124.6,97.745a3.108,3.108,0,0,0-.78-.305c-.169-.034-.339-.068-.542-.1a.43.43,0,0,1-.2-.034,7.726,7.726,0,0,0-1.7.068,1.943,1.943,0,0,0-.475.136,5.3,5.3,0,0,0-3.661,3.661.306.306,0,0,0-.034.17c-.034.169-.1.339-.136.475a8.034,8.034,0,0,0-.169,1.424c0,.542.034.881.034.881a11.483,11.483,0,0,1,.678-1.288,12.054,12.054,0,0,1,1.831-2.441,9.138,9.138,0,0,1,3.424-2.271,7.127,7.127,0,0,1,1.729-.373m14.679-1.729-.034-.068a2.28,2.28,0,0,0-.509-.475,2.636,2.636,0,0,0-2-.305,3.48,3.48,0,0,0-1.661.949,4.1,4.1,0,0,1,3.8.61,6.194,6.194,0,0,1,.542.441,4.491,4.491,0,0,1,.542.576,3.681,3.681,0,0,0-.576-1.593.468.468,0,0,0-.1-.136" transform="translate(-116.9 -95.102)"/></g><path class="a" d="M138.666,125.362c.712-.2,1.458-.407,2.305-.61a7.092,7.092,0,0,0,.068-2.271c-.237-1.966-1.119-3.492-2-3.39s-1.39,1.8-1.153,3.763a6.634,6.634,0,0,0,.78,2.509" transform="translate(-91.151 -78.669)"/><path class="j" d="M112.206,6.9l-1.831.407.373,3.322L105.9,8.154l-2,.61.034.034,5.9,6.712.068-.034.068-.034c.169-.1.373-.237.542-.339a.71.71,0,0,0,.2-.136c.271-.17.542-.339.814-.475l-2.509-2.882,4.034,1.966c.136-.068.237-.136.373-.2l-.373-2.882,1.831,2.136h.034c.17-.068.305-.17.475-.237l.068-.034.068-.034a.118.118,0,0,0,.068-.034l.2-.1a.033.033,0,0,0,.034-.034c.2-.1.441-.2.644-.305L112.206,6.9" transform="translate(-68.724 -4.515)"/><g transform="translate(12.09 2.219)"><path class="f" d="M65.395,7.084v0m0-.1.271-.068a6.364,6.364,0,0,0-1.593-.441,12.5,12.5,0,0,0-4.543.441,29.486,29.486,0,0,0-5.865,2.271,60.613,60.613,0,0,0-13.458,9.458c-1.593,1.424-3.051,2.915-4.407,4.373l5.492,6.78c1.492-1.627,3.085-3.254,4.848-4.848a68.766,68.766,0,0,1,7.051-5.661,55.566,55.566,0,0,1,6.678-4.034l-.949-4.339.034-2.441L58.92,8.44l2-.61,3.9,2-.1-1.356.678-1.492" transform="translate(-35.8 -6.409)"/></g><g transform="translate(40.295 2.792)"><path class="b" d="M120.39,8.1l-.678,1.492.1,1.39.949.475ZM119,12.405l4.068,2-1.559.881Zm4.068-1.119.373,2.882,1.458-.746Z" transform="translate(-119 -8.1)"/></g><path class="g" d="M98.466,13.482h.746a8.867,8.867,0,0,1,1.932.237.125.125,0,0,1,.1.034h.034l.068.034h.068c-.068-.034-.136-.1-.2-.136a8.976,8.976,0,0,0-2.136-.542c-3.661-.475-7.865.881-10.238,1.831-.136.068-.271.1-.407.17-.2.1-.407.17-.61.271-.339.136-.678.305-1.051.475-.068.034-.1.034-.169.068-.2.1-.441.2-.644.305a.033.033,0,0,0-.034.034l-.2.1a.118.118,0,0,0-.068.034h-.136l-.034.034a3.1,3.1,0,0,0-.475.237h-.034c-.034.034-.068.034-.1.068h-.034a.118.118,0,0,0-.068.034c-.237.136-.475.237-.712.373-.17.1-.339.17-.509.271h-.034c-.136.068-.237.136-.373.2-.407.2-.78.441-1.187.678-.034.034-.068.034-.136.068-.034.034-.068.034-.1.068s-.068.034-.1.068l-.034.034c-.271.169-.542.305-.814.475a.71.71,0,0,0-.2.136c-.169.1-.373.237-.542.339l-.068.034-.068.034-1.525,1.017c-.848.576-1.661,1.153-2.475,1.763-.1.068-.2.17-.305.237-2.136,1.593-4.17,3.322-6.136,5.085-2.068,1.9-4.068,3.831-5.933,5.8-1.017,1.017-1.9,1.932-2.576,2.678a22.544,22.544,0,0,0-2.17,2.509,3.989,3.989,0,0,0,.373-.339c-.169.2-.373.441-.542.644a135.772,135.772,0,0,1,10.238-9.9c2.237-1.932,4.577-3.8,6.983-5.526,1.051-.746,2.136-1.492,3.221-2.2.339-.237.712-.441,1.051-.678.169-.1.339-.2.542-.305a1.374,1.374,0,0,1,.305-.169c.2-.1.373-.237.576-.339a4.749,4.749,0,0,0,.542-.339c.1-.068.2-.1.305-.17l.712-.407c.136-.068.271-.169.407-.237.441-.237.881-.475,1.356-.712.034-.034.068-.034.1-.068l.2-.1c.1-.034.169-.1.271-.136.034-.034.068-.034.1-.068l.2-.1a.033.033,0,0,0,.034-.034h.034c.2-.1.407-.2.576-.271.034,0,.068-.034.1-.068l.2-.1c.237-.1.441-.2.678-.305a.742.742,0,0,0,.17-.1c.034,0,.068-.034.1-.034a.482.482,0,0,1,.2-.068c.271-.1.509-.237.78-.339.237-.1.441-.2.678-.305,1.288-.542,2.475-.983,3.593-1.356a25.875,25.875,0,0,1,5.594-1.017" transform="translate(-38.781 -8.554)"/></g></svg>