<svg xmlns="http://www.w3.org/2000/svg" xmlns:xlink="http://www.w3.org/1999/xlink" width="119.995" height="120" viewBox="0 0 119.995 120"><defs><style>.a{fill:url(#a);}.b{fill:url(#b);}.c{fill:#f0f7fc;}.d{fill:url(#d);}.e{fill:url(#g);}</style><linearGradient id="a" x1="0.5" x2="0.5" y2="1" gradientUnits="objectBoundingBox"><stop offset="0" stop-color="#d27326"/><stop offset="0.272" stop-color="#f98910"/><stop offset="1" stop-color="#fd0"/></linearGradient><linearGradient id="b" x1="0.5" x2="0.5" y2="1" gradientUnits="objectBoundingBox"><stop offset="0" stop-color="#071539"/><stop offset="0.353" stop-color="#0a3770"/><stop offset="1" stop-color="#00599a"/></linearGradient><linearGradient id="d" x1="0.001" y1="0.5" x2="1" y2="0.5" gradientUnits="objectBoundingBox"><stop offset="0" stop-color="#d3e6f5"/><stop offset="1" stop-color="#f0f7fc"/></linearGradient><linearGradient id="g" x1="0" y1="0.5" x2="1" y2="0.5" xlink:href="#a"/></defs><g transform="translate(-7.002 -7)"><path class="a" d="M19.408,53.32a2.4,2.4,0,0,1-1.7-4.1l6.024-6.024A2.41,2.41,0,1,1,27.136,46.6C20.632,53.08,20.728,53.32,19.408,53.32Z" transform="translate(13.989 49.68)"/><path class="b" d="M101.8,21.4v91.2A14.4,14.4,0,0,1,87.4,127h-48A14.4,14.4,0,0,1,25,112.6V101.368c29.184,10.176,51.288-26.184,29.976-47.544A28.8,28.8,0,0,0,25,47.032V21.4A14.4,14.4,0,0,1,39.4,7h48A14.4,14.4,0,0,1,101.8,21.4Z" transform="translate(25.197 0)"/><path class="c" d="M86.6,15.8V107a4.8,4.8,0,0,1-4.8,4.8h-48A4.8,4.8,0,0,1,29,107V97.4a28.8,28.8,0,0,0,0-57.6v-24A4.8,4.8,0,0,1,33.8,11h9.6c1.128,2.184,2.016,4.8,5.376,4.8C70.76,15.8,69.1,17.048,72.2,11h9.6A4.8,4.8,0,0,1,86.6,15.8Z" transform="translate(30.797 5.6)"/><path class="a" d="M69.259,31.12A31.2,31.2,0,1,0,78.415,53.2a31.2,31.2,0,0,0-9.157-22.08Zm-3.408,40.8A26.423,26.423,0,1,1,28.507,34.528,26.136,26.136,0,0,1,47.179,26.8,26.4,26.4,0,0,1,65.851,71.872Z" transform="translate(12.618 21)"/><path class="d" d="M63.076,69.072A26.406,26.406,0,0,1,25.732,31.728,26.136,26.136,0,0,1,44.4,24,26.4,26.4,0,0,1,63.076,69.072Z" transform="translate(15.393 23.8)"/><path class="a" d="M31.2,52.8c-2.136,0-1.944-.768-7.032-13.512a2.4,2.4,0,0,1,4.464-1.776l4.8,12A2.4,2.4,0,0,1,31.2,52.8Z" transform="translate(23.795 40.598)"/><path class="a" d="M13.789,73.567a6.792,6.792,0,0,1-4.8-11.592L23.965,47a6.792,6.792,0,0,1,9.6,9.6C17.557,72.607,17.533,73.567,13.789,73.567Z" transform="translate(0 53.433)"/><path class="e" d="M40.464,30.376a13.008,13.008,0,0,1-10.848,5.808H27v14.4h2.616a13.008,13.008,0,0,1,10.848,5.808A3.144,3.144,0,0,0,46.2,54.665V32.1a3.144,3.144,0,0,0-5.736-1.728Z" transform="translate(27.997 30.815)"/><path class="a" d="M34,46.4H29.2a7.2,7.2,0,0,1,0-14.4H34Z" transform="translate(20.997 35)"/></g></svg>