<svg xmlns="http://www.w3.org/2000/svg" xmlns:xlink="http://www.w3.org/1999/xlink" width="95.936" height="27.971" viewBox="0 0 95.936 27.971"><defs><style>.a{clip-path:url(#a);}.b{fill:#24abe2;fill-rule:evenodd;}</style><clipPath id="a"><rect width="95.936" height="27.971"/></clipPath></defs><g class="a"><path class="b" d="M0,27.871H5.863a1.1,1.1,0,0,0,1.1-1.1V16.612L17.907,28.8,28.851,16.612V26.77a1.1,1.1,0,0,0,1.1,1.1h5.862V6.105H30.835a4.174,4.174,0,0,0-3.09,1.338L17.907,18.4,8.068,7.443a4.173,4.173,0,0,0-3.09-1.338H0Z" transform="translate(0 -2.787)"/><path class="b" d="M121.107,27.888h29a1.1,1.1,0,0,0,1.1-1.1v-5.8h-14.1L151.17,6.142H122.185a1.1,1.1,0,0,0-1.1,1.1v5.8h14.084Z" transform="translate(-55.275 -2.804)"/><path class="b" d="M81.6,0c8.851,0,16.026,6.187,16.026,13.986S90.454,27.971,81.6,27.971,65.577,21.784,65.577,13.986,72.752,0,81.6,0Zm0,6.989c4.316,0,8.017,3.133,8.017,7s-3.589,7-8.017,7-8.018-3.133-8.018-7S77.287,6.989,81.6,6.989Z" transform="translate(-29.936 0)"/></g></svg>