<svg xmlns="http://www.w3.org/2000/svg" xmlns:xlink="http://www.w3.org/1999/xlink" width="40.583" height="16.167" viewBox="0 0 40.583 16.167"><defs><style>.a{fill:url(#a);}.b{fill:url(#b);}.c{fill:#14559a;}.d{fill:url(#c);}.e{fill:#3092c4;}.f{fill:#1969bc;}.g{fill:url(#d);}.h{fill:url(#e);}.i{fill:url(#f);}.j{fill:#2b74b1;}.k{fill:#125a9e;}.l{fill:url(#g);}.m{fill:url(#h);}.n{fill:#0d82ca;}.o{fill:url(#i);}.p{fill:#127bca;}.q{fill:url(#j);}.r{fill:url(#k);}.s{fill:#05a1e6;}.t{fill:url(#l);}.u{fill:url(#m);}.v{fill:url(#n);}.w{fill:#079ae1;}.x{fill:#1e5cb3;}.y{fill:#1d60b5;}.z{fill:#175fab;}.aa{fill:url(#o);}.ab{fill:#7dcbec;}.ac{fill:#5ec5ed;}.ad{fill:url(#p);}.ae{fill:url(#q);}.af{fill:url(#r);}</style><linearGradient id="a" x1="0.5" y1="-0.195" x2="0.5" y2="1.296" gradientUnits="objectBoundingBox"><stop offset="0" stop-color="#0994dc"/><stop offset="0.35" stop-color="#66cef5"/><stop offset="0.846" stop-color="#127bca"/><stop offset="1" stop-color="#127bca"/></linearGradient><linearGradient id="b" x1="0.5" y1="-0.195" x2="0.5" y2="1.296" gradientUnits="objectBoundingBox"><stop offset="0" stop-color="#0e76bc"/><stop offset="0.36" stop-color="#36aee8"/><stop offset="0.846" stop-color="#00adef"/><stop offset="1" stop-color="#00adef"/></linearGradient><linearGradient id="c" x1="0.5" y1="1.109" x2="0.5" y2="-0.062" gradientUnits="objectBoundingBox"><stop offset="0" stop-color="#1c63b7"/><stop offset="0.5" stop-color="#33bdf2"/><stop offset="1" stop-color="#33bdf2" stop-opacity="0.42"/></linearGradient><linearGradient id="d" x1="0.5" y1="-0.195" x2="0.5" y2="1.296" gradientUnits="objectBoundingBox"><stop offset="0" stop-color="#166ab8"/><stop offset="0.4" stop-color="#36aee8"/><stop offset="0.846" stop-color="#0798dd"/><stop offset="1" stop-color="#0798dd"/></linearGradient><linearGradient id="e" x1="0.5" y1="-0.195" x2="0.5" y2="1.296" gradientUnits="objectBoundingBox"><stop offset="0" stop-color="#124379"/><stop offset="0.39" stop-color="#1487cb"/><stop offset="0.78" stop-color="#165197"/><stop offset="1" stop-color="#165197"/></linearGradient><linearGradient id="f" y1="0.5" x2="1" y2="0.5" gradientUnits="objectBoundingBox"><stop offset="0" stop-color="#33bdf2" stop-opacity="0.698"/><stop offset="1" stop-color="#1dacd8"/></linearGradient><linearGradient id="g" x1="0.5" y1="0.947" x2="0.5" y2="-0.03" gradientUnits="objectBoundingBox"><stop offset="0" stop-color="#136ab4"/><stop offset="0.6" stop-color="#59caf5" stop-opacity="0.549"/><stop offset="1" stop-color="#59caf5" stop-opacity="0.235"/></linearGradient><linearGradient id="h" y1="0.5" x2="1" y2="0.5" gradientUnits="objectBoundingBox"><stop offset="0" stop-color="#05a1e6" stop-opacity="0.247"/><stop offset="1" stop-color="#05a1e6"/></linearGradient><linearGradient id="i" x1="0.5" y1="1.243" x2="0.5" y2="-0.094" gradientUnits="objectBoundingBox"><stop offset="0" stop-color="#318ed5"/><stop offset="1" stop-color="#38a7e4"/></linearGradient><linearGradient id="j" x1="0.5" y1="0.912" x2="0.5" y2="-0.768" gradientUnits="objectBoundingBox"><stop offset="0" stop-color="#05a1e6"/><stop offset="1" stop-color="#05a1e6" stop-opacity="0.549"/></linearGradient><linearGradient id="k" x1="0.5" y1="1" x2="0.5" gradientUnits="objectBoundingBox"><stop offset="0" stop-color="#1959a6"/><stop offset="0.5" stop-color="#05a1e6"/><stop offset="0.918" stop-color="#7ec5ea"/><stop offset="1" stop-color="#7ec5ea"/></linearGradient><linearGradient id="l" x1="0.598" y1="0.946" x2="0.385" y2="0.058" gradientUnits="objectBoundingBox"><stop offset="0" stop-color="#165096"/><stop offset="1" stop-color="#0d82ca"/></linearGradient><linearGradient id="m" x1="0.5" y1="0.77" x2="0.5" y2="-0.033" gradientUnits="objectBoundingBox"><stop offset="0" stop-color="#05a1e6"/><stop offset="0.874" stop-color="#0495d6"/><stop offset="1" stop-color="#0495d6"/></linearGradient><linearGradient id="n" x1="0.653" y1="-0.042" x2="0.343" y2="1.058" gradientUnits="objectBoundingBox"><stop offset="0" stop-color="#38a7e4" stop-opacity="0.329"/><stop offset="0.962" stop-color="#0e88d3"/><stop offset="1" stop-color="#0e88d3"/></linearGradient><linearGradient id="o" x1="0.5" y1="-0.003" x2="0.5" y2="1.019" gradientUnits="objectBoundingBox"><stop offset="0" stop-color="#168cd4"/><stop offset="0.5" stop-color="#1c87cc"/><stop offset="1" stop-color="#154b8d"/></linearGradient><linearGradient id="p" x1="0.167" y1="-1.056" x2="0.878" y2="1.198" gradientUnits="objectBoundingBox"><stop offset="0" stop-color="#97d6ee"/><stop offset="0.703" stop-color="#55c1ea"/><stop offset="1" stop-color="#55c1ea"/></linearGradient><linearGradient id="q" x1="0.069" y1="0.937" x2="0.758" y2="-0.168" gradientUnits="objectBoundingBox"><stop offset="0" stop-color="#7accec"/><stop offset="1" stop-color="#3fb7ed"/></linearGradient><linearGradient id="r" x1="0.5" y1="0.064" x2="0.5" y2="1.28" gradientUnits="objectBoundingBox"><stop offset="0" stop-color="#1da7e7"/><stop offset="1" stop-color="#37abe7" stop-opacity="0"/></linearGradient></defs><g transform="translate(-0.987)"><g transform="translate(0.987 0)"><path class="a" d="M88.5,17.9c1.463,4.473,2.017,12.451,6.293,12.451h0a5.265,5.265,0,0,0,.985-.095h0c-3.888-.906-4.349-8.8-6.721-12.885h0c-.186.169-.371.345-.557.529" transform="translate(-74.404 -14.603)"/><path class="b" d="M91.992,15.135c2.372,4.087,2.833,11.979,6.721,12.885h0a6.185,6.185,0,0,0,.918-.248h0c-3.49-1.71-4.454-9.373-7.148-13.063h0q-.245.2-.491.426" transform="translate(-77.34 -12.362)"/><path class="c" d="M94.367,2.145a5.283,5.283,0,0,0-.985.095,7.546,7.546,0,0,0-2.631,1.1,6.531,6.531,0,0,1,.689.811,9.449,9.449,0,0,1,2.689-1.633,5.991,5.991,0,0,1,1-.279,3.09,3.09,0,0,0-.765-.093" transform="translate(-76.296 -1.803)"/><path class="d" d="M124.383,15.672q.535-.426,1.073-.94c-1.486-4.452-2.018-12.545-6.325-12.545a5.1,5.1,0,0,0-.929.086c3.923.976,4.426,9.511,6.181,13.4" transform="translate(-99.367 -1.838)"/><path class="e" d="M114.175,2.237a3.093,3.093,0,0,0-.765-.093l1.694.006a5.041,5.041,0,0,0-.929.087" transform="translate(-95.34 -1.802)"/><path class="f" d="M142.509,89.849a6.378,6.378,0,0,1-.486-.525,8.909,8.909,0,0,1-2.163,1.155,3.334,3.334,0,0,0,.807.275,3.42,3.42,0,0,0,.687.068,4.507,4.507,0,0,0,1.983-.355,3.765,3.765,0,0,1-.828-.618" transform="translate(-117.569 -75.07)"/><path class="g" d="M111.917,3.006c3.514,1.838,3.819,10.16,6.623,13.54h0c.188-.132.374-.273.56-.421h0c-1.755-3.888-2.257-12.424-6.179-13.4h0a6.074,6.074,0,0,0-1,.28" transform="translate(-94.085 -2.291)"/><path class="h" d="M95.067,6.113c2.694,3.689,3.659,11.353,7.148,13.063h0a8.908,8.908,0,0,0,2.163-1.155h0c-2.8-3.379-3.109-11.7-6.623-13.54h0a9.429,9.429,0,0,0-2.689,1.632" transform="translate(-79.924 -3.766)"/><path class="i" d="M70.457,14.291a40.165,40.165,0,0,0-1.375,3.848,28.623,28.623,0,0,1,3.1-3.74,11.234,11.234,0,0,0-.457-1.194,15.444,15.444,0,0,0-1.266,1.087" transform="translate(-58.085 -11.097)"/><path class="j" d="M86.009,11.479c-.124.089-.249.18-.374.275a11.254,11.254,0,0,1,.457,1.194c.187-.183.372-.36.557-.529a7.4,7.4,0,0,0-.64-.941" transform="translate(-71.997 -9.647)"/><path class="k" d="M88.42,9.629c-.148.093-.294.192-.442.295a7.435,7.435,0,0,1,.641.942c.164-.148.328-.291.491-.426a6.532,6.532,0,0,0-.689-.811" transform="translate(-73.966 -8.093)"/><path class="l" d="M185.8,0c-1.987,7.664-6.138,13.82-9.618,15.372h-.007c-.063.029-.126.055-.188.08a.174.174,0,0,1-.023.009l-.053.02a.14.14,0,0,1-.024.01c-.029.01-.058.019-.087.031l-.036.013-.043.014-.042.015c-.012.005-.026.007-.037.013s-.049.014-.074.022a.14.14,0,0,0-.031.008l-.05.014a.153.153,0,0,1-.034.009l-.055.014-.067.015a1.417,1.417,0,0,0,.5.087c3.3,0,6.627-5.914,12.132-15.748H185.8Z" transform="translate(-147.381 0)"/><path class="m" d="M10.456,2.439s0-.005.006-.005a.007.007,0,0,0,.008-.005h0l.054-.02a.01.01,0,0,0,.01-.005s.009-.005.014-.006l.057-.02h0c.044-.013.084-.029.127-.044.006,0,.012-.005.019-.005s.036-.012.054-.016a.107.107,0,0,1,.025-.008c.019-.006.037-.012.055-.016s.015-.005.021-.006c.061-.017.121-.032.181-.047.009,0,.016-.005.025-.006a.348.348,0,0,1,.053-.01.092.092,0,0,1,.026-.008c.018-.005.035-.006.054-.01h.012l.11-.02H11.4a.465.465,0,0,1,.051-.009c.01,0,.02-.005.029-.005a.376.376,0,0,0,.049-.007.052.052,0,0,0,.027-.005c.038-.005.078-.007.119-.01-.114-.011-.232-.018-.351-.018C7.6,2.125,2.483,9.02.177,17.95H.621c.738-1.316,1.4-2.562,2.008-3.73C4.244,7.894,7.534,3.581,10.456,2.438" transform="translate(-0.177 -1.786)"/><path class="n" d="M77.7,11.222a15.432,15.432,0,0,1,1.266-1.087,5.983,5.983,0,0,0-.3-.583,7.14,7.14,0,0,0-.965,1.669" transform="translate(-65.327 -8.028)"/><path class="n" d="M79.364,4.295a3.17,3.17,0,0,1,.659.819c.063-.077.126-.148.192-.215a3.726,3.726,0,0,0-.9-.628.41.41,0,0,0,.04.019s.005.005.007.005" transform="translate(-66.687 -3.589)"/><path class="o" d="M15.54,15.873c3.389-6.53,4.994-10.662,7.828-11.781h0c-2.922,1.143-6.213,5.457-7.828,11.781" transform="translate(-13.088 -3.439)"/><path class="p" d="M83.933,8.208c-.066.067-.129.138-.192.215a6.065,6.065,0,0,1,.3.583c.125-.1.25-.187.374-.275a5.087,5.087,0,0,0-.484-.522" transform="translate(-70.405 -6.898)"/><path class="q" d="M23.75,53.206h0a.421.421,0,0,1-.061.007h-.012c-.018,0-.036.005-.052.005h-.009c-.042.005-.084.005-.125.008h-.013c3.43-.1,5-1.813,5.775-4.3.591-1.888,1.077-3.479,1.5-4.813a68.2,68.2,0,0,0-4.33,7.132A3.552,3.552,0,0,1,23.75,53.2" transform="translate(-19.76 -37.071)"/><path class="r" d="M25.18,32.947h0a3.55,3.55,0,0,0,2.676-1.961h0a68.49,68.49,0,0,1,4.33-7.132h0a40.076,40.076,0,0,1,1.376-3.848h0c-2.861,2.723-5.732,7.25-8.381,12.94" transform="translate(-21.189 -16.813)"/><path class="s" d="M4.967,77.916C4.361,79.085,3.7,80.33,2.96,81.646H4.253a31.6,31.6,0,0,1,.715-3.73" transform="translate(-2.515 -65.481)"/><path class="t" d="M20.717,2.3c-.01,0-.018.005-.027.005h0a.225.225,0,0,1-.048.007h0a.057.057,0,0,0-.029.005h0a.5.5,0,0,1-.051.009h0a.033.033,0,0,0-.022.005h0l-.11.019h-.012a.433.433,0,0,1-.054.01h0a.091.091,0,0,1-.027.007h0a.5.5,0,0,1-.052.01h0a.05.05,0,0,1-.025.006h0c-.061.015-.121.03-.181.047h0c-.006,0-.013.005-.021.006h0L20,2.459h0a.076.076,0,0,1-.025.007h0l-.054.016h0c-.007,0-.013.005-.02.005h0c-.042.016-.083.031-.126.044h0l-.057.02h0a.121.121,0,0,1-.024.01h0c-.018.006-.037.013-.054.02h0a.09.09,0,0,1-.018.008h0C16.791,3.708,15.186,7.841,11.8,14.371h0a31.458,31.458,0,0,0-.715,3.73h.181c.511,0,.655-.005,1.243-.005h.57c.04-.005.082-.005.125-.008h.008c.018,0,.035-.005.052-.005h.012c.019,0,.04-.005.061-.007h0c2.649-5.69,5.521-10.217,8.381-12.94h0a7.164,7.164,0,0,1,.964-1.669h0a3.16,3.16,0,0,0-.659-.82h0s-.007,0-.007-.005h0l-.04-.019h0l-.04-.02h0L21.9,2.582h0a.363.363,0,0,1-.046-.019h0l-.036-.016h0l-.075-.031h0L21.707,2.5h0l-.056-.022h0a.192.192,0,0,0-.03-.01h0l-.078-.027h-.006c-.03-.01-.059-.017-.09-.026h0a.038.038,0,0,0-.02-.006h0l-.076-.021h0c-.006,0-.012-.005-.018-.005h0c-.061-.016-.125-.029-.189-.041h0c-.007,0-.013-.005-.02-.005h0c-.027-.005-.054-.01-.082-.013h0a.021.021,0,0,0-.016-.005h0l-.1-.013h-.017c-.026-.005-.05-.006-.074-.008h0c-.041.005-.08.007-.119.011" transform="translate(-9.342 -1.934)"/><path class="u" d="M183.66,6.041c-.652,2.088-1.18,3.811-1.639,5.229h0a56.777,56.777,0,0,0,5.229-9.132h0a5.375,5.375,0,0,0-3.59,3.9" transform="translate(-153.001 -1.797)"/><path class="v" d="M180.941,15.253c-.091.046-.183.091-.273.131,3.48-1.552,7.631-7.708,9.618-15.372h-.4c-4.566,8.156-6.034,13.616-8.943,15.241" transform="translate(-151.864 -0.009)"/><path class="w" d="M164.365,64.449c.757-.924,1.374-2.5,2.216-5.084a25.45,25.45,0,0,1-2.927,3.416c0,.005,0,.005-.005.008a8.907,8.907,0,0,0,.715,1.66" transform="translate(-137.56 -49.891)"/><path class="f" d="M162.68,91.223a3.1,3.1,0,0,1-.834.732c-.067.039-.134.075-.2.108a2.933,2.933,0,0,0,1.062.335h0c.057.006.114.011.174.015h.011a.463.463,0,0,1,.083.005h.283a.069.069,0,0,0,.032-.005.258.258,0,0,0,.063-.005h.031c.021,0,.045-.005.068-.007h.005c.007,0,.014-.005.021-.005.024-.005.049-.007.072-.011h.022l.082-.014h.013c.055-.01.108-.021.163-.034a2.363,2.363,0,0,1-1.149-1.1" transform="translate(-135.876 -76.665)"/><path class="x" d="M127.936,96.907a5.218,5.218,0,0,0,.985-.1,6.1,6.1,0,0,0,.918-.247,3.338,3.338,0,0,0,.806.275,3.426,3.426,0,0,0,.688.068Z" transform="translate(-107.547 -81.154)"/><path class="x" d="M149.211,96.842a4.5,4.5,0,0,0,1.982-.355,2.933,2.933,0,0,0,1.062.335h0c.057.006.114.011.174.015h.011a.463.463,0,0,1,.083.005h-3.312Z" transform="translate(-125.426 -81.089)"/><path class="y" d="M170.6,98.256h.186a.068.068,0,0,0,.032-.005.268.268,0,0,0,.063-.005h.031c.021,0,.045-.005.067-.007h.006c.007,0,.014-.005.02-.005.024-.005.049-.007.072-.011a.037.037,0,0,0,.022-.005l.082-.013h.013c.055-.01.108-.021.162-.034h0a1.419,1.419,0,0,0,.5.087l-1.254.005Z" transform="translate(-143.401 -82.503)"/><path class="z" d="M155.059,80.8V80.79q-.537.514-1.073.94c-.187.148-.373.288-.561.421a6.334,6.334,0,0,0,.486.525,3.763,3.763,0,0,0,.827.618c.068-.033.136-.07.2-.108a3.1,3.1,0,0,0,.835-.732,8.918,8.918,0,0,1-.715-1.66" transform="translate(-128.969 -67.897)"/><path class="aa" d="M178.065.011h-2.027c-.11.005-.216.009-.321.016h0c-.05.106-.1.213-.15.32h0a56.766,56.766,0,0,1-5.229,9.132h0c-.841,2.589-1.459,4.16-2.216,5.084h0a2.369,2.369,0,0,0,1.148,1.1h0a.209.209,0,0,1,.035-.008h.007c.008,0,.016-.005.025-.005h0c.018-.005.038-.008.056-.014h0a.279.279,0,0,1,.033-.009h0l.05-.013h0a.12.12,0,0,1,.031-.009h0l.075-.022h0a.212.212,0,0,1,.037-.013h0c.014-.005.029-.009.042-.015h0c.015-.005.03-.008.043-.014h0l.035-.013h0c.029-.01.058-.019.087-.031h0c.008,0,.016-.007.024-.009h0l.053-.021h0a.067.067,0,0,1,.023-.008h0c.061-.026.125-.052.188-.08h.007c.09-.04.181-.084.272-.131h0c2.909-1.625,4.377-7.085,8.943-15.241h-1.274Z" transform="translate(-141.321 -0.009)"/><path class="ab" d="M72.2,2.235a.031.031,0,0,1,.021.005.168.168,0,0,1,.053.006h.018c.032.005.064.008.1.013a.02.02,0,0,1,.016.005l.082.014c.006,0,.014.005.02.005.063.013.127.026.188.042.006,0,.012.005.017.005.026.006.05.014.076.021.008,0,.014.005.021.006.031.008.059.016.089.026,0,0,0,0,.007.005l.078.027a.148.148,0,0,0,.03.01l.056.023a.114.114,0,0,1,.032.011l.074.031.037.016a.322.322,0,0,0,.045.019l.04.019.04.02a3.745,3.745,0,0,1,.9.629,2.915,2.915,0,0,1,.318-.289,3.506,3.506,0,0,0-2.077-.672c-.091,0-.183.005-.275.012" transform="translate(-60.705 -1.875)"/><path class="ac" d="M84.943,6.685a5.085,5.085,0,0,1,.484.522c.148-.1.3-.2.442-.3a4.667,4.667,0,0,0-.609-.516,2.852,2.852,0,0,0-.318.289" transform="translate(-71.416 -5.375)"/><path class="ad" d="M70.349-6.377c.093-.008.184-.011.275-.011a3.51,3.51,0,0,1,2.077.672A3.758,3.758,0,0,1,75.178-6.4H70c.119,0,.236.007.351.018" transform="translate(-58.855 6.738)"/><path class="ae" d="M89.414-9.63a3.758,3.758,0,0,0-2.477.678,4.706,4.706,0,0,1,.608.516,7.551,7.551,0,0,1,2.631-1.1,5.34,5.34,0,0,1,.985-.094Z" transform="translate(-73.091 9.972)"/><path class="af" d="M166.609,9.587c.46-1.419.987-3.141,1.64-5.23a5.373,5.373,0,0,1,3.588-3.9c.052-.105.1-.213.151-.32a5.454,5.454,0,0,0-5.433,4.218c-1.312,4.2-2.107,6.917-2.873,8.65a25.5,25.5,0,0,0,2.926-3.415" transform="translate(-137.59 -0.112)"/></g></g></svg>