<svg xmlns="http://www.w3.org/2000/svg" width="95" height="104.688" viewBox="0 0 95 104.688">
  <g id="nodejs-icon" transform="translate(-0.603 -0.584)">
    <path id="Path_8103" data-name="Path 8103" d="M43.817,1.7a8.779,8.779,0,0,1,8.57,0Q71.959,12.761,91.533,23.813a8.058,8.058,0,0,1,4.07,6.94V75.11A8.146,8.146,0,0,1,91.229,82.2q-19.508,11-39.006,22.005a8.53,8.53,0,0,1-8.665-.241q-5.848-3.39-11.7-6.767A6.891,6.891,0,0,1,29.6,95.573c.5-.67,1.387-.754,2.109-1.047a27.316,27.316,0,0,0,4.617-2.154,1.078,1.078,0,0,1,1.2.072c3.334,1.912,6.639,3.879,9.984,5.772.714.412,1.436-.135,2.046-.475Q68.7,86.922,87.854,76.128a1.267,1.267,0,0,0,.7-1.247q.013-21.949,0-43.9a1.372,1.372,0,0,0-.817-1.368Q68.3,18.664,48.866,7.7a1.35,1.35,0,0,0-1.526,0Q27.9,18.655,8.474,29.618a1.356,1.356,0,0,0-.822,1.362q0,21.949,0,43.9a1.241,1.241,0,0,0,.7,1.232q5.187,2.941,10.38,5.862a8.021,8.021,0,0,0,6.49.869,4.923,4.923,0,0,0,3.188-4.626c.018-14.547-.009-29.1.013-43.641a1.1,1.1,0,0,1,1.193-1.119c1.661-.011,3.325-.022,4.987,0a1.15,1.15,0,0,1,1.085,1.33c-.007,14.639.018,29.279-.011,43.918,0,3.9-1.6,8.147-5.207,10.056-4.446,2.3-9.941,1.815-14.333-.394-3.8-1.9-7.431-4.138-11.166-6.171A8.127,8.127,0,0,1,.6,75.11V30.753a8.073,8.073,0,0,1,4.209-7.028Q24.317,12.717,43.817,1.7Z" fill="#8cc84b"/>
    <path id="Path_8104" data-name="Path 8104" d="M120.494,85.747c5.671-.365,11.742-.216,16.845,2.578,3.951,2.141,6.142,6.634,6.211,11.024a1.193,1.193,0,0,1-1.295.878c-1.645,0-3.291.022-4.937-.011a1.272,1.272,0,0,1-1.191-1.234,7.515,7.515,0,0,0-3.6-5.193c-3.035-1.519-6.553-1.443-9.862-1.411-2.416.128-5.013.337-7.06,1.758a4.473,4.473,0,0,0-1.488,5c.529,1.256,1.979,1.661,3.165,2.035,6.834,1.787,14.077,1.61,20.78,3.962,2.775.959,5.491,2.823,6.441,5.729,1.243,3.895.7,8.55-2.073,11.677a16.362,16.362,0,0,1-8.784,4.734,42.2,42.2,0,0,1-13.259.563c-4.147-.473-8.462-1.562-11.664-4.388a12.24,12.24,0,0,1-3.942-9.655,1.106,1.106,0,0,1,1.211-.975c1.657-.013,3.314-.018,4.971,0a1.161,1.161,0,0,1,1.186,1.148,7.531,7.531,0,0,0,2.8,5.288c3.368,2.173,7.593,2.024,11.449,2.085,3.195-.142,6.781-.185,9.388-2.3a5.185,5.185,0,0,0,1.411-4.953c-.4-1.463-1.934-2.145-3.248-2.591-6.747-2.134-14.07-1.36-20.751-3.773-2.712-.959-5.335-2.771-6.378-5.558-1.454-3.944-.788-8.822,2.274-11.844,2.985-3.005,7.294-4.163,11.391-4.577Z" transform="translate(-65.334 -53.319)" fill="#8cc84b"/>
  </g>
</svg>
