<svg xmlns="http://www.w3.org/2000/svg" width="22.686" height="25" viewBox="0 0 22.686 25"><defs><style>.a{fill:#8cc84b;}</style></defs><g transform="translate(-0.603 -0.584)"><path class="a" d="M10.923.851a2.1,2.1,0,0,1,2.047,0q4.674,2.641,9.348,5.28a1.924,1.924,0,0,1,.972,1.657V18.382a1.945,1.945,0,0,1-1.045,1.693Q17.586,22.7,12.93,25.33a2.037,2.037,0,0,1-2.069-.058q-1.4-.81-2.795-1.616a1.646,1.646,0,0,1-.539-.388c.119-.16.331-.18.5-.25a6.523,6.523,0,0,0,1.1-.514.257.257,0,0,1,.287.017c.8.456,1.585.926,2.384,1.378.17.1.343-.032.489-.113q4.571-2.584,9.146-5.161a.3.3,0,0,0,.166-.3q0-5.241,0-10.484a.328.328,0,0,0-.2-.327Q16.769,4.9,12.129,2.284a.322.322,0,0,0-.365,0Q7.123,4.9,2.483,7.518a.324.324,0,0,0-.2.325q0,5.241,0,10.484a.3.3,0,0,0,.168.294q1.239.7,2.479,1.4a1.915,1.915,0,0,0,1.55.207,1.176,1.176,0,0,0,.761-1.1c0-3.474,0-6.948,0-10.422a.262.262,0,0,1,.285-.267c.4,0,.794-.005,1.191,0a.275.275,0,0,1,.259.318c0,3.5,0,6.992,0,10.488a2.659,2.659,0,0,1-1.244,2.4,3.83,3.83,0,0,1-3.423-.094c-.908-.453-1.775-.988-2.666-1.474A1.941,1.941,0,0,1,.6,18.382V7.789A1.928,1.928,0,0,1,1.608,6.11Z"/><path class="a" d="M108.532,85.637a7.349,7.349,0,0,1,4.023.616,3.042,3.042,0,0,1,1.483,2.633.285.285,0,0,1-.309.21c-.393,0-.786.005-1.179,0a.3.3,0,0,1-.284-.295,1.8,1.8,0,0,0-.859-1.24,5.089,5.089,0,0,0-2.355-.337,3.2,3.2,0,0,0-1.686.42,1.068,1.068,0,0,0-.355,1.193c.126.3.473.4.756.486,1.632.427,3.362.384,4.962.946a2.336,2.336,0,0,1,1.538,1.368,2.923,2.923,0,0,1-.5,2.788,3.907,3.907,0,0,1-2.1,1.131,10.078,10.078,0,0,1-3.166.134,4.99,4.99,0,0,1-2.785-1.048,2.923,2.923,0,0,1-.941-2.306.264.264,0,0,1,.289-.233c.4,0,.791,0,1.187,0a.277.277,0,0,1,.283.274,1.8,1.8,0,0,0,.669,1.263,5.076,5.076,0,0,0,2.734.5,3.713,3.713,0,0,0,2.242-.548,1.238,1.238,0,0,0,.337-1.183c-.1-.349-.462-.512-.776-.619-1.611-.51-3.36-.325-4.956-.9a2.412,2.412,0,0,1-1.523-1.327,2.718,2.718,0,0,1,.543-2.828,4.382,4.382,0,0,1,2.72-1.093Z" transform="translate(-94.9 -77.448)"/></g></svg>