<svg xmlns="http://www.w3.org/2000/svg" width="30.993" height="14.722" viewBox="0 0 30.993 14.722"><path d="M7.785,3.031c2.35.144,3.525,1.3,3.525,3.32a5.154,5.154,0,0,1-5.288,5.34H3.378l-.588,3.031H0L2.35,3.031ZM6.61,5.2H4.7l-.734,4.33H5.729c1.322-.144,2.5-.577,2.644-3.031C8.372,5.629,7.638,5.2,6.61,5.2Zm4.154,6.495L13.114,0H15.9l-.588,3.031h2.644c2.35.144,3.232,1.3,2.938,2.742l-1.028,5.917H16.933l1.028-5.34c.147-.722.147-1.155-.881-1.155h-2.2l-1.322,6.495Zm16.7-8.66c2.35.144,3.525,1.3,3.525,3.32a5.154,5.154,0,0,1-5.288,5.34H23.061l-.588,3.031H19.683l2.35-11.691ZM26.292,5.2h-1.91l-.734,4.33h1.763c1.322-.144,2.5-.577,2.644-3.031C28.055,5.629,27.321,5.2,26.292,5.2Z"/></svg>