<svg xmlns="http://www.w3.org/2000/svg" xmlns:xlink="http://www.w3.org/1999/xlink" width="90.811" height="120" viewBox="0 0 90.811 120"><defs><style>.a{fill:url(#a);}.b,.d{fill:url(#b);}.c{fill:url(#c);}.d{opacity:0.33;}.e{fill:url(#e);}.f{fill:#f0f7fc;}</style><linearGradient id="a" x1="0.5" x2="0.5" y2="1" gradientUnits="objectBoundingBox"><stop offset="0" stop-color="#071539"/><stop offset="0.353" stop-color="#0a3770"/><stop offset="1" stop-color="#00599a"/></linearGradient><linearGradient id="b" y1="0.5" x2="1" y2="0.5" gradientUnits="objectBoundingBox"><stop offset="0" stop-color="#d3e6f5"/><stop offset="1" stop-color="#f0f7fc"/></linearGradient><linearGradient id="c" y1="0.5" x2="1" y2="0.5" gradientUnits="objectBoundingBox"><stop offset="0" stop-color="#d27326"/><stop offset="0.272" stop-color="#f98910"/><stop offset="1" stop-color="#fd0"/></linearGradient><linearGradient id="e" x1="0.5" x2="0.5" y2="1" gradientUnits="objectBoundingBox"><stop offset="0" stop-color="#7dd8f3"/><stop offset="1" stop-color="#45b0d0"/></linearGradient></defs><g transform="translate(-61.118 -39.941)"><path class="a" d="M104.595,27.486V40.459H30V27.486A6.486,6.486,0,0,1,36.486,21H98.108A6.486,6.486,0,0,1,104.595,27.486Z" transform="translate(31.118 18.941)"/><path class="b" d="M104.595,27V46.459H72.162a6.486,6.486,0,0,0-6.487,6.486v58.378H36.486A6.486,6.486,0,0,1,30,104.838V27Z" transform="translate(31.118 32.401)"/><path class="c" d="M88.649,32H49.73A9.73,9.73,0,0,0,40,41.73v64.865a9.73,9.73,0,0,0,9.73,9.73H88.649a9.73,9.73,0,0,0,9.73-9.73V41.73A9.73,9.73,0,0,0,88.649,32Zm3.243,74.595a3.243,3.243,0,0,1-3.243,3.243H49.73a3.243,3.243,0,0,1-3.243-3.243V41.73a3.243,3.243,0,0,1,3.243-3.243H88.649a3.243,3.243,0,0,1,3.243,3.243Z" transform="translate(53.55 43.617)"/><rect class="d" width="45.405" height="71.351" rx="1" transform="translate(100.037 82.103)"/><path class="e" d="M39.486,26.243A3.243,3.243,0,1,1,36.243,23,3.243,3.243,0,0,1,39.486,26.243Z" transform="translate(37.847 23.428)"/><path class="e" d="M43.486,26.243A3.243,3.243,0,1,1,40.243,23,3.243,3.243,0,0,1,43.486,26.243Z" transform="translate(46.82 23.428)"/><path class="f" d="M47.486,26.243A3.243,3.243,0,1,1,44.243,23,3.243,3.243,0,0,1,47.486,26.243Z" transform="translate(55.793 23.428)"/></g></svg>