<svg xmlns="http://www.w3.org/2000/svg" width="93" height="54.434" viewBox="0 0 93 54.434"><defs><style>.a{fill:#ff642d;}</style></defs><path class="a" d="M80.2,26.86c0,1.69-.868,1.95-3.068,1.95-2.333,0-2.734-.391-3-2.081A9.072,9.072,0,0,0,65.6,18.277c-1.6-.13-2-.716-2-2.667,0-1.82.267-2.667,1.732-2.667C74.131,12.943,80.2,19.837,80.2,26.86Zm12.8,0C93,13.79,83.934,0,63,0H21.385c-.84,0-1.36.428-1.36,1.176a1.365,1.365,0,0,0,.6.991,40.926,40.926,0,0,0,6.726,3.908C30.236,7.483,32.468,8.4,34.734,9.3c.935.37,1.307.775,1.307,1.316,0,.706-.51,1.155-1.564,1.155H1.448A1.285,1.285,0,0,0,0,13a1.9,1.9,0,0,0,.65,1.416c2.681,2.729,6.943,6.019,13.173,9.821a195.023,195.023,0,0,0,17.558,9.43c.9.422,1.212.908,1.191,1.412-.025.583-.5,1.076-1.536,1.076H15.9c-.861,0-1.339.442-1.339,1.121a1.918,1.918,0,0,0,.72,1.22c3.444,3.047,8.95,6.379,16.287,9.426A78.856,78.856,0,0,0,62.5,54.434C83.7,54.434,93,38.957,93,26.86ZM65.332,45.395c-10.4,0-19.066-8.261-19.066-18.534,0-10.146,8.665-18.274,19.066-18.274,10.668,0,19,8.131,19,18.274A18.637,18.637,0,0,1,65.332,45.395Z" transform="translate(0)"/></svg>