<svg xmlns="http://www.w3.org/2000/svg" xmlns:xlink="http://www.w3.org/1999/xlink" width="122.326" height="120" viewBox="0 0 122.326 120"><defs><style>.a{fill:url(#a);}.b{fill:url(#b);}.c{fill:#f0f7fc;}.d{fill:url(#d);}.e{fill:url(#e);}.f{fill:url(#f);}.g{fill:url(#h);}.h{fill:url(#l);}</style><linearGradient id="a" x1="0.5" x2="0.5" y2="1" gradientUnits="objectBoundingBox"><stop offset="0" stop-color="#071539"/><stop offset="0.353" stop-color="#0a3770"/><stop offset="1" stop-color="#00599a"/></linearGradient><linearGradient id="b" x1="0.5" x2="0.5" y2="1" gradientUnits="objectBoundingBox"><stop offset="0" stop-color="#7dd8f3"/><stop offset="1" stop-color="#45b0d0"/></linearGradient><linearGradient id="d" y1="0.5" x2="1" y2="0.5" gradientUnits="objectBoundingBox"><stop offset="0" stop-color="#d3e6f5"/><stop offset="1" stop-color="#f0f7fc"/></linearGradient><linearGradient id="e" y1="0.5" x2="1" y2="0.5" gradientUnits="objectBoundingBox"><stop offset="0" stop-color="#d27326"/><stop offset="0.272" stop-color="#f98910"/><stop offset="1" stop-color="#fd0"/></linearGradient><linearGradient id="f" x1="0" y1="0.5" x2="1" y2="0.5" xlink:href="#a"/><linearGradient id="h" x1="0.5" y1="1" x2="0.5" y2="0" xlink:href="#e"/><linearGradient id="l" x1="0.5" y1="0.179" x2="0.5" y2="-2.598" xlink:href="#e"/></defs><g transform="translate(-5.994 -7)"><path class="a" d="M124.608,14.056V25.817H7V14.056A7.056,7.056,0,0,1,14.056,7h103.5A7.057,7.057,0,0,1,124.608,14.056Z" transform="translate(1.36 0)"/><path class="b" d="M15.7,12.352A2.352,2.352,0,1,1,13.352,10,2.352,2.352,0,0,1,15.7,12.352Z" transform="translate(6.769 4.056)"/><path class="b" d="M20.7,12.352A2.352,2.352,0,1,1,18.352,10,2.352,2.352,0,0,1,20.7,12.352Z" transform="translate(13.53 4.056)"/><path class="c" d="M25.7,12.352A2.352,2.352,0,1,1,23.352,10,2.352,2.352,0,0,1,25.7,12.352Z" transform="translate(20.29 4.056)"/><path class="d" d="M124.608,15V83.213a7.057,7.057,0,0,1-7.057,7.056h-4.7V66.748A2.352,2.352,0,0,0,110.5,64.4h-4.7a2.352,2.352,0,0,0-2.352,2.352V90.269H91.678v-4.7a2.352,2.352,0,0,0-2.352-2.352h-4.7a2.352,2.352,0,0,0-2.352,2.352v4.7H70.508V76.156A2.352,2.352,0,0,0,68.156,73.8h-4.7A2.352,2.352,0,0,0,61.1,76.156V90.269H14.056A7.056,7.056,0,0,1,7,83.213V15Z" transform="translate(1.36 10.817)"/><path class="e" d="M116.371,24.493c-.8-1.976-1.764-1.458-13.925-1.458a2.352,2.352,0,1,0,0,4.7h6.092L81.277,55,68.834,42.535a2.352,2.352,0,0,0-3.34,0l-58.8,58.8a2.352,2.352,0,0,0,1.67,4.022c1.505,0-2.634,3.6,58.8-57.84L79.607,59.988a2.352,2.352,0,0,0,3.34,0l28.908-28.932v6.092a2.352,2.352,0,0,0,4.7,0C116.56,24.47,116.56,25.105,116.371,24.493Z" transform="translate(0 21.599)"/><path class="f" d="M30.2,21.349a12.749,12.749,0,0,1-10.632,5.692H17V41.155h2.564A12.749,12.749,0,0,1,30.2,46.847a3.081,3.081,0,0,0,5.622-1.694V23.043A3.081,3.081,0,0,0,30.2,21.349Z" transform="translate(14.882 17.593)"/><path class="a" d="M21.058,43.467c-2.093,0-1.905-.776-6.892-13.243a2.354,2.354,0,0,1,4.375-1.741l4.7,11.761a2.352,2.352,0,0,1-2.188,3.222Z" transform="translate(10.824 27.042)"/><path class="g" d="M39.409,42.352V79.987H30V42.352A2.352,2.352,0,0,1,32.352,40h4.7A2.352,2.352,0,0,1,39.409,42.352Z" transform="translate(32.46 44.621)"/><path class="g" d="M23.352,50h4.7a2.352,2.352,0,0,1,2.352,2.352V66.465H21V52.352A2.352,2.352,0,0,1,23.352,50Z" transform="translate(20.29 58.143)"/><path class="g" d="M48.409,46.352V74.578H39V46.352A2.352,2.352,0,0,1,41.352,44h4.7A2.352,2.352,0,0,1,48.409,46.352Z" transform="translate(44.629 50.03)"/><path class="g" d="M57.409,38.352V85.4H48V38.352A2.352,2.352,0,0,1,50.352,36h4.7A2.352,2.352,0,0,1,57.409,38.352Z" transform="translate(56.799 39.213)"/><path class="h" d="M112.439,60.7H18.352a2.352,2.352,0,1,1,0-4.7h94.087a2.352,2.352,0,0,1,0,4.7Z" transform="translate(13.53 66.256)"/><path class="a" d="M23.761,37.113h-4.7a7.056,7.056,0,1,1,0-14.113h4.7Z" transform="translate(8.121 21.635)"/></g></svg>