<svg xmlns="http://www.w3.org/2000/svg" xmlns:xlink="http://www.w3.org/1999/xlink" width="120.002" height="120" viewBox="0 0 120.002 120"><defs><style>.a{fill:url(#a);}.b{fill:url(#b);}.c{fill:#f0f7fc;}.d{fill:url(#d);}.e{fill:url(#e);}.f{fill:#b4cde1;}.g{fill:url(#f);}.h{fill:#d27326;}</style><linearGradient id="a" x1="0.5" x2="0.5" y2="1" gradientUnits="objectBoundingBox"><stop offset="0" stop-color="#071539"/><stop offset="0.353" stop-color="#0a3770"/><stop offset="1" stop-color="#00599a"/></linearGradient><linearGradient id="b" x1="0.5" x2="0.5" y2="1" gradientUnits="objectBoundingBox"><stop offset="0" stop-color="#7dd8f3"/><stop offset="1" stop-color="#45b0d0"/></linearGradient><linearGradient id="d" y1="0.5" x2="1" y2="0.5" gradientUnits="objectBoundingBox"><stop offset="0" stop-color="#d3e6f5"/><stop offset="1" stop-color="#f0f7fc"/></linearGradient><linearGradient id="e" x1="0.003" y1="0.5" x2="1" y2="0.5" gradientUnits="objectBoundingBox"><stop offset="0" stop-color="#54a5ff"/><stop offset="1" stop-color="#8ad3fe"/></linearGradient><linearGradient id="f" y1="0.5" x2="1" y2="0.5" gradientUnits="objectBoundingBox"><stop offset="0" stop-color="#d27326"/><stop offset="0.272" stop-color="#f98910"/><stop offset="1" stop-color="#fd0"/></linearGradient></defs><g transform="translate(-7 -7)"><path class="a" d="M117.4,14.2v12H7v-12A7.2,7.2,0,0,1,14.2,7h96a7.2,7.2,0,0,1,7.2,7.2Z" transform="translate(0 0)"/><path class="b" d="M15.8,12.4A2.4,2.4,0,1,1,13.4,10,2.4,2.4,0,0,1,15.8,12.4Z" transform="translate(5.6 4.2)"/><path class="b" d="M20.8,12.4A2.4,2.4,0,1,1,18.4,10,2.4,2.4,0,0,1,20.8,12.4Z" transform="translate(12.6 4.2)"/><path class="c" d="M25.8,12.4A2.4,2.4,0,1,1,23.4,10,2.4,2.4,0,0,1,25.8,12.4Z" transform="translate(19.6 4.2)"/><path class="d" d="M117.4,15V75a7.2,7.2,0,0,1-7.2,7.2h-96A7.2,7.2,0,0,1,7,75V15Z" transform="translate(0 11.2)"/><path class="e" d="M67.661,29.014a6.24,6.24,0,0,1-6.456,6H40.517a6.024,6.024,0,1,1,0-12H61.205a6.24,6.24,0,0,1,6.456,6Z" transform="translate(37.739 22.386)"/><rect class="c" width="40.8" height="24" transform="translate(19 38.2)"/><path class="f" d="M50.4,37.8h-36a2.4,2.4,0,1,1,0-4.8h36a2.4,2.4,0,1,1,0,4.8Z" transform="translate(7 36.4)"/><path class="f" d="M36,41.8H14.4a2.4,2.4,0,0,1,0-4.8H36a2.4,2.4,0,0,1,0,4.8Z" transform="translate(7 42)"/><path class="g" d="M93.4,61.155v12.36a32.352,32.352,0,0,1-14.4,26.9H45.4A32.352,32.352,0,0,1,31,73.515v-21.1c0-8.184,14.4-5.424,14.4,4.8V32.355a6.24,6.24,0,0,1,5.376-6.336,6,6,0,0,1,6.624,6v21.6a6,6,0,0,1,6.624-6A6.24,6.24,0,0,1,69.4,53.955v2.064a6,6,0,0,1,6.624-6A6.24,6.24,0,0,1,81.4,56.355v4.464a6,6,0,0,1,6.624-6A6.24,6.24,0,0,1,93.4,61.155Z" transform="translate(33.6 26.581)"/><path class="h" d="M39.8,43.858v16.8a4.8,4.8,0,0,1-4.8-4.8V35.53A9.6,9.6,0,0,1,39.8,43.858Z" transform="translate(39.2 39.942)"/></g></svg>