<svg xmlns="http://www.w3.org/2000/svg" width="76" height="76.749" viewBox="0 0 76 76.749">
  <g id="vagrant" transform="translate(0 -0.665)">
    <path id="Path_16368" data-name="Path 16368" d="M75.949,6.169C75.4,5.72,71.093,3.41,71.093,3.41L66.5,6.08h0l4.6-2.67L66.5.671V6.079L61.7,3.4s-3.921,2.292-5.825,3.391c-2.4,1.383-8.274,4.882-8.274,4.882v5.167L42.762,29.451V36.3l-3.4,1.983-1.352,3.537L28.484,17.1V11.681L9.495.665.01,6.156l-.01,0V11.74L5.916,25.988l3.595,2.117,0,6.5L23.765,69.217l14.242,8.151v.047l14.224-8.231L76,11.626l-.051-5.457" fill="#3185b8"/>
    <path id="Path_16369" data-name="Path 16369" d="M38.018,90.333,23.765,82.176,9.514,47.562l0-6.5L5.916,38.947,0,24.7V19.113l4.681,2.729v5.5l4.838,2.808V24.618l9.453,5.469.455,5.414L33.169,71.17l9.549,5.563V87.642L38,84.869l.013,5.464" transform="translate(0 -12.96)" fill="#3185b8"/>
    <path id="Path_16370" data-name="Path 16370" d="M39.536,36.5l9.528,24.718-.02,13.616-4.829,2.747L30.48,41.9l-.455-5.375,9.513-5.446V36.5m-23.8-8.219v5.5l4.839-2.724-4.839-2.776" transform="translate(-11.052 -19.403)" fill="#61a5ce"/>
    <path id="Path_16371" data-name="Path 16371" d="M20.571,43.147V37.616L15.733,40.34l4.838,2.808" transform="translate(-11.052 -25.958)" fill="#eae9e6"/>
    <path id="Path_16372" data-name="Path 16372" d="M127.7,81.418l4.763,2.725,5.3-13.316,4.084,2.43V60.5l1.3-3.081,3.477,2.036V54.057l-4.734-2.75,4.76-2.763-4.681-2.7-.012-5.483-4.653-2.713v5.168L132.47,55.432v6.85l-3.4,1.983L127.72,67.8l-.02,13.616" transform="translate(-89.708 -25.982)" fill="#3185b8"/>
    <path id="Path_16373" data-name="Path 16373" d="M127.48,74.007l4.792,2.763-.024,10.911,9.536-5.5,23.769-57.557-.051-5.457-14.247,8.212V38.334l-4.778,2.739v5.395L143,44.431l-1.3,3.081V60.247l-6.618,3.891-2.77,7.021-4.829,2.849" transform="translate(-89.553 -12.997)" fill="#61a5ce"/>
    <path id="Path_16374" data-name="Path 16374" d="M63.667,67.842l4.78-2.777v5.494l-4.78-2.717" transform="translate(-44.725 -45.24)" fill="#eae9e6"/>
    <path id="Path_16375" data-name="Path 16375" d="M79.733,70.559l4.74,2.678V67.842l-4.74-2.777v5.494" transform="translate(-56.012 -45.24)" fill="#3185b8"/>
    <path id="Path_16376" data-name="Path 16376" d="M47.845,120.2v5.534l4.786-2.754-4.786-2.78" transform="translate(-33.611 -83.969)" fill="#61a5ce"/>
    <path id="Path_16377" data-name="Path 16377" d="M57.408,132.319l-4.8,2.8-4.76-2.822,4.786-2.754,4.777,2.78" transform="translate(-33.611 -90.533)" fill="#eae9e6"/>
    <path id="Path_16378" data-name="Path 16378" d="M79.77,194.133v5.581l4.811-2.782-4.811-2.8" transform="translate(-56.038 -135.909)" fill="#61a5ce"/>
    <path id="Path_16379" data-name="Path 16379" d="M111.522,224.15l4.846,2.817.018-5.668-4.863,2.852" transform="translate(-78.343 -154.992)" fill="#eae9e6"/>
    <path id="Path_16380" data-name="Path 16380" d="M127.75,245.79l.018-5.44,4.67,2.711-4.688,2.729" transform="translate(-89.743 -168.376)" fill="#61a5ce"/>
    <path id="Path_16381" data-name="Path 16381" d="M116.3,184.765l-4.829,2.747,4.764,2.827,4.829-2.849-4.763-2.725" transform="translate(-78.304 -129.328)" fill="#eae9e6"/>
    <path id="Path_16382" data-name="Path 16382" d="M185.122,51.384V40.428L180.4,37.743V43.2l-4.716,2.71,9.433,5.473" transform="translate(-123.42 -26.047)" fill="#3185b8"/>
    <path id="Path_16383" data-name="Path 16383" d="M175.422,77.028l4.76-2.763,4.752,2.775-4.778,2.739-4.734-2.75" transform="translate(-123.232 -51.703)" fill="#eae9e6"/>
    <path id="Path_16384" data-name="Path 16384" d="M175.659,45.911l4.716-2.71V37.743l-4.728,2.685.012,5.483" transform="translate(-123.39 -26.047)" fill="#61a5ce"/>
    <path id="Path_16385" data-name="Path 16385" d="M223.505,6.093V.685L228.1,3.423l-4.6,2.67" transform="translate(-157.01 -0.014)" fill="#3185b8"/>
    <path id="Path_16386" data-name="Path 16386" d="M75.97,6.169,61.723,14.381,57.006,11.7l-4.728,2.685-4.653-2.713S53.5,8.169,55.9,6.786c1.9-1.1,5.824-3.39,5.824-3.39l4.8,2.684,4.6-2.67s4.307,2.31,4.855,2.759h0M28.506,11.681l-9.513,5.446L.03,6.156,9.516.665l18.99,11.016" transform="translate(-0.021)" fill="#eae9e6"/>
    <path id="Path_16387" data-name="Path 16387" d="M206.03,33.762v-5.33l-4.635,2.675,4.635,2.656m-14.05,24.78,4.612-2.646V61.2l-4.612-2.661" transform="translate(-134.864 -19.506)" fill="#3185b8"/>
    <path id="Path_16388" data-name="Path 16388" d="M159.583,203.378v5.5l4.8-2.779-4.8-2.72" transform="translate(-112.105 -142.404)" fill="#eae9e6"/>
    <path id="Path_16389" data-name="Path 16389" d="M164.416,199.641l-.059-5.455-4.775,2.735,4.835,2.72" transform="translate(-112.105 -135.946)" fill="#3185b8"/>
  </g>
</svg>
