<svg xmlns="http://www.w3.org/2000/svg" xmlns:xlink="http://www.w3.org/1999/xlink" width="117.922" height="120" viewBox="0 0 117.922 120"><defs><style>.a{fill:url(#a);}.b{fill:url(#b);}.c{fill:url(#c);}.d{fill:url(#d);}.e{fill:#f7ffff;}.f{fill:#f0f7fc;}.g{fill:#d7e9f7;}.h{fill:url(#f);}.i{fill:url(#g);}.j{fill:url(#h);}</style><linearGradient id="a" x1="0.5" x2="0.5" y2="1" gradientUnits="objectBoundingBox"><stop offset="0" stop-color="#071539"/><stop offset="0.353" stop-color="#0a3770"/><stop offset="1" stop-color="#00599a"/></linearGradient><linearGradient id="b" y1="0.5" x2="1" y2="0.5" gradientUnits="objectBoundingBox"><stop offset="0" stop-color="#d3e6f5"/><stop offset="1" stop-color="#f0f7fc"/></linearGradient><linearGradient id="c" x1="-0.308" y1="-0.503" x2="1.112" y2="1.095" gradientUnits="objectBoundingBox"><stop offset="0" stop-color="#d27326"/><stop offset="0.272" stop-color="#f98910"/><stop offset="1" stop-color="#fd0"/></linearGradient><linearGradient id="d" x1="0.5" x2="0.5" y2="1" gradientUnits="objectBoundingBox"><stop offset="0" stop-color="#7dd8f3"/><stop offset="1" stop-color="#45b0d0"/></linearGradient><linearGradient id="f" x1="0" y1="0.5" x2="1" y2="0.5" xlink:href="#a"/><linearGradient id="g" xlink:href="#b"/><linearGradient id="h" x1="0.5" y1="0" x2="0.5" y2="1" xlink:href="#c"/></defs><g transform="translate(-7 -6)"><path class="a" d="M92.054,10.624v9.249H25V10.624A4.624,4.624,0,0,1,29.624,6H87.43A4.624,4.624,0,0,1,92.054,10.624Z" transform="translate(23.62 0)"/><path class="b" d="M92.054,12V44.371A4.624,4.624,0,0,1,87.43,49H29.624V37.434a9.249,9.249,0,0,0-4.624-8V12Z" transform="translate(23.62 7.873)"/><path class="c" d="M53.244,28.275v18.5A9.249,9.249,0,0,1,44,56.022H16.249A9.249,9.249,0,0,1,7,46.773v-18.5a9.249,9.249,0,0,1,9.249-9.249c30.59,0,29.481-.416,32.371,1.249A9.249,9.249,0,0,1,53.244,28.275Z" transform="translate(0 17.032)"/><path class="d" d="M32.624,10.312A2.312,2.312,0,1,1,30.312,8,2.312,2.312,0,0,1,32.624,10.312Z" transform="translate(27.556 2.624)"/><path class="d" d="M36.624,10.312A2.312,2.312,0,1,1,34.312,8,2.312,2.312,0,0,1,36.624,10.312Z" transform="translate(32.805 2.624)"/><path class="e" d="M40.624,10.312A2.312,2.312,0,1,1,38.312,8,2.312,2.312,0,0,1,40.624,10.312Z" transform="translate(38.054 2.624)"/><rect class="f" width="18.498" height="23.122" rx="1" transform="translate(60.181 26.81)"/><path class="g" d="M59.5,19.624H43.312a2.312,2.312,0,1,1,0-4.624H59.5a2.312,2.312,0,1,1,0,4.624Z" transform="translate(44.615 11.81)"/><path class="g" d="M59.5,23.624H43.312a2.312,2.312,0,1,1,0-4.624H59.5a2.312,2.312,0,1,1,0,4.624Z" transform="translate(44.615 17.059)"/><path class="g" d="M52.561,27.624H43.312a2.312,2.312,0,1,1,0-4.624h9.249a2.312,2.312,0,0,1,0,4.624Z" transform="translate(44.615 22.307)"/><path class="e" d="M14,41.5V23l18.5,9.434Z" transform="translate(9.185 22.307)"/><path class="h" d="M44.122,62.122H32.561a11.561,11.561,0,0,1,0-23.122H44.122Z" transform="translate(18.371 43.303)"/><path class="i" d="M57.914,33.487C52.943,42.2,43.925,48.193,31,48.193V71.315a29.689,29.689,0,0,1,16.185,3.954c9.711,5.6,9.6,11.561,12.74,12.185a2.936,2.936,0,0,0,3.445-2.89V34.944a2.913,2.913,0,0,0-5.457-1.457Z" transform="translate(31.493 34.11)"/><path class="g" d="M47.312,54.873H45V41h2.312a6.937,6.937,0,0,1,0,13.873Z" transform="translate(49.864 45.927)"/><path class="j" d="M62.249,47.624H55.312a2.312,2.312,0,1,1,0-4.624h6.937a2.312,2.312,0,0,1,0,4.624Z" transform="translate(60.361 48.552)"/><path class="j" d="M57.7,57.97c-1.272,0-1.318-.37-6.544-5.6a2.312,2.312,0,0,1,3.26-3.145l4.925,4.9A2.312,2.312,0,0,1,57.7,57.97Z" transform="translate(57.468 56.195)"/><path class="j" d="M52.967,44.752a2.312,2.312,0,0,1-1.642-3.931l4.9-4.925a2.322,2.322,0,1,1,3.283,3.283C54.169,44.5,54.215,44.752,52.967,44.752Z" transform="translate(57.296 38.337)"/><path class="a" d="M34.139,67.29,26,49h9.249l6.613,14.867a4.231,4.231,0,0,1-7.723,3.422Z" transform="translate(24.932 56.425)"/></g></svg>