<svg xmlns="http://www.w3.org/2000/svg" xmlns:xlink="http://www.w3.org/1999/xlink" width="111.822" height="120" viewBox="0 0 111.822 120"><defs><style>.a{fill:#b4cde1;}.b{fill:url(#a);}.c{fill:url(#b);}.d{fill:url(#c);}.e{fill:#d7e9f7;}.f{fill:url(#d);}</style><linearGradient id="a" x1="0.003" y1="0.5" x2="0.997" y2="0.5" gradientUnits="objectBoundingBox"><stop offset="0" stop-color="#d3e6f5"/><stop offset="1" stop-color="#f0f7fc"/></linearGradient><linearGradient id="b" y1="0.5" x2="1" y2="0.5" gradientUnits="objectBoundingBox"><stop offset="0" stop-color="#071539"/><stop offset="0.353" stop-color="#0a3770"/><stop offset="1" stop-color="#00599a"/></linearGradient><linearGradient id="c" x1="0" y1="0.5" x2="1" y2="0.5" xlink:href="#a"/><linearGradient id="d" y1="0.5" x2="1" y2="0.5" gradientUnits="objectBoundingBox"><stop offset="0" stop-color="#d27326"/><stop offset="0.272" stop-color="#f98910"/><stop offset="1" stop-color="#fd0"/></linearGradient></defs><g transform="translate(-6.84 -5)"><path class="a" d="M31,61.556V48.222a2.222,2.222,0,1,1,4.444,0V61.556a2.222,2.222,0,1,1-4.444,0Z" transform="translate(29.529 50.111)"/><path class="a" d="M31,25.556V12.222a2.222,2.222,0,0,1,4.444,0V25.556a2.222,2.222,0,0,1-4.444,0Z" transform="translate(29.529 6.111)"/><path class="a" d="M26.058,28.281c-1.311,0-1.022,0-11.289-10.356a2.231,2.231,0,1,1,3.156-3.156l9.711,9.711a2.222,2.222,0,0,1-1.578,3.8Z" transform="translate(8.893 11.142)"/><path class="a" d="M55.448,57.671c-1.311,0-1.022-.111-11.289-10.356a2.231,2.231,0,1,1,3.156-3.156l9.711,9.711a2.222,2.222,0,0,1-1.578,3.8Z" transform="translate(44.814 47.063)"/><path class="a" d="M16.349,57.671a2.222,2.222,0,0,1-1.578-3.8l9.711-9.711a2.231,2.231,0,0,1,3.156,3.156C17.438,57.515,17.66,57.671,16.349,57.671Z" transform="translate(8.891 47.063)"/><path class="a" d="M45.739,28.281a2.222,2.222,0,0,1-1.578-3.8l9.711-9.711a2.231,2.231,0,1,1,3.156,3.156C46.828,28.125,47.05,28.281,45.739,28.281Z" transform="translate(44.812 11.142)"/><ellipse class="b" cx="55.911" cy="27.4" rx="55.911" ry="27.4" transform="translate(6.84 37.6)"/><circle class="c" cx="26.667" cy="26.667" r="26.667" transform="translate(36.084 38.333)"/><path class="d" d="M42.467,26.275a12.044,12.044,0,0,1-10.044,5.378H30V44.986h2.422a12.044,12.044,0,0,1,10.044,5.378,2.911,2.911,0,0,0,5.311-1.6V27.875a2.911,2.911,0,0,0-5.311-1.6Z" transform="translate(28.307 24.458)"/><path class="e" d="M36.111,41.333H31.667a6.667,6.667,0,0,1,0-13.333h4.444Z" transform="translate(22.196 28.111)"/><path class="e" d="M33.668,47.557c-1.978,0-1.8-.733-6.511-12.511A2.224,2.224,0,1,1,31.29,33.4l4.444,11.111a2.222,2.222,0,0,1-2.067,3.044Z" transform="translate(24.639 32.999)"/><circle class="f" cx="6.667" cy="6.667" r="6.667" transform="translate(13.862 100.556)"/><circle class="f" cx="6.667" cy="6.667" r="6.667" transform="translate(98.307 100.556)"/><circle class="f" cx="6.667" cy="6.667" r="6.667" transform="translate(13.862 16.111)"/><circle class="f" cx="6.667" cy="6.667" r="6.667" transform="translate(98.307 16.111)"/><circle class="f" cx="6.667" cy="6.667" r="6.667" transform="translate(56.084 111.667)"/><circle class="f" cx="6.667" cy="6.667" r="6.667" transform="translate(56.084 5)"/></g></svg>