<svg xmlns="http://www.w3.org/2000/svg" xmlns:xlink="http://www.w3.org/1999/xlink" width="25" height="25" viewBox="0 0 25 25"><defs><style>.a{fill:none;}.b{clip-path:url(#a);}.c{fill:#00749a;}.d{fill:#464342;}</style><clipPath id="a"><rect class="a" width="25" height="25"/></clipPath></defs><g transform="translate(-10 -9.995)"><g transform="translate(10 9.995)"><g transform="translate(0 0)"><g class="b"><g transform="translate(0 0)"><path class="c" d="M1195.125,238.3h-4.338v.46c1.357,0,1.575.291,1.575,2.011v3.1c0,1.72-.218,2.036-1.575,2.036a4.425,4.425,0,0,1-2.714-1.769l-1.115-1.211a2.434,2.434,0,0,0,2.3-2.278c0-1.332-1.139-2.35-3.271-2.35h-4.265v.46c1.357,0,1.575.291,1.575,2.011v3.1c0,1.72-.218,2.036-1.575,2.036v.46h4.822v-.46c-1.356,0-1.575-.315-1.575-2.036V243h.412l2.69,3.368h7.051c3.465,0,4.967-1.841,4.967-4.047s-1.5-4.022-4.968-4.022Zm-10.152,3.949v-3.222h.993a1.612,1.612,0,0,1,0,3.222Zm10.225,3.368h-.17c-.872,0-.993-.218-.993-1.332v-5.258h1.163c2.52,0,2.98,1.841,2.98,3.271C1198.177,243.773,1197.717,245.614,1195.2,245.614Z" transform="translate(-1131.221 -228.457)"/><path class="c" d="M624.4,189.347l1.672-4.944c.485-1.429.267-1.841-1.284-1.841v-.485h4.555v.485c-1.526,0-1.89.363-2.5,2.132l-2.762,8.287h-.315l-2.472-7.584-2.52,7.584h-.315l-2.69-8.287c-.581-1.769-.969-2.132-2.375-2.132v-.485h5.379v.485c-1.43,0-1.818.339-1.309,1.841l1.623,4.944,2.447-7.269H622Z" transform="translate(-587.387 -174.661)"/><path class="c" d="M952.16,239.68a4.375,4.375,0,1,1,4.846-4.362A4.637,4.637,0,0,1,952.16,239.68Zm0-7.947c-2.229,0-3,2.011-3,3.586,0,1.6.776,3.586,3,3.586,2.254,0,3.029-1.987,3.029-3.586C955.189,233.743,954.414,231.733,952.16,231.733Z" transform="translate(-906.913 -221.456)"/><path class="d" d="M1623.5,192.081v.485h-5.549v-.485c1.624,0,1.914-.412,1.914-2.835V185.37c0-2.423-.291-2.811-1.914-2.811v-.485h5.016c2.5,0,3.877,1.284,3.877,3,0,1.672-1.381,2.98-3.877,2.98h-1.381v1.187C1621.587,191.67,1621.878,192.081,1623.5,192.081Zm-.533-9.135h-1.381v4.216h1.381a1.894,1.894,0,0,0,1.987-2.084A1.92,1.92,0,0,0,1622.969,182.946Z" transform="translate(-1548.646 -174.657)"/><path class="d" d="M1853.285,244.088l-.121.436c-.218.8-.485,1.09-2.205,1.09h-.339c-1.26,0-1.478-.291-1.478-2.011v-1.114c1.89,0,2.036.169,2.036,1.43h.461v-3.611h-.461c0,1.26-.145,1.43-2.036,1.43v-2.714h1.332c1.721,0,1.987.291,2.205,1.09l.122.46h.387l-.169-2.278h-7.124v.46c1.357,0,1.575.291,1.575,2.011v3.1c0,1.574-.185,1.97-1.255,2.027a4.468,4.468,0,0,1-2.67-1.76l-1.115-1.211c1.5-.267,2.3-1.211,2.3-2.278,0-1.332-1.139-2.35-3.271-2.35H1837.2v.46c1.357,0,1.575.291,1.575,2.011v3.1c0,1.72-.218,2.036-1.575,2.036v.46h4.822v-.46c-1.357,0-1.575-.315-1.575-2.036V243h.412l2.689,3.368h9.959l.146-2.277Zm-12.842-1.842v-3.222h.993a1.612,1.612,0,0,1,0,3.222Z" transform="translate(-1758.44 -228.457)"/><path class="d" d="M2257.327,239.686a3.582,3.582,0,0,1-2.181-.824,1.739,1.739,0,0,0-.388.824h-.46v-3.344h.485a2.689,2.689,0,0,0,2.738,2.544,1.248,1.248,0,0,0,1.406-1.163c0-.63-.557-1.115-1.551-1.575l-1.381-.654a2.637,2.637,0,0,1-1.7-2.326,2.379,2.379,0,0,1,2.593-2.156,3.036,3.036,0,0,1,1.89.63,1.372,1.372,0,0,0,.315-.655h.46v2.859h-.509c-.17-1.139-.8-2.084-2.084-2.084-.678,0-1.308.387-1.308.994,0,.63.509.969,1.672,1.5l1.332.654a2.528,2.528,0,0,1,1.623,2.181,2.736,2.736,0,0,1-2.956,2.592Z" transform="translate(-2157.563 -221.462)"/><path class="d" d="M2430.468,239.686a3.58,3.58,0,0,1-2.181-.824,1.739,1.739,0,0,0-.387.824h-.46v-3.344h.485a2.688,2.688,0,0,0,2.738,2.544,1.248,1.248,0,0,0,1.406-1.163c0-.63-.557-1.115-1.551-1.575l-1.381-.654a2.637,2.637,0,0,1-1.7-2.326,2.379,2.379,0,0,1,2.593-2.156,3.035,3.035,0,0,1,1.89.63,1.365,1.365,0,0,0,.315-.655h.461v2.859h-.509c-.17-1.139-.8-2.084-2.084-2.084-.678,0-1.309.387-1.309.994,0,.63.509.969,1.672,1.5l1.333.654a2.528,2.528,0,0,1,1.623,2.181,2.736,2.736,0,0,1-2.956,2.592Z" transform="translate(-2323.241 -221.462)"/><path class="c" d="M51.223,203.108a10.726,10.726,0,0,0,6.044,9.651l-5.115-14.015A10.683,10.683,0,0,0,51.223,203.108Z" transform="translate(-49.446 -190.608)"/><path class="c" d="M108.339,61.4a5.644,5.644,0,0,0-.885-2.957,5.021,5.021,0,0,1-1.053-2.515,1.857,1.857,0,0,1,1.8-1.9c.048,0,.093.006.139.009a10.721,10.721,0,0,0-16.2,2.018c.252.008.489.013.69.013,1.122,0,2.858-.136,2.858-.136a.443.443,0,0,1,.069.883s-.581.068-1.228.1l3.905,11.615,2.347-7.038L99.11,56.913c-.577-.034-1.124-.1-1.124-.1a.443.443,0,0,1,.068-.883s1.771.136,2.825.136c1.121,0,2.858-.136,2.858-.136a.443.443,0,0,1,.069.883s-.582.068-1.227.1l3.875,11.527,1.069-3.574A12.946,12.946,0,0,0,108.339,61.4Z" transform="translate(-88.6 -49.441)"/><path class="c" d="M232.943,321.755l-3.217,9.349a10.724,10.724,0,0,0,6.59-.171.886.886,0,0,1-.076-.148Z" transform="translate(-220.255 -308.317)"/><path class="c" d="M429.089,180.631a8.247,8.247,0,0,1,.072,1.1,10.115,10.115,0,0,1-.815,3.841l-3.275,9.47a10.725,10.725,0,0,0,4.019-14.414Z" transform="translate(-407.179 -173.276)"/><path class="c" d="M22.5,9.995A12.5,12.5,0,1,0,35,22.495,12.514,12.514,0,0,0,22.5,9.995Zm0,24.427A11.927,11.927,0,1,1,34.426,22.495,11.941,11.941,0,0,1,22.5,34.422Z" transform="translate(-10 -9.995)"/></g></g></g></g></g></svg>