<svg xmlns="http://www.w3.org/2000/svg" xmlns:xlink="http://www.w3.org/1999/xlink" width="94.621" height="41.951" viewBox="0 0 94.621 41.951"><defs><style>.a{fill:url(#a);}.b{fill:url(#b);}.c{fill:url(#c);}.d{fill:url(#d);}.e{fill:url(#e);}</style><linearGradient id="a" x1="0.5" y1="1" x2="0.5" gradientUnits="objectBoundingBox"><stop offset="0" stop-color="#570732"/><stop offset="0.04" stop-color="#610b39"/><stop offset="0.15" stop-color="#79164b"/><stop offset="0.29" stop-color="#8c1e59"/><stop offset="0.44" stop-color="#9a2463"/><stop offset="0.63" stop-color="#a22768"/><stop offset="1" stop-color="#a4286a"/></linearGradient><linearGradient id="b" x1="0.5" x2="0.5" y2="0" xlink:href="#a"/><linearGradient id="c" x1="0.5" x2="0.5" y2="0" xlink:href="#a"/><linearGradient id="d" x1="0.5" x2="0.5" y2="0" xlink:href="#a"/><linearGradient id="e" x1="0.5" y1="-0.027" x2="0.5" y2="0.763" gradientUnits="objectBoundingBox"><stop offset="0" stop-color="#77b227"/><stop offset="0.47" stop-color="#75b027"/><stop offset="0.64" stop-color="#6eab27"/><stop offset="0.75" stop-color="#63a027"/><stop offset="0.85" stop-color="#529228"/><stop offset="0.93" stop-color="#3c8028"/><stop offset="1" stop-color="#246b29"/></linearGradient></defs><g transform="translate(-10 -9.16)"><path class="a" d="M131.456,62.17c-7.31,0-10.236,4.907-10.236,10.372,0,5.677,2.882,10.586,10.236,10.586s10.219-5.138,10.206-10.253C141.645,66.646,138.492,62.17,131.456,62.17Zm-4.43,10.681c.178-7.307,5.795-7.307,7.67-4.686,1.7,2.388,2.061,10.548-3.24,10.488C129.015,78.627,127.1,76.976,127.026,72.851Z" transform="translate(-90.172 -42.978)"/><path class="b" d="M450.915,57.255v-10.6H454.7V42.064h-3.785V36.51h-5.848v5.554H442.1v4.6h2.967v10a9.575,9.575,0,0,0,8.138,9.752L454.95,61.7A4.418,4.418,0,0,1,450.915,57.255Z" transform="translate(-350.328 -22.174)"/><path class="c" d="M254.074,76.1V68.143a8.307,8.307,0,0,0-.045-.831c-.507-6.434-9.642-6.419-16.718-3.949l2.049,4.116c4.608-2.188,7.365-1.624,8.327-.545.025.028.049.055.072.085a.039.039,0,0,0,0,.011,4.367,4.367,0,0,1,.378,2.532c-6.02,0-12.428.8-12.428,7.4,0,5.021,6.289,8.249,12.868,3.465l.977,2.352h5.632A48.963,48.963,0,0,1,254.074,76.1Zm-5.891-.049c-4.633,5.183-8.874.3-4.53-1.824a15.2,15.2,0,0,1,4.53-.454Z" transform="translate(-182.996 -42.702)"/><path class="d" d="M352.335,67.236c0-1.961,3.141-2.878,8.094-.617l1.713-4.163c-6.665-2.017-15.768-2.191-15.828,4.78-.027,3.342,2.116,5.14,5.2,6.287,2.137.795,5.223,1.205,5.214,2.909-.011,2.224-4.8,2.564-9.15-.428l-1.76,4.512c5.938,2.956,16.984,3.039,16.926-4.37-.049-7.324-10.41-6.069-10.41-8.91Z" transform="translate(-272.268 -42.225)"/><path class="e" d="M28.576,9.16,20.1,32.707,16.039,19.992H10l6.76,17.365a6.323,6.323,0,0,1,0,4.6,5.759,5.759,0,0,1-5.077,4.008v5.147c5.967,0,9.193-3.668,12.072-11.708L35.037,9.16Z" transform="translate(0 0)"/></g></svg>